G04 #@! TF.GenerationSoftware,KiCad,Pcbnew,(5.1.9-0-10_14)*
G04 #@! TF.CreationDate,2025-05-13T11:21:21-05:00*
G04 #@! TF.ProjectId,DTYF Beta,44545946-2042-4657-9461-2e6b69636164,rev?*
G04 #@! TF.SameCoordinates,Original*
G04 #@! TF.FileFunction,Soldermask,Top*
G04 #@! TF.FilePolarity,Negative*
%FSLAX46Y46*%
G04 Gerber Fmt 4.6, Leading zero omitted, Abs format (unit mm)*
G04 Created by KiCad (PCBNEW (5.1.9-0-10_14)) date 2025-05-13 11:21:21*
%MOMM*%
%LPD*%
G01*
G04 APERTURE LIST*
%ADD10R,1.092200X0.254000*%
%ADD11R,0.965200X0.254000*%
%ADD12R,0.279400X0.254000*%
%ADD13R,0.254000X0.279400*%
%ADD14R,0.812800X0.254000*%
%ADD15R,1.752600X2.489200*%
%ADD16C,0.900000*%
%ADD17C,0.700000*%
%ADD18O,0.900000X2.400000*%
%ADD19O,0.900000X1.700000*%
%ADD20R,0.800000X1.000000*%
%ADD21R,0.812800X0.838200*%
%ADD22R,0.812800X0.355600*%
%ADD23R,0.900000X0.800000*%
%ADD24R,1.060000X0.650000*%
%ADD25R,0.360000X0.250000*%
%ADD26R,0.250000X0.360000*%
G04 APERTURE END LIST*
D10*
X160012800Y-100700001D03*
D11*
X160076300Y-100199999D03*
X160076300Y-99700000D03*
X160076300Y-99200001D03*
X160076300Y-98699999D03*
X158323700Y-98699999D03*
X158323700Y-99200001D03*
X158323700Y-99700000D03*
X158323700Y-100199999D03*
X158323700Y-100700001D03*
D12*
X140236600Y-93250189D03*
X140236600Y-92750063D03*
X140236600Y-92249937D03*
X140236600Y-91749811D03*
D13*
X139750063Y-91763400D03*
X139249937Y-91763400D03*
D12*
X138763400Y-91749811D03*
X138763400Y-92249937D03*
X138763400Y-92750063D03*
X138763400Y-93250189D03*
D13*
X139249937Y-93236600D03*
X139750063Y-93236600D03*
G36*
G01*
X149800000Y-99530000D02*
X149800000Y-99870000D01*
G75*
G02*
X149660000Y-100010000I-140000J0D01*
G01*
X149380000Y-100010000D01*
G75*
G02*
X149240000Y-99870000I0J140000D01*
G01*
X149240000Y-99530000D01*
G75*
G02*
X149380000Y-99390000I140000J0D01*
G01*
X149660000Y-99390000D01*
G75*
G02*
X149800000Y-99530000I0J-140000D01*
G01*
G37*
G36*
G01*
X150760000Y-99530000D02*
X150760000Y-99870000D01*
G75*
G02*
X150620000Y-100010000I-140000J0D01*
G01*
X150340000Y-100010000D01*
G75*
G02*
X150200000Y-99870000I0J140000D01*
G01*
X150200000Y-99530000D01*
G75*
G02*
X150340000Y-99390000I140000J0D01*
G01*
X150620000Y-99390000D01*
G75*
G02*
X150760000Y-99530000I0J-140000D01*
G01*
G37*
D14*
X147403000Y-101099999D03*
X147403000Y-101600001D03*
X147403000Y-102100000D03*
X147403000Y-102599999D03*
X147403000Y-103100001D03*
X150197000Y-103100001D03*
X150197000Y-102599999D03*
X150197000Y-102100000D03*
X150197000Y-101600001D03*
X150197000Y-101099999D03*
D15*
X148800000Y-102100000D03*
G36*
G01*
X126745000Y-96400000D02*
X126445000Y-96400000D01*
G75*
G02*
X126295000Y-96250000I0J150000D01*
G01*
X126295000Y-94950000D01*
G75*
G02*
X126445000Y-94800000I150000J0D01*
G01*
X126745000Y-94800000D01*
G75*
G02*
X126895000Y-94950000I0J-150000D01*
G01*
X126895000Y-96250000D01*
G75*
G02*
X126745000Y-96400000I-150000J0D01*
G01*
G37*
G36*
G01*
X128015000Y-96400000D02*
X127715000Y-96400000D01*
G75*
G02*
X127565000Y-96250000I0J150000D01*
G01*
X127565000Y-94950000D01*
G75*
G02*
X127715000Y-94800000I150000J0D01*
G01*
X128015000Y-94800000D01*
G75*
G02*
X128165000Y-94950000I0J-150000D01*
G01*
X128165000Y-96250000D01*
G75*
G02*
X128015000Y-96400000I-150000J0D01*
G01*
G37*
G36*
G01*
X129285000Y-96400000D02*
X128985000Y-96400000D01*
G75*
G02*
X128835000Y-96250000I0J150000D01*
G01*
X128835000Y-94950000D01*
G75*
G02*
X128985000Y-94800000I150000J0D01*
G01*
X129285000Y-94800000D01*
G75*
G02*
X129435000Y-94950000I0J-150000D01*
G01*
X129435000Y-96250000D01*
G75*
G02*
X129285000Y-96400000I-150000J0D01*
G01*
G37*
G36*
G01*
X130555000Y-96400000D02*
X130255000Y-96400000D01*
G75*
G02*
X130105000Y-96250000I0J150000D01*
G01*
X130105000Y-94950000D01*
G75*
G02*
X130255000Y-94800000I150000J0D01*
G01*
X130555000Y-94800000D01*
G75*
G02*
X130705000Y-94950000I0J-150000D01*
G01*
X130705000Y-96250000D01*
G75*
G02*
X130555000Y-96400000I-150000J0D01*
G01*
G37*
G36*
G01*
X130555000Y-103600000D02*
X130255000Y-103600000D01*
G75*
G02*
X130105000Y-103450000I0J150000D01*
G01*
X130105000Y-102150000D01*
G75*
G02*
X130255000Y-102000000I150000J0D01*
G01*
X130555000Y-102000000D01*
G75*
G02*
X130705000Y-102150000I0J-150000D01*
G01*
X130705000Y-103450000D01*
G75*
G02*
X130555000Y-103600000I-150000J0D01*
G01*
G37*
G36*
G01*
X129285000Y-103600000D02*
X128985000Y-103600000D01*
G75*
G02*
X128835000Y-103450000I0J150000D01*
G01*
X128835000Y-102150000D01*
G75*
G02*
X128985000Y-102000000I150000J0D01*
G01*
X129285000Y-102000000D01*
G75*
G02*
X129435000Y-102150000I0J-150000D01*
G01*
X129435000Y-103450000D01*
G75*
G02*
X129285000Y-103600000I-150000J0D01*
G01*
G37*
G36*
G01*
X128015000Y-103600000D02*
X127715000Y-103600000D01*
G75*
G02*
X127565000Y-103450000I0J150000D01*
G01*
X127565000Y-102150000D01*
G75*
G02*
X127715000Y-102000000I150000J0D01*
G01*
X128015000Y-102000000D01*
G75*
G02*
X128165000Y-102150000I0J-150000D01*
G01*
X128165000Y-103450000D01*
G75*
G02*
X128015000Y-103600000I-150000J0D01*
G01*
G37*
G36*
G01*
X126745000Y-103600000D02*
X126445000Y-103600000D01*
G75*
G02*
X126295000Y-103450000I0J150000D01*
G01*
X126295000Y-102150000D01*
G75*
G02*
X126445000Y-102000000I150000J0D01*
G01*
X126745000Y-102000000D01*
G75*
G02*
X126895000Y-102150000I0J-150000D01*
G01*
X126895000Y-103450000D01*
G75*
G02*
X126745000Y-103600000I-150000J0D01*
G01*
G37*
G36*
G01*
X160052000Y-93550000D02*
X160052000Y-95150000D01*
G75*
G02*
X159950000Y-95252000I-102000J0D01*
G01*
X158950000Y-95252000D01*
G75*
G02*
X158848000Y-95150000I0J102000D01*
G01*
X158848000Y-93550000D01*
G75*
G02*
X158950000Y-93448000I102000J0D01*
G01*
X159950000Y-93448000D01*
G75*
G02*
X160052000Y-93550000I0J-102000D01*
G01*
G37*
G36*
G01*
X157552000Y-93550000D02*
X157552000Y-95150000D01*
G75*
G02*
X157450000Y-95252000I-102000J0D01*
G01*
X156450000Y-95252000D01*
G75*
G02*
X156348000Y-95150000I0J102000D01*
G01*
X156348000Y-93550000D01*
G75*
G02*
X156450000Y-93448000I102000J0D01*
G01*
X157450000Y-93448000D01*
G75*
G02*
X157552000Y-93550000I0J-102000D01*
G01*
G37*
G36*
G01*
X155052000Y-93550000D02*
X155052000Y-95150000D01*
G75*
G02*
X154950000Y-95252000I-102000J0D01*
G01*
X153950000Y-95252000D01*
G75*
G02*
X153848000Y-95150000I0J102000D01*
G01*
X153848000Y-93550000D01*
G75*
G02*
X153950000Y-93448000I102000J0D01*
G01*
X154950000Y-93448000D01*
G75*
G02*
X155052000Y-93550000I0J-102000D01*
G01*
G37*
G36*
G01*
X155052000Y-91150000D02*
X155052000Y-92750000D01*
G75*
G02*
X154950000Y-92852000I-102000J0D01*
G01*
X153950000Y-92852000D01*
G75*
G02*
X153848000Y-92750000I0J102000D01*
G01*
X153848000Y-91150000D01*
G75*
G02*
X153950000Y-91048000I102000J0D01*
G01*
X154950000Y-91048000D01*
G75*
G02*
X155052000Y-91150000I0J-102000D01*
G01*
G37*
G36*
G01*
X157552000Y-91150000D02*
X157552000Y-92750000D01*
G75*
G02*
X157450000Y-92852000I-102000J0D01*
G01*
X156450000Y-92852000D01*
G75*
G02*
X156348000Y-92750000I0J102000D01*
G01*
X156348000Y-91150000D01*
G75*
G02*
X156450000Y-91048000I102000J0D01*
G01*
X157450000Y-91048000D01*
G75*
G02*
X157552000Y-91150000I0J-102000D01*
G01*
G37*
G36*
G01*
X160052000Y-91150000D02*
X160052000Y-92750000D01*
G75*
G02*
X159950000Y-92852000I-102000J0D01*
G01*
X158950000Y-92852000D01*
G75*
G02*
X158848000Y-92750000I0J102000D01*
G01*
X158848000Y-91150000D01*
G75*
G02*
X158950000Y-91048000I102000J0D01*
G01*
X159950000Y-91048000D01*
G75*
G02*
X160052000Y-91150000I0J-102000D01*
G01*
G37*
D16*
X160350000Y-93150000D03*
X153550000Y-93150000D03*
G36*
G01*
X155600000Y-101130000D02*
X155600000Y-101470000D01*
G75*
G02*
X155460000Y-101610000I-140000J0D01*
G01*
X155180000Y-101610000D01*
G75*
G02*
X155040000Y-101470000I0J140000D01*
G01*
X155040000Y-101130000D01*
G75*
G02*
X155180000Y-100990000I140000J0D01*
G01*
X155460000Y-100990000D01*
G75*
G02*
X155600000Y-101130000I0J-140000D01*
G01*
G37*
G36*
G01*
X156560000Y-101130000D02*
X156560000Y-101470000D01*
G75*
G02*
X156420000Y-101610000I-140000J0D01*
G01*
X156140000Y-101610000D01*
G75*
G02*
X156000000Y-101470000I0J140000D01*
G01*
X156000000Y-101130000D01*
G75*
G02*
X156140000Y-100990000I140000J0D01*
G01*
X156420000Y-100990000D01*
G75*
G02*
X156560000Y-101130000I0J-140000D01*
G01*
G37*
D17*
X137600000Y-98900000D03*
X138450000Y-98900000D03*
X139300000Y-98900000D03*
X140150000Y-98900000D03*
X141000000Y-98900000D03*
X141850000Y-98900000D03*
X142700000Y-98900000D03*
X143550000Y-98900000D03*
X138450000Y-100250000D03*
X140150000Y-100250000D03*
X139300000Y-100250000D03*
X137600000Y-100250000D03*
X141850000Y-100250000D03*
X142700000Y-100250000D03*
X143550000Y-100250000D03*
X141000000Y-100250000D03*
D18*
X136250000Y-99880000D03*
X144900000Y-99880000D03*
D19*
X136250000Y-103260000D03*
X144900000Y-103260000D03*
D20*
X123250000Y-92050000D03*
X123250000Y-93550000D03*
X122150000Y-93550000D03*
X122150000Y-92050000D03*
D21*
X121699999Y-99162000D03*
D22*
X121699999Y-98023000D03*
X121699999Y-97417000D03*
X121699999Y-96327000D03*
X121699999Y-95691000D03*
X123700001Y-96583000D03*
X123700001Y-97268000D03*
X123700001Y-97953000D03*
X123700001Y-98638000D03*
X123700001Y-99323000D03*
G36*
G01*
X123930000Y-100740000D02*
X124270000Y-100740000D01*
G75*
G02*
X124410000Y-100880000I0J-140000D01*
G01*
X124410000Y-101160000D01*
G75*
G02*
X124270000Y-101300000I-140000J0D01*
G01*
X123930000Y-101300000D01*
G75*
G02*
X123790000Y-101160000I0J140000D01*
G01*
X123790000Y-100880000D01*
G75*
G02*
X123930000Y-100740000I140000J0D01*
G01*
G37*
G36*
G01*
X123930000Y-101700000D02*
X124270000Y-101700000D01*
G75*
G02*
X124410000Y-101840000I0J-140000D01*
G01*
X124410000Y-102120000D01*
G75*
G02*
X124270000Y-102260000I-140000J0D01*
G01*
X123930000Y-102260000D01*
G75*
G02*
X123790000Y-102120000I0J140000D01*
G01*
X123790000Y-101840000D01*
G75*
G02*
X123930000Y-101700000I140000J0D01*
G01*
G37*
G36*
G01*
X142300000Y-91870000D02*
X142300000Y-91530000D01*
G75*
G02*
X142440000Y-91390000I140000J0D01*
G01*
X142720000Y-91390000D01*
G75*
G02*
X142860000Y-91530000I0J-140000D01*
G01*
X142860000Y-91870000D01*
G75*
G02*
X142720000Y-92010000I-140000J0D01*
G01*
X142440000Y-92010000D01*
G75*
G02*
X142300000Y-91870000I0J140000D01*
G01*
G37*
G36*
G01*
X141340000Y-91870000D02*
X141340000Y-91530000D01*
G75*
G02*
X141480000Y-91390000I140000J0D01*
G01*
X141760000Y-91390000D01*
G75*
G02*
X141900000Y-91530000I0J-140000D01*
G01*
X141900000Y-91870000D01*
G75*
G02*
X141760000Y-92010000I-140000J0D01*
G01*
X141480000Y-92010000D01*
G75*
G02*
X141340000Y-91870000I0J140000D01*
G01*
G37*
G36*
G01*
X125070000Y-96860000D02*
X124730000Y-96860000D01*
G75*
G02*
X124590000Y-96720000I0J140000D01*
G01*
X124590000Y-96440000D01*
G75*
G02*
X124730000Y-96300000I140000J0D01*
G01*
X125070000Y-96300000D01*
G75*
G02*
X125210000Y-96440000I0J-140000D01*
G01*
X125210000Y-96720000D01*
G75*
G02*
X125070000Y-96860000I-140000J0D01*
G01*
G37*
G36*
G01*
X125070000Y-95900000D02*
X124730000Y-95900000D01*
G75*
G02*
X124590000Y-95760000I0J140000D01*
G01*
X124590000Y-95480000D01*
G75*
G02*
X124730000Y-95340000I140000J0D01*
G01*
X125070000Y-95340000D01*
G75*
G02*
X125210000Y-95480000I0J-140000D01*
G01*
X125210000Y-95760000D01*
G75*
G02*
X125070000Y-95900000I-140000J0D01*
G01*
G37*
G36*
G01*
X156560000Y-99930000D02*
X156560000Y-100270000D01*
G75*
G02*
X156420000Y-100410000I-140000J0D01*
G01*
X156140000Y-100410000D01*
G75*
G02*
X156000000Y-100270000I0J140000D01*
G01*
X156000000Y-99930000D01*
G75*
G02*
X156140000Y-99790000I140000J0D01*
G01*
X156420000Y-99790000D01*
G75*
G02*
X156560000Y-99930000I0J-140000D01*
G01*
G37*
G36*
G01*
X155600000Y-99930000D02*
X155600000Y-100270000D01*
G75*
G02*
X155460000Y-100410000I-140000J0D01*
G01*
X155180000Y-100410000D01*
G75*
G02*
X155040000Y-100270000I0J140000D01*
G01*
X155040000Y-99930000D01*
G75*
G02*
X155180000Y-99790000I140000J0D01*
G01*
X155460000Y-99790000D01*
G75*
G02*
X155600000Y-99930000I0J-140000D01*
G01*
G37*
G36*
G01*
X136370000Y-92860000D02*
X136030000Y-92860000D01*
G75*
G02*
X135890000Y-92720000I0J140000D01*
G01*
X135890000Y-92440000D01*
G75*
G02*
X136030000Y-92300000I140000J0D01*
G01*
X136370000Y-92300000D01*
G75*
G02*
X136510000Y-92440000I0J-140000D01*
G01*
X136510000Y-92720000D01*
G75*
G02*
X136370000Y-92860000I-140000J0D01*
G01*
G37*
G36*
G01*
X136370000Y-91900000D02*
X136030000Y-91900000D01*
G75*
G02*
X135890000Y-91760000I0J140000D01*
G01*
X135890000Y-91480000D01*
G75*
G02*
X136030000Y-91340000I140000J0D01*
G01*
X136370000Y-91340000D01*
G75*
G02*
X136510000Y-91480000I0J-140000D01*
G01*
X136510000Y-91760000D01*
G75*
G02*
X136370000Y-91900000I-140000J0D01*
G01*
G37*
G36*
G01*
X137570000Y-91900000D02*
X137230000Y-91900000D01*
G75*
G02*
X137090000Y-91760000I0J140000D01*
G01*
X137090000Y-91480000D01*
G75*
G02*
X137230000Y-91340000I140000J0D01*
G01*
X137570000Y-91340000D01*
G75*
G02*
X137710000Y-91480000I0J-140000D01*
G01*
X137710000Y-91760000D01*
G75*
G02*
X137570000Y-91900000I-140000J0D01*
G01*
G37*
G36*
G01*
X137570000Y-92860000D02*
X137230000Y-92860000D01*
G75*
G02*
X137090000Y-92720000I0J140000D01*
G01*
X137090000Y-92440000D01*
G75*
G02*
X137230000Y-92300000I140000J0D01*
G01*
X137570000Y-92300000D01*
G75*
G02*
X137710000Y-92440000I0J-140000D01*
G01*
X137710000Y-92720000D01*
G75*
G02*
X137570000Y-92860000I-140000J0D01*
G01*
G37*
G36*
G01*
X146740000Y-99870000D02*
X146740000Y-99530000D01*
G75*
G02*
X146880000Y-99390000I140000J0D01*
G01*
X147160000Y-99390000D01*
G75*
G02*
X147300000Y-99530000I0J-140000D01*
G01*
X147300000Y-99870000D01*
G75*
G02*
X147160000Y-100010000I-140000J0D01*
G01*
X146880000Y-100010000D01*
G75*
G02*
X146740000Y-99870000I0J140000D01*
G01*
G37*
G36*
G01*
X147700000Y-99870000D02*
X147700000Y-99530000D01*
G75*
G02*
X147840000Y-99390000I140000J0D01*
G01*
X148120000Y-99390000D01*
G75*
G02*
X148260000Y-99530000I0J-140000D01*
G01*
X148260000Y-99870000D01*
G75*
G02*
X148120000Y-100010000I-140000J0D01*
G01*
X147840000Y-100010000D01*
G75*
G02*
X147700000Y-99870000I0J140000D01*
G01*
G37*
G36*
G01*
X124730000Y-94300000D02*
X125070000Y-94300000D01*
G75*
G02*
X125210000Y-94440000I0J-140000D01*
G01*
X125210000Y-94720000D01*
G75*
G02*
X125070000Y-94860000I-140000J0D01*
G01*
X124730000Y-94860000D01*
G75*
G02*
X124590000Y-94720000I0J140000D01*
G01*
X124590000Y-94440000D01*
G75*
G02*
X124730000Y-94300000I140000J0D01*
G01*
G37*
G36*
G01*
X124730000Y-93340000D02*
X125070000Y-93340000D01*
G75*
G02*
X125210000Y-93480000I0J-140000D01*
G01*
X125210000Y-93760000D01*
G75*
G02*
X125070000Y-93900000I-140000J0D01*
G01*
X124730000Y-93900000D01*
G75*
G02*
X124590000Y-93760000I0J140000D01*
G01*
X124590000Y-93480000D01*
G75*
G02*
X124730000Y-93340000I140000J0D01*
G01*
G37*
G36*
G01*
X151430000Y-92500000D02*
X151770000Y-92500000D01*
G75*
G02*
X151910000Y-92640000I0J-140000D01*
G01*
X151910000Y-92920000D01*
G75*
G02*
X151770000Y-93060000I-140000J0D01*
G01*
X151430000Y-93060000D01*
G75*
G02*
X151290000Y-92920000I0J140000D01*
G01*
X151290000Y-92640000D01*
G75*
G02*
X151430000Y-92500000I140000J0D01*
G01*
G37*
G36*
G01*
X151430000Y-91540000D02*
X151770000Y-91540000D01*
G75*
G02*
X151910000Y-91680000I0J-140000D01*
G01*
X151910000Y-91960000D01*
G75*
G02*
X151770000Y-92100000I-140000J0D01*
G01*
X151430000Y-92100000D01*
G75*
G02*
X151290000Y-91960000I0J140000D01*
G01*
X151290000Y-91680000D01*
G75*
G02*
X151430000Y-91540000I140000J0D01*
G01*
G37*
G36*
G01*
X137000000Y-95630000D02*
X137000000Y-95970000D01*
G75*
G02*
X136860000Y-96110000I-140000J0D01*
G01*
X136580000Y-96110000D01*
G75*
G02*
X136440000Y-95970000I0J140000D01*
G01*
X136440000Y-95630000D01*
G75*
G02*
X136580000Y-95490000I140000J0D01*
G01*
X136860000Y-95490000D01*
G75*
G02*
X137000000Y-95630000I0J-140000D01*
G01*
G37*
G36*
G01*
X137960000Y-95630000D02*
X137960000Y-95970000D01*
G75*
G02*
X137820000Y-96110000I-140000J0D01*
G01*
X137540000Y-96110000D01*
G75*
G02*
X137400000Y-95970000I0J140000D01*
G01*
X137400000Y-95630000D01*
G75*
G02*
X137540000Y-95490000I140000J0D01*
G01*
X137820000Y-95490000D01*
G75*
G02*
X137960000Y-95630000I0J-140000D01*
G01*
G37*
G36*
G01*
X146370000Y-94260000D02*
X146030000Y-94260000D01*
G75*
G02*
X145890000Y-94120000I0J140000D01*
G01*
X145890000Y-93840000D01*
G75*
G02*
X146030000Y-93700000I140000J0D01*
G01*
X146370000Y-93700000D01*
G75*
G02*
X146510000Y-93840000I0J-140000D01*
G01*
X146510000Y-94120000D01*
G75*
G02*
X146370000Y-94260000I-140000J0D01*
G01*
G37*
G36*
G01*
X146370000Y-93300000D02*
X146030000Y-93300000D01*
G75*
G02*
X145890000Y-93160000I0J140000D01*
G01*
X145890000Y-92880000D01*
G75*
G02*
X146030000Y-92740000I140000J0D01*
G01*
X146370000Y-92740000D01*
G75*
G02*
X146510000Y-92880000I0J-140000D01*
G01*
X146510000Y-93160000D01*
G75*
G02*
X146370000Y-93300000I-140000J0D01*
G01*
G37*
G36*
G01*
X144875000Y-94450000D02*
X143925000Y-94450000D01*
G75*
G02*
X143675000Y-94200000I0J250000D01*
G01*
X143675000Y-93700000D01*
G75*
G02*
X143925000Y-93450000I250000J0D01*
G01*
X144875000Y-93450000D01*
G75*
G02*
X145125000Y-93700000I0J-250000D01*
G01*
X145125000Y-94200000D01*
G75*
G02*
X144875000Y-94450000I-250000J0D01*
G01*
G37*
G36*
G01*
X144875000Y-92550000D02*
X143925000Y-92550000D01*
G75*
G02*
X143675000Y-92300000I0J250000D01*
G01*
X143675000Y-91800000D01*
G75*
G02*
X143925000Y-91550000I250000J0D01*
G01*
X144875000Y-91550000D01*
G75*
G02*
X145125000Y-91800000I0J-250000D01*
G01*
X145125000Y-92300000D01*
G75*
G02*
X144875000Y-92550000I-250000J0D01*
G01*
G37*
D23*
X134300000Y-101500000D03*
X132300000Y-102450000D03*
X132300000Y-100550000D03*
G36*
G01*
X125275000Y-91625000D02*
X125275000Y-92175000D01*
G75*
G02*
X125075000Y-92375000I-200000J0D01*
G01*
X124675000Y-92375000D01*
G75*
G02*
X124475000Y-92175000I0J200000D01*
G01*
X124475000Y-91625000D01*
G75*
G02*
X124675000Y-91425000I200000J0D01*
G01*
X125075000Y-91425000D01*
G75*
G02*
X125275000Y-91625000I0J-200000D01*
G01*
G37*
G36*
G01*
X126925000Y-91625000D02*
X126925000Y-92175000D01*
G75*
G02*
X126725000Y-92375000I-200000J0D01*
G01*
X126325000Y-92375000D01*
G75*
G02*
X126125000Y-92175000I0J200000D01*
G01*
X126125000Y-91625000D01*
G75*
G02*
X126325000Y-91425000I200000J0D01*
G01*
X126725000Y-91425000D01*
G75*
G02*
X126925000Y-91625000I0J-200000D01*
G01*
G37*
G36*
G01*
X159340000Y-97385000D02*
X159340000Y-97015000D01*
G75*
G02*
X159475000Y-96880000I135000J0D01*
G01*
X159745000Y-96880000D01*
G75*
G02*
X159880000Y-97015000I0J-135000D01*
G01*
X159880000Y-97385000D01*
G75*
G02*
X159745000Y-97520000I-135000J0D01*
G01*
X159475000Y-97520000D01*
G75*
G02*
X159340000Y-97385000I0J135000D01*
G01*
G37*
G36*
G01*
X158320000Y-97385000D02*
X158320000Y-97015000D01*
G75*
G02*
X158455000Y-96880000I135000J0D01*
G01*
X158725000Y-96880000D01*
G75*
G02*
X158860000Y-97015000I0J-135000D01*
G01*
X158860000Y-97385000D01*
G75*
G02*
X158725000Y-97520000I-135000J0D01*
G01*
X158455000Y-97520000D01*
G75*
G02*
X158320000Y-97385000I0J135000D01*
G01*
G37*
G36*
G01*
X153360000Y-99715000D02*
X153360000Y-100085000D01*
G75*
G02*
X153225000Y-100220000I-135000J0D01*
G01*
X152955000Y-100220000D01*
G75*
G02*
X152820000Y-100085000I0J135000D01*
G01*
X152820000Y-99715000D01*
G75*
G02*
X152955000Y-99580000I135000J0D01*
G01*
X153225000Y-99580000D01*
G75*
G02*
X153360000Y-99715000I0J-135000D01*
G01*
G37*
G36*
G01*
X154380000Y-99715000D02*
X154380000Y-100085000D01*
G75*
G02*
X154245000Y-100220000I-135000J0D01*
G01*
X153975000Y-100220000D01*
G75*
G02*
X153840000Y-100085000I0J135000D01*
G01*
X153840000Y-99715000D01*
G75*
G02*
X153975000Y-99580000I135000J0D01*
G01*
X154245000Y-99580000D01*
G75*
G02*
X154380000Y-99715000I0J-135000D01*
G01*
G37*
G36*
G01*
X157785000Y-102660000D02*
X157415000Y-102660000D01*
G75*
G02*
X157280000Y-102525000I0J135000D01*
G01*
X157280000Y-102255000D01*
G75*
G02*
X157415000Y-102120000I135000J0D01*
G01*
X157785000Y-102120000D01*
G75*
G02*
X157920000Y-102255000I0J-135000D01*
G01*
X157920000Y-102525000D01*
G75*
G02*
X157785000Y-102660000I-135000J0D01*
G01*
G37*
G36*
G01*
X157785000Y-103680000D02*
X157415000Y-103680000D01*
G75*
G02*
X157280000Y-103545000I0J135000D01*
G01*
X157280000Y-103275000D01*
G75*
G02*
X157415000Y-103140000I135000J0D01*
G01*
X157785000Y-103140000D01*
G75*
G02*
X157920000Y-103275000I0J-135000D01*
G01*
X157920000Y-103545000D01*
G75*
G02*
X157785000Y-103680000I-135000J0D01*
G01*
G37*
G36*
G01*
X154415000Y-102120000D02*
X154785000Y-102120000D01*
G75*
G02*
X154920000Y-102255000I0J-135000D01*
G01*
X154920000Y-102525000D01*
G75*
G02*
X154785000Y-102660000I-135000J0D01*
G01*
X154415000Y-102660000D01*
G75*
G02*
X154280000Y-102525000I0J135000D01*
G01*
X154280000Y-102255000D01*
G75*
G02*
X154415000Y-102120000I135000J0D01*
G01*
G37*
G36*
G01*
X154415000Y-103140000D02*
X154785000Y-103140000D01*
G75*
G02*
X154920000Y-103275000I0J-135000D01*
G01*
X154920000Y-103545000D01*
G75*
G02*
X154785000Y-103680000I-135000J0D01*
G01*
X154415000Y-103680000D01*
G75*
G02*
X154280000Y-103545000I0J135000D01*
G01*
X154280000Y-103275000D01*
G75*
G02*
X154415000Y-103140000I135000J0D01*
G01*
G37*
G36*
G01*
X152740000Y-101285000D02*
X152740000Y-100915000D01*
G75*
G02*
X152875000Y-100780000I135000J0D01*
G01*
X153145000Y-100780000D01*
G75*
G02*
X153280000Y-100915000I0J-135000D01*
G01*
X153280000Y-101285000D01*
G75*
G02*
X153145000Y-101420000I-135000J0D01*
G01*
X152875000Y-101420000D01*
G75*
G02*
X152740000Y-101285000I0J135000D01*
G01*
G37*
G36*
G01*
X151720000Y-101285000D02*
X151720000Y-100915000D01*
G75*
G02*
X151855000Y-100780000I135000J0D01*
G01*
X152125000Y-100780000D01*
G75*
G02*
X152260000Y-100915000I0J-135000D01*
G01*
X152260000Y-101285000D01*
G75*
G02*
X152125000Y-101420000I-135000J0D01*
G01*
X151855000Y-101420000D01*
G75*
G02*
X151720000Y-101285000I0J135000D01*
G01*
G37*
G36*
G01*
X124180000Y-103215000D02*
X124180000Y-103585000D01*
G75*
G02*
X124045000Y-103720000I-135000J0D01*
G01*
X123775000Y-103720000D01*
G75*
G02*
X123640000Y-103585000I0J135000D01*
G01*
X123640000Y-103215000D01*
G75*
G02*
X123775000Y-103080000I135000J0D01*
G01*
X124045000Y-103080000D01*
G75*
G02*
X124180000Y-103215000I0J-135000D01*
G01*
G37*
G36*
G01*
X123160000Y-103215000D02*
X123160000Y-103585000D01*
G75*
G02*
X123025000Y-103720000I-135000J0D01*
G01*
X122755000Y-103720000D01*
G75*
G02*
X122620000Y-103585000I0J135000D01*
G01*
X122620000Y-103215000D01*
G75*
G02*
X122755000Y-103080000I135000J0D01*
G01*
X123025000Y-103080000D01*
G75*
G02*
X123160000Y-103215000I0J-135000D01*
G01*
G37*
G36*
G01*
X147375000Y-96075000D02*
X147375000Y-95525000D01*
G75*
G02*
X147575000Y-95325000I200000J0D01*
G01*
X147975000Y-95325000D01*
G75*
G02*
X148175000Y-95525000I0J-200000D01*
G01*
X148175000Y-96075000D01*
G75*
G02*
X147975000Y-96275000I-200000J0D01*
G01*
X147575000Y-96275000D01*
G75*
G02*
X147375000Y-96075000I0J200000D01*
G01*
G37*
G36*
G01*
X149025000Y-96075000D02*
X149025000Y-95525000D01*
G75*
G02*
X149225000Y-95325000I200000J0D01*
G01*
X149625000Y-95325000D01*
G75*
G02*
X149825000Y-95525000I0J-200000D01*
G01*
X149825000Y-96075000D01*
G75*
G02*
X149625000Y-96275000I-200000J0D01*
G01*
X149225000Y-96275000D01*
G75*
G02*
X149025000Y-96075000I0J200000D01*
G01*
G37*
G36*
G01*
X121515000Y-101740000D02*
X121885000Y-101740000D01*
G75*
G02*
X122020000Y-101875000I0J-135000D01*
G01*
X122020000Y-102145000D01*
G75*
G02*
X121885000Y-102280000I-135000J0D01*
G01*
X121515000Y-102280000D01*
G75*
G02*
X121380000Y-102145000I0J135000D01*
G01*
X121380000Y-101875000D01*
G75*
G02*
X121515000Y-101740000I135000J0D01*
G01*
G37*
G36*
G01*
X121515000Y-100720000D02*
X121885000Y-100720000D01*
G75*
G02*
X122020000Y-100855000I0J-135000D01*
G01*
X122020000Y-101125000D01*
G75*
G02*
X121885000Y-101260000I-135000J0D01*
G01*
X121515000Y-101260000D01*
G75*
G02*
X121380000Y-101125000I0J135000D01*
G01*
X121380000Y-100855000D01*
G75*
G02*
X121515000Y-100720000I135000J0D01*
G01*
G37*
G36*
G01*
X122715000Y-100720000D02*
X123085000Y-100720000D01*
G75*
G02*
X123220000Y-100855000I0J-135000D01*
G01*
X123220000Y-101125000D01*
G75*
G02*
X123085000Y-101260000I-135000J0D01*
G01*
X122715000Y-101260000D01*
G75*
G02*
X122580000Y-101125000I0J135000D01*
G01*
X122580000Y-100855000D01*
G75*
G02*
X122715000Y-100720000I135000J0D01*
G01*
G37*
G36*
G01*
X122715000Y-101740000D02*
X123085000Y-101740000D01*
G75*
G02*
X123220000Y-101875000I0J-135000D01*
G01*
X123220000Y-102145000D01*
G75*
G02*
X123085000Y-102280000I-135000J0D01*
G01*
X122715000Y-102280000D01*
G75*
G02*
X122580000Y-102145000I0J135000D01*
G01*
X122580000Y-101875000D01*
G75*
G02*
X122715000Y-101740000I135000J0D01*
G01*
G37*
G36*
G01*
X152740000Y-103685000D02*
X152740000Y-103315000D01*
G75*
G02*
X152875000Y-103180000I135000J0D01*
G01*
X153145000Y-103180000D01*
G75*
G02*
X153280000Y-103315000I0J-135000D01*
G01*
X153280000Y-103685000D01*
G75*
G02*
X153145000Y-103820000I-135000J0D01*
G01*
X152875000Y-103820000D01*
G75*
G02*
X152740000Y-103685000I0J135000D01*
G01*
G37*
G36*
G01*
X151720000Y-103685000D02*
X151720000Y-103315000D01*
G75*
G02*
X151855000Y-103180000I135000J0D01*
G01*
X152125000Y-103180000D01*
G75*
G02*
X152260000Y-103315000I0J-135000D01*
G01*
X152260000Y-103685000D01*
G75*
G02*
X152125000Y-103820000I-135000J0D01*
G01*
X151855000Y-103820000D01*
G75*
G02*
X151720000Y-103685000I0J135000D01*
G01*
G37*
G36*
G01*
X153280000Y-102115000D02*
X153280000Y-102485000D01*
G75*
G02*
X153145000Y-102620000I-135000J0D01*
G01*
X152875000Y-102620000D01*
G75*
G02*
X152740000Y-102485000I0J135000D01*
G01*
X152740000Y-102115000D01*
G75*
G02*
X152875000Y-101980000I135000J0D01*
G01*
X153145000Y-101980000D01*
G75*
G02*
X153280000Y-102115000I0J-135000D01*
G01*
G37*
G36*
G01*
X152260000Y-102115000D02*
X152260000Y-102485000D01*
G75*
G02*
X152125000Y-102620000I-135000J0D01*
G01*
X151855000Y-102620000D01*
G75*
G02*
X151720000Y-102485000I0J135000D01*
G01*
X151720000Y-102115000D01*
G75*
G02*
X151855000Y-101980000I135000J0D01*
G01*
X152125000Y-101980000D01*
G75*
G02*
X152260000Y-102115000I0J-135000D01*
G01*
G37*
G36*
G01*
X140185000Y-96350000D02*
X139815000Y-96350000D01*
G75*
G02*
X139680000Y-96215000I0J135000D01*
G01*
X139680000Y-95945000D01*
G75*
G02*
X139815000Y-95810000I135000J0D01*
G01*
X140185000Y-95810000D01*
G75*
G02*
X140320000Y-95945000I0J-135000D01*
G01*
X140320000Y-96215000D01*
G75*
G02*
X140185000Y-96350000I-135000J0D01*
G01*
G37*
G36*
G01*
X140185000Y-97370000D02*
X139815000Y-97370000D01*
G75*
G02*
X139680000Y-97235000I0J135000D01*
G01*
X139680000Y-96965000D01*
G75*
G02*
X139815000Y-96830000I135000J0D01*
G01*
X140185000Y-96830000D01*
G75*
G02*
X140320000Y-96965000I0J-135000D01*
G01*
X140320000Y-97235000D01*
G75*
G02*
X140185000Y-97370000I-135000J0D01*
G01*
G37*
G36*
G01*
X143285000Y-97380000D02*
X142915000Y-97380000D01*
G75*
G02*
X142780000Y-97245000I0J135000D01*
G01*
X142780000Y-96975000D01*
G75*
G02*
X142915000Y-96840000I135000J0D01*
G01*
X143285000Y-96840000D01*
G75*
G02*
X143420000Y-96975000I0J-135000D01*
G01*
X143420000Y-97245000D01*
G75*
G02*
X143285000Y-97380000I-135000J0D01*
G01*
G37*
G36*
G01*
X143285000Y-96360000D02*
X142915000Y-96360000D01*
G75*
G02*
X142780000Y-96225000I0J135000D01*
G01*
X142780000Y-95955000D01*
G75*
G02*
X142915000Y-95820000I135000J0D01*
G01*
X143285000Y-95820000D01*
G75*
G02*
X143420000Y-95955000I0J-135000D01*
G01*
X143420000Y-96225000D01*
G75*
G02*
X143285000Y-96360000I-135000J0D01*
G01*
G37*
G36*
G01*
X155915000Y-102120000D02*
X156285000Y-102120000D01*
G75*
G02*
X156420000Y-102255000I0J-135000D01*
G01*
X156420000Y-102525000D01*
G75*
G02*
X156285000Y-102660000I-135000J0D01*
G01*
X155915000Y-102660000D01*
G75*
G02*
X155780000Y-102525000I0J135000D01*
G01*
X155780000Y-102255000D01*
G75*
G02*
X155915000Y-102120000I135000J0D01*
G01*
G37*
G36*
G01*
X155915000Y-103140000D02*
X156285000Y-103140000D01*
G75*
G02*
X156420000Y-103275000I0J-135000D01*
G01*
X156420000Y-103545000D01*
G75*
G02*
X156285000Y-103680000I-135000J0D01*
G01*
X155915000Y-103680000D01*
G75*
G02*
X155780000Y-103545000I0J135000D01*
G01*
X155780000Y-103275000D01*
G75*
G02*
X155915000Y-103140000I135000J0D01*
G01*
G37*
D24*
X150000000Y-94050000D03*
X150000000Y-93100000D03*
X150000000Y-92150000D03*
X147800000Y-92150000D03*
X147800000Y-94050000D03*
D25*
X136880000Y-97000000D03*
X137720000Y-97000000D03*
D26*
X141900000Y-97120000D03*
X141900000Y-96280000D03*
X138800000Y-97120000D03*
X138800000Y-96280000D03*
M02*
