G04 #@! TF.GenerationSoftware,KiCad,Pcbnew,(5.1.9-0-10_14)*
G04 #@! TF.CreationDate,2025-05-13T11:21:21-05:00*
G04 #@! TF.ProjectId,DTYF Beta,44545946-2042-4657-9461-2e6b69636164,rev?*
G04 #@! TF.SameCoordinates,Original*
G04 #@! TF.FileFunction,Copper,L1,Top*
G04 #@! TF.FilePolarity,Positive*
%FSLAX46Y46*%
G04 Gerber Fmt 4.6, Leading zero omitted, Abs format (unit mm)*
G04 Created by KiCad (PCBNEW (5.1.9-0-10_14)) date 2025-05-13 11:21:21*
%MOMM*%
%LPD*%
G01*
G04 APERTURE LIST*
G04 #@! TA.AperFunction,SMDPad,CuDef*
%ADD10R,1.092200X0.254000*%
G04 #@! TD*
G04 #@! TA.AperFunction,SMDPad,CuDef*
%ADD11R,0.965200X0.254000*%
G04 #@! TD*
G04 #@! TA.AperFunction,SMDPad,CuDef*
%ADD12R,0.279400X0.254000*%
G04 #@! TD*
G04 #@! TA.AperFunction,SMDPad,CuDef*
%ADD13R,0.254000X0.279400*%
G04 #@! TD*
G04 #@! TA.AperFunction,SMDPad,CuDef*
%ADD14R,0.812800X0.254000*%
G04 #@! TD*
G04 #@! TA.AperFunction,SMDPad,CuDef*
%ADD15R,1.752600X2.489200*%
G04 #@! TD*
G04 #@! TA.AperFunction,SMDPad,CuDef*
%ADD16R,1.000000X1.600000*%
G04 #@! TD*
G04 #@! TA.AperFunction,ComponentPad*
%ADD17C,0.700000*%
G04 #@! TD*
G04 #@! TA.AperFunction,ComponentPad*
%ADD18O,0.900000X2.400000*%
G04 #@! TD*
G04 #@! TA.AperFunction,ComponentPad*
%ADD19O,0.900000X1.700000*%
G04 #@! TD*
G04 #@! TA.AperFunction,SMDPad,CuDef*
%ADD20R,0.800000X1.000000*%
G04 #@! TD*
G04 #@! TA.AperFunction,SMDPad,CuDef*
%ADD21R,0.812800X0.838200*%
G04 #@! TD*
G04 #@! TA.AperFunction,SMDPad,CuDef*
%ADD22R,0.812800X0.355600*%
G04 #@! TD*
G04 #@! TA.AperFunction,SMDPad,CuDef*
%ADD23R,0.900000X0.800000*%
G04 #@! TD*
G04 #@! TA.AperFunction,SMDPad,CuDef*
%ADD24R,1.060000X0.650000*%
G04 #@! TD*
G04 #@! TA.AperFunction,SMDPad,CuDef*
%ADD25R,0.360000X0.250000*%
G04 #@! TD*
G04 #@! TA.AperFunction,SMDPad,CuDef*
%ADD26R,0.250000X0.360000*%
G04 #@! TD*
G04 #@! TA.AperFunction,ViaPad*
%ADD27C,0.800000*%
G04 #@! TD*
G04 #@! TA.AperFunction,Conductor*
%ADD28C,0.250000*%
G04 #@! TD*
G04 #@! TA.AperFunction,Conductor*
%ADD29C,0.100000*%
G04 #@! TD*
G04 APERTURE END LIST*
D10*
X160012800Y-100700001D03*
D11*
X160076300Y-100199999D03*
X160076300Y-99700000D03*
X160076300Y-99200001D03*
X160076300Y-98699999D03*
X158323700Y-98699999D03*
X158323700Y-99200001D03*
X158323700Y-99700000D03*
X158323700Y-100199999D03*
X158323700Y-100700001D03*
D12*
X140236600Y-93250189D03*
X140236600Y-92750063D03*
X140236600Y-92249937D03*
X140236600Y-91749811D03*
D13*
X139750063Y-91763400D03*
X139249937Y-91763400D03*
D12*
X138763400Y-91749811D03*
X138763400Y-92249937D03*
X138763400Y-92750063D03*
X138763400Y-93250189D03*
D13*
X139249937Y-93236600D03*
X139750063Y-93236600D03*
G04 #@! TA.AperFunction,SMDPad,CuDef*
G36*
G01*
X149800000Y-99530000D02*
X149800000Y-99870000D01*
G75*
G02*
X149660000Y-100010000I-140000J0D01*
G01*
X149380000Y-100010000D01*
G75*
G02*
X149240000Y-99870000I0J140000D01*
G01*
X149240000Y-99530000D01*
G75*
G02*
X149380000Y-99390000I140000J0D01*
G01*
X149660000Y-99390000D01*
G75*
G02*
X149800000Y-99530000I0J-140000D01*
G01*
G37*
G04 #@! TD.AperFunction*
G04 #@! TA.AperFunction,SMDPad,CuDef*
G36*
G01*
X150760000Y-99530000D02*
X150760000Y-99870000D01*
G75*
G02*
X150620000Y-100010000I-140000J0D01*
G01*
X150340000Y-100010000D01*
G75*
G02*
X150200000Y-99870000I0J140000D01*
G01*
X150200000Y-99530000D01*
G75*
G02*
X150340000Y-99390000I140000J0D01*
G01*
X150620000Y-99390000D01*
G75*
G02*
X150760000Y-99530000I0J-140000D01*
G01*
G37*
G04 #@! TD.AperFunction*
D14*
X147403000Y-101099999D03*
X147403000Y-101600001D03*
X147403000Y-102100000D03*
X147403000Y-102599999D03*
X147403000Y-103100001D03*
X150197000Y-103100001D03*
X150197000Y-102599999D03*
X150197000Y-102100000D03*
X150197000Y-101600001D03*
X150197000Y-101099999D03*
D15*
X148800000Y-102100000D03*
G04 #@! TA.AperFunction,SMDPad,CuDef*
G36*
G01*
X126745000Y-96400000D02*
X126445000Y-96400000D01*
G75*
G02*
X126295000Y-96250000I0J150000D01*
G01*
X126295000Y-94950000D01*
G75*
G02*
X126445000Y-94800000I150000J0D01*
G01*
X126745000Y-94800000D01*
G75*
G02*
X126895000Y-94950000I0J-150000D01*
G01*
X126895000Y-96250000D01*
G75*
G02*
X126745000Y-96400000I-150000J0D01*
G01*
G37*
G04 #@! TD.AperFunction*
G04 #@! TA.AperFunction,SMDPad,CuDef*
G36*
G01*
X128015000Y-96400000D02*
X127715000Y-96400000D01*
G75*
G02*
X127565000Y-96250000I0J150000D01*
G01*
X127565000Y-94950000D01*
G75*
G02*
X127715000Y-94800000I150000J0D01*
G01*
X128015000Y-94800000D01*
G75*
G02*
X128165000Y-94950000I0J-150000D01*
G01*
X128165000Y-96250000D01*
G75*
G02*
X128015000Y-96400000I-150000J0D01*
G01*
G37*
G04 #@! TD.AperFunction*
G04 #@! TA.AperFunction,SMDPad,CuDef*
G36*
G01*
X129285000Y-96400000D02*
X128985000Y-96400000D01*
G75*
G02*
X128835000Y-96250000I0J150000D01*
G01*
X128835000Y-94950000D01*
G75*
G02*
X128985000Y-94800000I150000J0D01*
G01*
X129285000Y-94800000D01*
G75*
G02*
X129435000Y-94950000I0J-150000D01*
G01*
X129435000Y-96250000D01*
G75*
G02*
X129285000Y-96400000I-150000J0D01*
G01*
G37*
G04 #@! TD.AperFunction*
G04 #@! TA.AperFunction,SMDPad,CuDef*
G36*
G01*
X130555000Y-96400000D02*
X130255000Y-96400000D01*
G75*
G02*
X130105000Y-96250000I0J150000D01*
G01*
X130105000Y-94950000D01*
G75*
G02*
X130255000Y-94800000I150000J0D01*
G01*
X130555000Y-94800000D01*
G75*
G02*
X130705000Y-94950000I0J-150000D01*
G01*
X130705000Y-96250000D01*
G75*
G02*
X130555000Y-96400000I-150000J0D01*
G01*
G37*
G04 #@! TD.AperFunction*
G04 #@! TA.AperFunction,SMDPad,CuDef*
G36*
G01*
X130555000Y-103600000D02*
X130255000Y-103600000D01*
G75*
G02*
X130105000Y-103450000I0J150000D01*
G01*
X130105000Y-102150000D01*
G75*
G02*
X130255000Y-102000000I150000J0D01*
G01*
X130555000Y-102000000D01*
G75*
G02*
X130705000Y-102150000I0J-150000D01*
G01*
X130705000Y-103450000D01*
G75*
G02*
X130555000Y-103600000I-150000J0D01*
G01*
G37*
G04 #@! TD.AperFunction*
G04 #@! TA.AperFunction,SMDPad,CuDef*
G36*
G01*
X129285000Y-103600000D02*
X128985000Y-103600000D01*
G75*
G02*
X128835000Y-103450000I0J150000D01*
G01*
X128835000Y-102150000D01*
G75*
G02*
X128985000Y-102000000I150000J0D01*
G01*
X129285000Y-102000000D01*
G75*
G02*
X129435000Y-102150000I0J-150000D01*
G01*
X129435000Y-103450000D01*
G75*
G02*
X129285000Y-103600000I-150000J0D01*
G01*
G37*
G04 #@! TD.AperFunction*
G04 #@! TA.AperFunction,SMDPad,CuDef*
G36*
G01*
X128015000Y-103600000D02*
X127715000Y-103600000D01*
G75*
G02*
X127565000Y-103450000I0J150000D01*
G01*
X127565000Y-102150000D01*
G75*
G02*
X127715000Y-102000000I150000J0D01*
G01*
X128015000Y-102000000D01*
G75*
G02*
X128165000Y-102150000I0J-150000D01*
G01*
X128165000Y-103450000D01*
G75*
G02*
X128015000Y-103600000I-150000J0D01*
G01*
G37*
G04 #@! TD.AperFunction*
G04 #@! TA.AperFunction,SMDPad,CuDef*
G36*
G01*
X126745000Y-103600000D02*
X126445000Y-103600000D01*
G75*
G02*
X126295000Y-103450000I0J150000D01*
G01*
X126295000Y-102150000D01*
G75*
G02*
X126445000Y-102000000I150000J0D01*
G01*
X126745000Y-102000000D01*
G75*
G02*
X126895000Y-102150000I0J-150000D01*
G01*
X126895000Y-103450000D01*
G75*
G02*
X126745000Y-103600000I-150000J0D01*
G01*
G37*
G04 #@! TD.AperFunction*
D16*
X159450000Y-94350000D03*
X156950000Y-94350000D03*
X154450000Y-94350000D03*
X154450000Y-91950000D03*
X156950000Y-91950000D03*
X159450000Y-91950000D03*
G04 #@! TA.AperFunction,SMDPad,CuDef*
G36*
G01*
X155600000Y-101130000D02*
X155600000Y-101470000D01*
G75*
G02*
X155460000Y-101610000I-140000J0D01*
G01*
X155180000Y-101610000D01*
G75*
G02*
X155040000Y-101470000I0J140000D01*
G01*
X155040000Y-101130000D01*
G75*
G02*
X155180000Y-100990000I140000J0D01*
G01*
X155460000Y-100990000D01*
G75*
G02*
X155600000Y-101130000I0J-140000D01*
G01*
G37*
G04 #@! TD.AperFunction*
G04 #@! TA.AperFunction,SMDPad,CuDef*
G36*
G01*
X156560000Y-101130000D02*
X156560000Y-101470000D01*
G75*
G02*
X156420000Y-101610000I-140000J0D01*
G01*
X156140000Y-101610000D01*
G75*
G02*
X156000000Y-101470000I0J140000D01*
G01*
X156000000Y-101130000D01*
G75*
G02*
X156140000Y-100990000I140000J0D01*
G01*
X156420000Y-100990000D01*
G75*
G02*
X156560000Y-101130000I0J-140000D01*
G01*
G37*
G04 #@! TD.AperFunction*
D17*
X137600000Y-98900000D03*
X138450000Y-98900000D03*
X139300000Y-98900000D03*
X140150000Y-98900000D03*
X141000000Y-98900000D03*
X141850000Y-98900000D03*
X142700000Y-98900000D03*
X143550000Y-98900000D03*
X138450000Y-100250000D03*
X140150000Y-100250000D03*
X139300000Y-100250000D03*
X137600000Y-100250000D03*
X141850000Y-100250000D03*
X142700000Y-100250000D03*
X143550000Y-100250000D03*
X141000000Y-100250000D03*
D18*
X136250000Y-99880000D03*
X144900000Y-99880000D03*
D19*
X136250000Y-103260000D03*
X144900000Y-103260000D03*
D20*
X123250000Y-92050000D03*
X123250000Y-93550000D03*
X122150000Y-93550000D03*
X122150000Y-92050000D03*
D21*
X121699999Y-99162000D03*
D22*
X121699999Y-98023000D03*
X121699999Y-97417000D03*
X121699999Y-96327000D03*
X121699999Y-95691000D03*
X123700001Y-96583000D03*
X123700001Y-97268000D03*
X123700001Y-97953000D03*
X123700001Y-98638000D03*
X123700001Y-99323000D03*
G04 #@! TA.AperFunction,SMDPad,CuDef*
G36*
G01*
X123930000Y-100740000D02*
X124270000Y-100740000D01*
G75*
G02*
X124410000Y-100880000I0J-140000D01*
G01*
X124410000Y-101160000D01*
G75*
G02*
X124270000Y-101300000I-140000J0D01*
G01*
X123930000Y-101300000D01*
G75*
G02*
X123790000Y-101160000I0J140000D01*
G01*
X123790000Y-100880000D01*
G75*
G02*
X123930000Y-100740000I140000J0D01*
G01*
G37*
G04 #@! TD.AperFunction*
G04 #@! TA.AperFunction,SMDPad,CuDef*
G36*
G01*
X123930000Y-101700000D02*
X124270000Y-101700000D01*
G75*
G02*
X124410000Y-101840000I0J-140000D01*
G01*
X124410000Y-102120000D01*
G75*
G02*
X124270000Y-102260000I-140000J0D01*
G01*
X123930000Y-102260000D01*
G75*
G02*
X123790000Y-102120000I0J140000D01*
G01*
X123790000Y-101840000D01*
G75*
G02*
X123930000Y-101700000I140000J0D01*
G01*
G37*
G04 #@! TD.AperFunction*
G04 #@! TA.AperFunction,SMDPad,CuDef*
G36*
G01*
X142300000Y-91870000D02*
X142300000Y-91530000D01*
G75*
G02*
X142440000Y-91390000I140000J0D01*
G01*
X142720000Y-91390000D01*
G75*
G02*
X142860000Y-91530000I0J-140000D01*
G01*
X142860000Y-91870000D01*
G75*
G02*
X142720000Y-92010000I-140000J0D01*
G01*
X142440000Y-92010000D01*
G75*
G02*
X142300000Y-91870000I0J140000D01*
G01*
G37*
G04 #@! TD.AperFunction*
G04 #@! TA.AperFunction,SMDPad,CuDef*
G36*
G01*
X141340000Y-91870000D02*
X141340000Y-91530000D01*
G75*
G02*
X141480000Y-91390000I140000J0D01*
G01*
X141760000Y-91390000D01*
G75*
G02*
X141900000Y-91530000I0J-140000D01*
G01*
X141900000Y-91870000D01*
G75*
G02*
X141760000Y-92010000I-140000J0D01*
G01*
X141480000Y-92010000D01*
G75*
G02*
X141340000Y-91870000I0J140000D01*
G01*
G37*
G04 #@! TD.AperFunction*
G04 #@! TA.AperFunction,SMDPad,CuDef*
G36*
G01*
X125070000Y-96860000D02*
X124730000Y-96860000D01*
G75*
G02*
X124590000Y-96720000I0J140000D01*
G01*
X124590000Y-96440000D01*
G75*
G02*
X124730000Y-96300000I140000J0D01*
G01*
X125070000Y-96300000D01*
G75*
G02*
X125210000Y-96440000I0J-140000D01*
G01*
X125210000Y-96720000D01*
G75*
G02*
X125070000Y-96860000I-140000J0D01*
G01*
G37*
G04 #@! TD.AperFunction*
G04 #@! TA.AperFunction,SMDPad,CuDef*
G36*
G01*
X125070000Y-95900000D02*
X124730000Y-95900000D01*
G75*
G02*
X124590000Y-95760000I0J140000D01*
G01*
X124590000Y-95480000D01*
G75*
G02*
X124730000Y-95340000I140000J0D01*
G01*
X125070000Y-95340000D01*
G75*
G02*
X125210000Y-95480000I0J-140000D01*
G01*
X125210000Y-95760000D01*
G75*
G02*
X125070000Y-95900000I-140000J0D01*
G01*
G37*
G04 #@! TD.AperFunction*
G04 #@! TA.AperFunction,SMDPad,CuDef*
G36*
G01*
X156560000Y-99930000D02*
X156560000Y-100270000D01*
G75*
G02*
X156420000Y-100410000I-140000J0D01*
G01*
X156140000Y-100410000D01*
G75*
G02*
X156000000Y-100270000I0J140000D01*
G01*
X156000000Y-99930000D01*
G75*
G02*
X156140000Y-99790000I140000J0D01*
G01*
X156420000Y-99790000D01*
G75*
G02*
X156560000Y-99930000I0J-140000D01*
G01*
G37*
G04 #@! TD.AperFunction*
G04 #@! TA.AperFunction,SMDPad,CuDef*
G36*
G01*
X155600000Y-99930000D02*
X155600000Y-100270000D01*
G75*
G02*
X155460000Y-100410000I-140000J0D01*
G01*
X155180000Y-100410000D01*
G75*
G02*
X155040000Y-100270000I0J140000D01*
G01*
X155040000Y-99930000D01*
G75*
G02*
X155180000Y-99790000I140000J0D01*
G01*
X155460000Y-99790000D01*
G75*
G02*
X155600000Y-99930000I0J-140000D01*
G01*
G37*
G04 #@! TD.AperFunction*
G04 #@! TA.AperFunction,SMDPad,CuDef*
G36*
G01*
X136370000Y-92860000D02*
X136030000Y-92860000D01*
G75*
G02*
X135890000Y-92720000I0J140000D01*
G01*
X135890000Y-92440000D01*
G75*
G02*
X136030000Y-92300000I140000J0D01*
G01*
X136370000Y-92300000D01*
G75*
G02*
X136510000Y-92440000I0J-140000D01*
G01*
X136510000Y-92720000D01*
G75*
G02*
X136370000Y-92860000I-140000J0D01*
G01*
G37*
G04 #@! TD.AperFunction*
G04 #@! TA.AperFunction,SMDPad,CuDef*
G36*
G01*
X136370000Y-91900000D02*
X136030000Y-91900000D01*
G75*
G02*
X135890000Y-91760000I0J140000D01*
G01*
X135890000Y-91480000D01*
G75*
G02*
X136030000Y-91340000I140000J0D01*
G01*
X136370000Y-91340000D01*
G75*
G02*
X136510000Y-91480000I0J-140000D01*
G01*
X136510000Y-91760000D01*
G75*
G02*
X136370000Y-91900000I-140000J0D01*
G01*
G37*
G04 #@! TD.AperFunction*
G04 #@! TA.AperFunction,SMDPad,CuDef*
G36*
G01*
X137570000Y-91900000D02*
X137230000Y-91900000D01*
G75*
G02*
X137090000Y-91760000I0J140000D01*
G01*
X137090000Y-91480000D01*
G75*
G02*
X137230000Y-91340000I140000J0D01*
G01*
X137570000Y-91340000D01*
G75*
G02*
X137710000Y-91480000I0J-140000D01*
G01*
X137710000Y-91760000D01*
G75*
G02*
X137570000Y-91900000I-140000J0D01*
G01*
G37*
G04 #@! TD.AperFunction*
G04 #@! TA.AperFunction,SMDPad,CuDef*
G36*
G01*
X137570000Y-92860000D02*
X137230000Y-92860000D01*
G75*
G02*
X137090000Y-92720000I0J140000D01*
G01*
X137090000Y-92440000D01*
G75*
G02*
X137230000Y-92300000I140000J0D01*
G01*
X137570000Y-92300000D01*
G75*
G02*
X137710000Y-92440000I0J-140000D01*
G01*
X137710000Y-92720000D01*
G75*
G02*
X137570000Y-92860000I-140000J0D01*
G01*
G37*
G04 #@! TD.AperFunction*
G04 #@! TA.AperFunction,SMDPad,CuDef*
G36*
G01*
X146740000Y-99870000D02*
X146740000Y-99530000D01*
G75*
G02*
X146880000Y-99390000I140000J0D01*
G01*
X147160000Y-99390000D01*
G75*
G02*
X147300000Y-99530000I0J-140000D01*
G01*
X147300000Y-99870000D01*
G75*
G02*
X147160000Y-100010000I-140000J0D01*
G01*
X146880000Y-100010000D01*
G75*
G02*
X146740000Y-99870000I0J140000D01*
G01*
G37*
G04 #@! TD.AperFunction*
G04 #@! TA.AperFunction,SMDPad,CuDef*
G36*
G01*
X147700000Y-99870000D02*
X147700000Y-99530000D01*
G75*
G02*
X147840000Y-99390000I140000J0D01*
G01*
X148120000Y-99390000D01*
G75*
G02*
X148260000Y-99530000I0J-140000D01*
G01*
X148260000Y-99870000D01*
G75*
G02*
X148120000Y-100010000I-140000J0D01*
G01*
X147840000Y-100010000D01*
G75*
G02*
X147700000Y-99870000I0J140000D01*
G01*
G37*
G04 #@! TD.AperFunction*
G04 #@! TA.AperFunction,SMDPad,CuDef*
G36*
G01*
X124730000Y-94300000D02*
X125070000Y-94300000D01*
G75*
G02*
X125210000Y-94440000I0J-140000D01*
G01*
X125210000Y-94720000D01*
G75*
G02*
X125070000Y-94860000I-140000J0D01*
G01*
X124730000Y-94860000D01*
G75*
G02*
X124590000Y-94720000I0J140000D01*
G01*
X124590000Y-94440000D01*
G75*
G02*
X124730000Y-94300000I140000J0D01*
G01*
G37*
G04 #@! TD.AperFunction*
G04 #@! TA.AperFunction,SMDPad,CuDef*
G36*
G01*
X124730000Y-93340000D02*
X125070000Y-93340000D01*
G75*
G02*
X125210000Y-93480000I0J-140000D01*
G01*
X125210000Y-93760000D01*
G75*
G02*
X125070000Y-93900000I-140000J0D01*
G01*
X124730000Y-93900000D01*
G75*
G02*
X124590000Y-93760000I0J140000D01*
G01*
X124590000Y-93480000D01*
G75*
G02*
X124730000Y-93340000I140000J0D01*
G01*
G37*
G04 #@! TD.AperFunction*
G04 #@! TA.AperFunction,SMDPad,CuDef*
G36*
G01*
X151430000Y-92500000D02*
X151770000Y-92500000D01*
G75*
G02*
X151910000Y-92640000I0J-140000D01*
G01*
X151910000Y-92920000D01*
G75*
G02*
X151770000Y-93060000I-140000J0D01*
G01*
X151430000Y-93060000D01*
G75*
G02*
X151290000Y-92920000I0J140000D01*
G01*
X151290000Y-92640000D01*
G75*
G02*
X151430000Y-92500000I140000J0D01*
G01*
G37*
G04 #@! TD.AperFunction*
G04 #@! TA.AperFunction,SMDPad,CuDef*
G36*
G01*
X151430000Y-91540000D02*
X151770000Y-91540000D01*
G75*
G02*
X151910000Y-91680000I0J-140000D01*
G01*
X151910000Y-91960000D01*
G75*
G02*
X151770000Y-92100000I-140000J0D01*
G01*
X151430000Y-92100000D01*
G75*
G02*
X151290000Y-91960000I0J140000D01*
G01*
X151290000Y-91680000D01*
G75*
G02*
X151430000Y-91540000I140000J0D01*
G01*
G37*
G04 #@! TD.AperFunction*
G04 #@! TA.AperFunction,SMDPad,CuDef*
G36*
G01*
X137000000Y-95630000D02*
X137000000Y-95970000D01*
G75*
G02*
X136860000Y-96110000I-140000J0D01*
G01*
X136580000Y-96110000D01*
G75*
G02*
X136440000Y-95970000I0J140000D01*
G01*
X136440000Y-95630000D01*
G75*
G02*
X136580000Y-95490000I140000J0D01*
G01*
X136860000Y-95490000D01*
G75*
G02*
X137000000Y-95630000I0J-140000D01*
G01*
G37*
G04 #@! TD.AperFunction*
G04 #@! TA.AperFunction,SMDPad,CuDef*
G36*
G01*
X137960000Y-95630000D02*
X137960000Y-95970000D01*
G75*
G02*
X137820000Y-96110000I-140000J0D01*
G01*
X137540000Y-96110000D01*
G75*
G02*
X137400000Y-95970000I0J140000D01*
G01*
X137400000Y-95630000D01*
G75*
G02*
X137540000Y-95490000I140000J0D01*
G01*
X137820000Y-95490000D01*
G75*
G02*
X137960000Y-95630000I0J-140000D01*
G01*
G37*
G04 #@! TD.AperFunction*
G04 #@! TA.AperFunction,SMDPad,CuDef*
G36*
G01*
X146370000Y-94260000D02*
X146030000Y-94260000D01*
G75*
G02*
X145890000Y-94120000I0J140000D01*
G01*
X145890000Y-93840000D01*
G75*
G02*
X146030000Y-93700000I140000J0D01*
G01*
X146370000Y-93700000D01*
G75*
G02*
X146510000Y-93840000I0J-140000D01*
G01*
X146510000Y-94120000D01*
G75*
G02*
X146370000Y-94260000I-140000J0D01*
G01*
G37*
G04 #@! TD.AperFunction*
G04 #@! TA.AperFunction,SMDPad,CuDef*
G36*
G01*
X146370000Y-93300000D02*
X146030000Y-93300000D01*
G75*
G02*
X145890000Y-93160000I0J140000D01*
G01*
X145890000Y-92880000D01*
G75*
G02*
X146030000Y-92740000I140000J0D01*
G01*
X146370000Y-92740000D01*
G75*
G02*
X146510000Y-92880000I0J-140000D01*
G01*
X146510000Y-93160000D01*
G75*
G02*
X146370000Y-93300000I-140000J0D01*
G01*
G37*
G04 #@! TD.AperFunction*
G04 #@! TA.AperFunction,SMDPad,CuDef*
G36*
G01*
X144875000Y-94450000D02*
X143925000Y-94450000D01*
G75*
G02*
X143675000Y-94200000I0J250000D01*
G01*
X143675000Y-93700000D01*
G75*
G02*
X143925000Y-93450000I250000J0D01*
G01*
X144875000Y-93450000D01*
G75*
G02*
X145125000Y-93700000I0J-250000D01*
G01*
X145125000Y-94200000D01*
G75*
G02*
X144875000Y-94450000I-250000J0D01*
G01*
G37*
G04 #@! TD.AperFunction*
G04 #@! TA.AperFunction,SMDPad,CuDef*
G36*
G01*
X144875000Y-92550000D02*
X143925000Y-92550000D01*
G75*
G02*
X143675000Y-92300000I0J250000D01*
G01*
X143675000Y-91800000D01*
G75*
G02*
X143925000Y-91550000I250000J0D01*
G01*
X144875000Y-91550000D01*
G75*
G02*
X145125000Y-91800000I0J-250000D01*
G01*
X145125000Y-92300000D01*
G75*
G02*
X144875000Y-92550000I-250000J0D01*
G01*
G37*
G04 #@! TD.AperFunction*
D23*
X134300000Y-101500000D03*
X132300000Y-102450000D03*
X132300000Y-100550000D03*
G04 #@! TA.AperFunction,SMDPad,CuDef*
G36*
G01*
X125275000Y-91625000D02*
X125275000Y-92175000D01*
G75*
G02*
X125075000Y-92375000I-200000J0D01*
G01*
X124675000Y-92375000D01*
G75*
G02*
X124475000Y-92175000I0J200000D01*
G01*
X124475000Y-91625000D01*
G75*
G02*
X124675000Y-91425000I200000J0D01*
G01*
X125075000Y-91425000D01*
G75*
G02*
X125275000Y-91625000I0J-200000D01*
G01*
G37*
G04 #@! TD.AperFunction*
G04 #@! TA.AperFunction,SMDPad,CuDef*
G36*
G01*
X126925000Y-91625000D02*
X126925000Y-92175000D01*
G75*
G02*
X126725000Y-92375000I-200000J0D01*
G01*
X126325000Y-92375000D01*
G75*
G02*
X126125000Y-92175000I0J200000D01*
G01*
X126125000Y-91625000D01*
G75*
G02*
X126325000Y-91425000I200000J0D01*
G01*
X126725000Y-91425000D01*
G75*
G02*
X126925000Y-91625000I0J-200000D01*
G01*
G37*
G04 #@! TD.AperFunction*
G04 #@! TA.AperFunction,SMDPad,CuDef*
G36*
G01*
X159340000Y-97385000D02*
X159340000Y-97015000D01*
G75*
G02*
X159475000Y-96880000I135000J0D01*
G01*
X159745000Y-96880000D01*
G75*
G02*
X159880000Y-97015000I0J-135000D01*
G01*
X159880000Y-97385000D01*
G75*
G02*
X159745000Y-97520000I-135000J0D01*
G01*
X159475000Y-97520000D01*
G75*
G02*
X159340000Y-97385000I0J135000D01*
G01*
G37*
G04 #@! TD.AperFunction*
G04 #@! TA.AperFunction,SMDPad,CuDef*
G36*
G01*
X158320000Y-97385000D02*
X158320000Y-97015000D01*
G75*
G02*
X158455000Y-96880000I135000J0D01*
G01*
X158725000Y-96880000D01*
G75*
G02*
X158860000Y-97015000I0J-135000D01*
G01*
X158860000Y-97385000D01*
G75*
G02*
X158725000Y-97520000I-135000J0D01*
G01*
X158455000Y-97520000D01*
G75*
G02*
X158320000Y-97385000I0J135000D01*
G01*
G37*
G04 #@! TD.AperFunction*
G04 #@! TA.AperFunction,SMDPad,CuDef*
G36*
G01*
X153360000Y-99715000D02*
X153360000Y-100085000D01*
G75*
G02*
X153225000Y-100220000I-135000J0D01*
G01*
X152955000Y-100220000D01*
G75*
G02*
X152820000Y-100085000I0J135000D01*
G01*
X152820000Y-99715000D01*
G75*
G02*
X152955000Y-99580000I135000J0D01*
G01*
X153225000Y-99580000D01*
G75*
G02*
X153360000Y-99715000I0J-135000D01*
G01*
G37*
G04 #@! TD.AperFunction*
G04 #@! TA.AperFunction,SMDPad,CuDef*
G36*
G01*
X154380000Y-99715000D02*
X154380000Y-100085000D01*
G75*
G02*
X154245000Y-100220000I-135000J0D01*
G01*
X153975000Y-100220000D01*
G75*
G02*
X153840000Y-100085000I0J135000D01*
G01*
X153840000Y-99715000D01*
G75*
G02*
X153975000Y-99580000I135000J0D01*
G01*
X154245000Y-99580000D01*
G75*
G02*
X154380000Y-99715000I0J-135000D01*
G01*
G37*
G04 #@! TD.AperFunction*
G04 #@! TA.AperFunction,SMDPad,CuDef*
G36*
G01*
X157785000Y-102660000D02*
X157415000Y-102660000D01*
G75*
G02*
X157280000Y-102525000I0J135000D01*
G01*
X157280000Y-102255000D01*
G75*
G02*
X157415000Y-102120000I135000J0D01*
G01*
X157785000Y-102120000D01*
G75*
G02*
X157920000Y-102255000I0J-135000D01*
G01*
X157920000Y-102525000D01*
G75*
G02*
X157785000Y-102660000I-135000J0D01*
G01*
G37*
G04 #@! TD.AperFunction*
G04 #@! TA.AperFunction,SMDPad,CuDef*
G36*
G01*
X157785000Y-103680000D02*
X157415000Y-103680000D01*
G75*
G02*
X157280000Y-103545000I0J135000D01*
G01*
X157280000Y-103275000D01*
G75*
G02*
X157415000Y-103140000I135000J0D01*
G01*
X157785000Y-103140000D01*
G75*
G02*
X157920000Y-103275000I0J-135000D01*
G01*
X157920000Y-103545000D01*
G75*
G02*
X157785000Y-103680000I-135000J0D01*
G01*
G37*
G04 #@! TD.AperFunction*
G04 #@! TA.AperFunction,SMDPad,CuDef*
G36*
G01*
X154415000Y-102120000D02*
X154785000Y-102120000D01*
G75*
G02*
X154920000Y-102255000I0J-135000D01*
G01*
X154920000Y-102525000D01*
G75*
G02*
X154785000Y-102660000I-135000J0D01*
G01*
X154415000Y-102660000D01*
G75*
G02*
X154280000Y-102525000I0J135000D01*
G01*
X154280000Y-102255000D01*
G75*
G02*
X154415000Y-102120000I135000J0D01*
G01*
G37*
G04 #@! TD.AperFunction*
G04 #@! TA.AperFunction,SMDPad,CuDef*
G36*
G01*
X154415000Y-103140000D02*
X154785000Y-103140000D01*
G75*
G02*
X154920000Y-103275000I0J-135000D01*
G01*
X154920000Y-103545000D01*
G75*
G02*
X154785000Y-103680000I-135000J0D01*
G01*
X154415000Y-103680000D01*
G75*
G02*
X154280000Y-103545000I0J135000D01*
G01*
X154280000Y-103275000D01*
G75*
G02*
X154415000Y-103140000I135000J0D01*
G01*
G37*
G04 #@! TD.AperFunction*
G04 #@! TA.AperFunction,SMDPad,CuDef*
G36*
G01*
X152740000Y-101285000D02*
X152740000Y-100915000D01*
G75*
G02*
X152875000Y-100780000I135000J0D01*
G01*
X153145000Y-100780000D01*
G75*
G02*
X153280000Y-100915000I0J-135000D01*
G01*
X153280000Y-101285000D01*
G75*
G02*
X153145000Y-101420000I-135000J0D01*
G01*
X152875000Y-101420000D01*
G75*
G02*
X152740000Y-101285000I0J135000D01*
G01*
G37*
G04 #@! TD.AperFunction*
G04 #@! TA.AperFunction,SMDPad,CuDef*
G36*
G01*
X151720000Y-101285000D02*
X151720000Y-100915000D01*
G75*
G02*
X151855000Y-100780000I135000J0D01*
G01*
X152125000Y-100780000D01*
G75*
G02*
X152260000Y-100915000I0J-135000D01*
G01*
X152260000Y-101285000D01*
G75*
G02*
X152125000Y-101420000I-135000J0D01*
G01*
X151855000Y-101420000D01*
G75*
G02*
X151720000Y-101285000I0J135000D01*
G01*
G37*
G04 #@! TD.AperFunction*
G04 #@! TA.AperFunction,SMDPad,CuDef*
G36*
G01*
X124180000Y-103215000D02*
X124180000Y-103585000D01*
G75*
G02*
X124045000Y-103720000I-135000J0D01*
G01*
X123775000Y-103720000D01*
G75*
G02*
X123640000Y-103585000I0J135000D01*
G01*
X123640000Y-103215000D01*
G75*
G02*
X123775000Y-103080000I135000J0D01*
G01*
X124045000Y-103080000D01*
G75*
G02*
X124180000Y-103215000I0J-135000D01*
G01*
G37*
G04 #@! TD.AperFunction*
G04 #@! TA.AperFunction,SMDPad,CuDef*
G36*
G01*
X123160000Y-103215000D02*
X123160000Y-103585000D01*
G75*
G02*
X123025000Y-103720000I-135000J0D01*
G01*
X122755000Y-103720000D01*
G75*
G02*
X122620000Y-103585000I0J135000D01*
G01*
X122620000Y-103215000D01*
G75*
G02*
X122755000Y-103080000I135000J0D01*
G01*
X123025000Y-103080000D01*
G75*
G02*
X123160000Y-103215000I0J-135000D01*
G01*
G37*
G04 #@! TD.AperFunction*
G04 #@! TA.AperFunction,SMDPad,CuDef*
G36*
G01*
X147375000Y-96075000D02*
X147375000Y-95525000D01*
G75*
G02*
X147575000Y-95325000I200000J0D01*
G01*
X147975000Y-95325000D01*
G75*
G02*
X148175000Y-95525000I0J-200000D01*
G01*
X148175000Y-96075000D01*
G75*
G02*
X147975000Y-96275000I-200000J0D01*
G01*
X147575000Y-96275000D01*
G75*
G02*
X147375000Y-96075000I0J200000D01*
G01*
G37*
G04 #@! TD.AperFunction*
G04 #@! TA.AperFunction,SMDPad,CuDef*
G36*
G01*
X149025000Y-96075000D02*
X149025000Y-95525000D01*
G75*
G02*
X149225000Y-95325000I200000J0D01*
G01*
X149625000Y-95325000D01*
G75*
G02*
X149825000Y-95525000I0J-200000D01*
G01*
X149825000Y-96075000D01*
G75*
G02*
X149625000Y-96275000I-200000J0D01*
G01*
X149225000Y-96275000D01*
G75*
G02*
X149025000Y-96075000I0J200000D01*
G01*
G37*
G04 #@! TD.AperFunction*
G04 #@! TA.AperFunction,SMDPad,CuDef*
G36*
G01*
X121515000Y-101740000D02*
X121885000Y-101740000D01*
G75*
G02*
X122020000Y-101875000I0J-135000D01*
G01*
X122020000Y-102145000D01*
G75*
G02*
X121885000Y-102280000I-135000J0D01*
G01*
X121515000Y-102280000D01*
G75*
G02*
X121380000Y-102145000I0J135000D01*
G01*
X121380000Y-101875000D01*
G75*
G02*
X121515000Y-101740000I135000J0D01*
G01*
G37*
G04 #@! TD.AperFunction*
G04 #@! TA.AperFunction,SMDPad,CuDef*
G36*
G01*
X121515000Y-100720000D02*
X121885000Y-100720000D01*
G75*
G02*
X122020000Y-100855000I0J-135000D01*
G01*
X122020000Y-101125000D01*
G75*
G02*
X121885000Y-101260000I-135000J0D01*
G01*
X121515000Y-101260000D01*
G75*
G02*
X121380000Y-101125000I0J135000D01*
G01*
X121380000Y-100855000D01*
G75*
G02*
X121515000Y-100720000I135000J0D01*
G01*
G37*
G04 #@! TD.AperFunction*
G04 #@! TA.AperFunction,SMDPad,CuDef*
G36*
G01*
X122715000Y-100720000D02*
X123085000Y-100720000D01*
G75*
G02*
X123220000Y-100855000I0J-135000D01*
G01*
X123220000Y-101125000D01*
G75*
G02*
X123085000Y-101260000I-135000J0D01*
G01*
X122715000Y-101260000D01*
G75*
G02*
X122580000Y-101125000I0J135000D01*
G01*
X122580000Y-100855000D01*
G75*
G02*
X122715000Y-100720000I135000J0D01*
G01*
G37*
G04 #@! TD.AperFunction*
G04 #@! TA.AperFunction,SMDPad,CuDef*
G36*
G01*
X122715000Y-101740000D02*
X123085000Y-101740000D01*
G75*
G02*
X123220000Y-101875000I0J-135000D01*
G01*
X123220000Y-102145000D01*
G75*
G02*
X123085000Y-102280000I-135000J0D01*
G01*
X122715000Y-102280000D01*
G75*
G02*
X122580000Y-102145000I0J135000D01*
G01*
X122580000Y-101875000D01*
G75*
G02*
X122715000Y-101740000I135000J0D01*
G01*
G37*
G04 #@! TD.AperFunction*
G04 #@! TA.AperFunction,SMDPad,CuDef*
G36*
G01*
X152740000Y-103685000D02*
X152740000Y-103315000D01*
G75*
G02*
X152875000Y-103180000I135000J0D01*
G01*
X153145000Y-103180000D01*
G75*
G02*
X153280000Y-103315000I0J-135000D01*
G01*
X153280000Y-103685000D01*
G75*
G02*
X153145000Y-103820000I-135000J0D01*
G01*
X152875000Y-103820000D01*
G75*
G02*
X152740000Y-103685000I0J135000D01*
G01*
G37*
G04 #@! TD.AperFunction*
G04 #@! TA.AperFunction,SMDPad,CuDef*
G36*
G01*
X151720000Y-103685000D02*
X151720000Y-103315000D01*
G75*
G02*
X151855000Y-103180000I135000J0D01*
G01*
X152125000Y-103180000D01*
G75*
G02*
X152260000Y-103315000I0J-135000D01*
G01*
X152260000Y-103685000D01*
G75*
G02*
X152125000Y-103820000I-135000J0D01*
G01*
X151855000Y-103820000D01*
G75*
G02*
X151720000Y-103685000I0J135000D01*
G01*
G37*
G04 #@! TD.AperFunction*
G04 #@! TA.AperFunction,SMDPad,CuDef*
G36*
G01*
X153280000Y-102115000D02*
X153280000Y-102485000D01*
G75*
G02*
X153145000Y-102620000I-135000J0D01*
G01*
X152875000Y-102620000D01*
G75*
G02*
X152740000Y-102485000I0J135000D01*
G01*
X152740000Y-102115000D01*
G75*
G02*
X152875000Y-101980000I135000J0D01*
G01*
X153145000Y-101980000D01*
G75*
G02*
X153280000Y-102115000I0J-135000D01*
G01*
G37*
G04 #@! TD.AperFunction*
G04 #@! TA.AperFunction,SMDPad,CuDef*
G36*
G01*
X152260000Y-102115000D02*
X152260000Y-102485000D01*
G75*
G02*
X152125000Y-102620000I-135000J0D01*
G01*
X151855000Y-102620000D01*
G75*
G02*
X151720000Y-102485000I0J135000D01*
G01*
X151720000Y-102115000D01*
G75*
G02*
X151855000Y-101980000I135000J0D01*
G01*
X152125000Y-101980000D01*
G75*
G02*
X152260000Y-102115000I0J-135000D01*
G01*
G37*
G04 #@! TD.AperFunction*
G04 #@! TA.AperFunction,SMDPad,CuDef*
G36*
G01*
X140185000Y-96350000D02*
X139815000Y-96350000D01*
G75*
G02*
X139680000Y-96215000I0J135000D01*
G01*
X139680000Y-95945000D01*
G75*
G02*
X139815000Y-95810000I135000J0D01*
G01*
X140185000Y-95810000D01*
G75*
G02*
X140320000Y-95945000I0J-135000D01*
G01*
X140320000Y-96215000D01*
G75*
G02*
X140185000Y-96350000I-135000J0D01*
G01*
G37*
G04 #@! TD.AperFunction*
G04 #@! TA.AperFunction,SMDPad,CuDef*
G36*
G01*
X140185000Y-97370000D02*
X139815000Y-97370000D01*
G75*
G02*
X139680000Y-97235000I0J135000D01*
G01*
X139680000Y-96965000D01*
G75*
G02*
X139815000Y-96830000I135000J0D01*
G01*
X140185000Y-96830000D01*
G75*
G02*
X140320000Y-96965000I0J-135000D01*
G01*
X140320000Y-97235000D01*
G75*
G02*
X140185000Y-97370000I-135000J0D01*
G01*
G37*
G04 #@! TD.AperFunction*
G04 #@! TA.AperFunction,SMDPad,CuDef*
G36*
G01*
X143285000Y-97380000D02*
X142915000Y-97380000D01*
G75*
G02*
X142780000Y-97245000I0J135000D01*
G01*
X142780000Y-96975000D01*
G75*
G02*
X142915000Y-96840000I135000J0D01*
G01*
X143285000Y-96840000D01*
G75*
G02*
X143420000Y-96975000I0J-135000D01*
G01*
X143420000Y-97245000D01*
G75*
G02*
X143285000Y-97380000I-135000J0D01*
G01*
G37*
G04 #@! TD.AperFunction*
G04 #@! TA.AperFunction,SMDPad,CuDef*
G36*
G01*
X143285000Y-96360000D02*
X142915000Y-96360000D01*
G75*
G02*
X142780000Y-96225000I0J135000D01*
G01*
X142780000Y-95955000D01*
G75*
G02*
X142915000Y-95820000I135000J0D01*
G01*
X143285000Y-95820000D01*
G75*
G02*
X143420000Y-95955000I0J-135000D01*
G01*
X143420000Y-96225000D01*
G75*
G02*
X143285000Y-96360000I-135000J0D01*
G01*
G37*
G04 #@! TD.AperFunction*
G04 #@! TA.AperFunction,SMDPad,CuDef*
G36*
G01*
X155915000Y-102120000D02*
X156285000Y-102120000D01*
G75*
G02*
X156420000Y-102255000I0J-135000D01*
G01*
X156420000Y-102525000D01*
G75*
G02*
X156285000Y-102660000I-135000J0D01*
G01*
X155915000Y-102660000D01*
G75*
G02*
X155780000Y-102525000I0J135000D01*
G01*
X155780000Y-102255000D01*
G75*
G02*
X155915000Y-102120000I135000J0D01*
G01*
G37*
G04 #@! TD.AperFunction*
G04 #@! TA.AperFunction,SMDPad,CuDef*
G36*
G01*
X155915000Y-103140000D02*
X156285000Y-103140000D01*
G75*
G02*
X156420000Y-103275000I0J-135000D01*
G01*
X156420000Y-103545000D01*
G75*
G02*
X156285000Y-103680000I-135000J0D01*
G01*
X155915000Y-103680000D01*
G75*
G02*
X155780000Y-103545000I0J135000D01*
G01*
X155780000Y-103275000D01*
G75*
G02*
X155915000Y-103140000I135000J0D01*
G01*
G37*
G04 #@! TD.AperFunction*
D24*
X150000000Y-94050000D03*
X150000000Y-93100000D03*
X150000000Y-92150000D03*
X147800000Y-92150000D03*
X147800000Y-94050000D03*
D25*
X136880000Y-97000000D03*
X137720000Y-97000000D03*
D26*
X141900000Y-97120000D03*
X141900000Y-96280000D03*
X138800000Y-97120000D03*
X138800000Y-96280000D03*
D27*
X130400000Y-98600003D03*
X131200000Y-93300000D03*
X157125000Y-100600000D03*
X148000000Y-98600000D03*
X120642000Y-97417000D03*
X123800000Y-95500000D03*
X141000000Y-96600000D03*
X154800000Y-98700000D03*
X154812653Y-100587347D03*
X151400000Y-99406239D03*
X148700000Y-99700000D03*
X134500000Y-98900000D03*
X147300000Y-93100000D03*
X148900000Y-93100000D03*
X127500000Y-99700000D03*
X133800000Y-96700000D03*
X138800000Y-95000000D03*
X135100000Y-95500000D03*
X135100000Y-96700000D03*
X122800000Y-95500000D03*
X160400000Y-103300000D03*
X159100000Y-96100000D03*
X153325000Y-91824230D03*
X153700000Y-102000000D03*
X146627027Y-98672973D03*
X133500000Y-91925000D03*
X145900000Y-95075000D03*
X149000000Y-97000000D03*
X151600000Y-94200000D03*
X121800000Y-94700000D03*
X124775000Y-100200000D03*
X146147096Y-102666130D03*
X126300000Y-100200000D03*
X121200000Y-92000000D03*
X127075000Y-94100000D03*
X156300000Y-95749999D03*
X152800000Y-98225000D03*
X133300000Y-99500000D03*
X155800000Y-94400000D03*
X157600000Y-97200000D03*
X127400000Y-101400000D03*
X155900000Y-98700000D03*
X159048700Y-103000000D03*
X130400000Y-97600000D03*
X121600000Y-102900000D03*
X125500000Y-98598000D03*
X142900000Y-92700000D03*
X127800000Y-97600000D03*
X159048700Y-102000000D03*
X125778086Y-97621914D03*
X141100000Y-94100000D03*
X133500000Y-94000000D03*
X132100000Y-99300000D03*
D28*
X124897000Y-96583000D02*
X124900000Y-96580000D01*
X123700001Y-96583000D02*
X124897000Y-96583000D01*
X123700001Y-99323000D02*
X126477000Y-99323000D01*
X126477000Y-99323000D02*
X126595000Y-99205000D01*
X121700000Y-102010000D02*
X122900000Y-102010000D01*
X122900000Y-103390000D02*
X122890000Y-103400000D01*
X122900000Y-102010000D02*
X122900000Y-103390000D01*
X123890000Y-101020000D02*
X124100000Y-101020000D01*
X122900000Y-102010000D02*
X123890000Y-101020000D01*
X123700001Y-100620001D02*
X124100000Y-101020000D01*
X123700001Y-99323000D02*
X123700001Y-100620001D01*
X125800000Y-96395000D02*
X125615000Y-96580000D01*
X125720000Y-93620000D02*
X125800000Y-93700000D01*
X125615000Y-96580000D02*
X124900000Y-96580000D01*
X124900000Y-93620000D02*
X125720000Y-93620000D01*
X126595000Y-95600000D02*
X125800000Y-95600000D01*
X125800000Y-95600000D02*
X125800000Y-96395000D01*
X125800000Y-93700000D02*
X125800000Y-95600000D01*
X137400000Y-92580000D02*
X137880000Y-92580000D01*
X138050063Y-92750063D02*
X138763400Y-92750063D01*
X137880000Y-92580000D02*
X138050063Y-92750063D01*
X136200000Y-92580000D02*
X136200000Y-93200000D01*
X136200000Y-93200000D02*
X136250189Y-93250189D01*
X140823065Y-92750063D02*
X142023002Y-93950000D01*
X142023002Y-93950000D02*
X144400000Y-93950000D01*
X140236600Y-92750063D02*
X140823065Y-92750063D01*
X137400000Y-93200000D02*
X137450189Y-93250189D01*
X137400000Y-92580000D02*
X137400000Y-93200000D01*
X137450189Y-93250189D02*
X138763400Y-93250189D01*
X136250189Y-93250189D02*
X137450189Y-93250189D01*
X131249811Y-93250189D02*
X131200000Y-93300000D01*
X146170000Y-93950000D02*
X146200000Y-93980000D01*
X144400000Y-93950000D02*
X146170000Y-93950000D01*
X147730000Y-93980000D02*
X147800000Y-94050000D01*
X146200000Y-93980000D02*
X147730000Y-93980000D01*
X147800000Y-95775000D02*
X147775000Y-95800000D01*
X156379999Y-100199999D02*
X156280000Y-100100000D01*
X157125000Y-100224998D02*
X157100001Y-100199999D01*
X157125000Y-100600000D02*
X157125000Y-100224998D01*
X157100001Y-100199999D02*
X156379999Y-100199999D01*
X158323700Y-100199999D02*
X157100001Y-100199999D01*
X126599997Y-98600003D02*
X126595000Y-98605000D01*
X130400000Y-98600003D02*
X126599997Y-98600003D01*
X126595000Y-98605000D02*
X126595000Y-95600000D01*
X126595000Y-99205000D02*
X126595000Y-98605000D01*
X140236600Y-92249937D02*
X140236600Y-92750063D01*
X142023002Y-93950000D02*
X142023002Y-94250000D01*
X141448001Y-94825001D02*
X140625001Y-94825001D01*
X142023002Y-94250000D02*
X141448001Y-94825001D01*
X140625001Y-94825001D02*
X140014061Y-94214061D01*
X140014061Y-94214061D02*
X134385939Y-94214061D01*
X134385939Y-94214061D02*
X133800000Y-94800000D01*
X132649811Y-94449811D02*
X132649811Y-93250189D01*
X133000000Y-94800000D02*
X132649811Y-94449811D01*
X132649811Y-93250189D02*
X131249811Y-93250189D01*
X136250189Y-93250189D02*
X132649811Y-93250189D01*
X144400000Y-93950000D02*
X144400000Y-95500000D01*
X144700000Y-95800000D02*
X147775000Y-95800000D01*
X144400000Y-95500000D02*
X144700000Y-95800000D01*
X147775000Y-98375000D02*
X148000000Y-98600000D01*
X147775000Y-95800000D02*
X147775000Y-98375000D01*
X133800000Y-94800000D02*
X133000000Y-94800000D01*
X160076300Y-98699999D02*
X160076300Y-98476300D01*
X159610000Y-98010000D02*
X159610000Y-97200000D01*
X160076300Y-98476300D02*
X159610000Y-98010000D01*
X120642000Y-97417000D02*
X121699999Y-97417000D01*
X138800000Y-96280000D02*
X139220000Y-96280000D01*
X139420000Y-96080000D02*
X140000000Y-96080000D01*
X139220000Y-96280000D02*
X139420000Y-96080000D01*
X138186347Y-92249937D02*
X138100000Y-92163590D01*
X138763400Y-92249937D02*
X138186347Y-92249937D01*
X138100000Y-92163590D02*
X138100000Y-91800000D01*
X137920000Y-91620000D02*
X137400000Y-91620000D01*
X138100000Y-91800000D02*
X137920000Y-91620000D01*
X139153100Y-92249937D02*
X138763400Y-92249937D01*
X139249937Y-92153100D02*
X139153100Y-92249937D01*
X139249937Y-91763400D02*
X139249937Y-92153100D01*
X145799095Y-103391131D02*
X146495097Y-103391131D01*
X145667964Y-103260000D02*
X145799095Y-103391131D01*
X144900000Y-103260000D02*
X145667964Y-103260000D01*
X146786227Y-103100001D02*
X147403000Y-103100001D01*
X146495097Y-103391131D02*
X146786227Y-103100001D01*
X137600000Y-98900000D02*
X137600000Y-100250000D01*
X143550000Y-98900000D02*
X143550000Y-100250000D01*
X143550000Y-98405026D02*
X143144974Y-98000000D01*
X143550000Y-98900000D02*
X143550000Y-98405026D01*
X143144974Y-98000000D02*
X141300000Y-98000000D01*
X141000000Y-97700000D02*
X141000000Y-96600000D01*
X141300000Y-98000000D02*
X141000000Y-97700000D01*
X154812653Y-100587347D02*
X155212653Y-100587347D01*
X155320000Y-100480000D02*
X155320000Y-100100000D01*
X155212653Y-100587347D02*
X155320000Y-100480000D01*
X150000000Y-93100000D02*
X150600000Y-93100000D01*
X150920000Y-92780000D02*
X151600000Y-92780000D01*
X150600000Y-93100000D02*
X150920000Y-92780000D01*
X150000000Y-93100000D02*
X148900000Y-93100000D01*
X148021400Y-103100001D02*
X147403000Y-103100001D01*
X148700000Y-102421401D02*
X148021400Y-103100001D01*
X148700000Y-99700000D02*
X148700000Y-102421401D01*
X139836899Y-91297810D02*
X141497810Y-91297810D01*
X139750063Y-91384646D02*
X139836899Y-91297810D01*
X139750063Y-91763400D02*
X139750063Y-91384646D01*
X141620000Y-91420000D02*
X141620000Y-91700000D01*
X141497810Y-91297810D02*
X141620000Y-91420000D01*
X158323700Y-100700001D02*
X158323700Y-101076300D01*
X157600000Y-103410000D02*
X158090000Y-103410000D01*
X158090000Y-103410000D02*
X158323700Y-103176300D01*
X156280000Y-101200000D02*
X156280000Y-101280000D01*
X158323700Y-101776300D02*
X158323700Y-101076300D01*
X158323700Y-103176300D02*
X158323700Y-101776300D01*
X150000000Y-92150000D02*
X150850000Y-92150000D01*
X151180000Y-91820000D02*
X151600000Y-91820000D01*
X150850000Y-92150000D02*
X151180000Y-91820000D01*
X156950000Y-91950000D02*
X156950000Y-94350000D01*
X158405001Y-103725001D02*
X158090000Y-103410000D01*
X159974999Y-103725001D02*
X158405001Y-103725001D01*
X160400000Y-103300000D02*
X159974999Y-103725001D01*
X156774990Y-101794990D02*
X156280000Y-101300000D01*
X158305010Y-101794990D02*
X156774990Y-101794990D01*
X158323700Y-101776300D02*
X158305010Y-101794990D01*
X157850000Y-94350000D02*
X156950000Y-94350000D01*
X158200000Y-94700000D02*
X157850000Y-94350000D01*
X158200000Y-94700000D02*
X158200000Y-95900000D01*
X158400000Y-96100000D02*
X159100000Y-96100000D01*
X158200000Y-95900000D02*
X158400000Y-96100000D01*
X153320770Y-91820000D02*
X153325000Y-91824230D01*
X152680000Y-92920000D02*
X152680000Y-91820000D01*
X152200000Y-93400000D02*
X152680000Y-92920000D01*
X151326998Y-93400000D02*
X152200000Y-93400000D01*
X150676998Y-94050000D02*
X151326998Y-93400000D01*
X150000000Y-94050000D02*
X150676998Y-94050000D01*
X152680000Y-91820000D02*
X153320770Y-91820000D01*
X151600000Y-91820000D02*
X152680000Y-91820000D01*
X147020000Y-99700000D02*
X147020000Y-100120000D01*
X147403000Y-100503000D02*
X147403000Y-101099999D01*
X147020000Y-100120000D02*
X147403000Y-100503000D01*
X147403000Y-101600001D02*
X147403000Y-101099999D01*
X153700000Y-102000000D02*
X153700000Y-102200000D01*
X153600000Y-102300000D02*
X153010000Y-102300000D01*
X153700000Y-102200000D02*
X153600000Y-102300000D01*
X138450000Y-98350000D02*
X138450000Y-98900000D01*
X138300000Y-98200000D02*
X138450000Y-98350000D01*
X138300000Y-98200000D02*
X138000000Y-98200000D01*
X137720000Y-97920000D02*
X137720000Y-97000000D01*
X138000000Y-98200000D02*
X137720000Y-97920000D01*
X137720000Y-95840000D02*
X137680000Y-95800000D01*
X137720000Y-97000000D02*
X137720000Y-95840000D01*
X138450000Y-98900000D02*
X138450000Y-100250000D01*
X142700000Y-98900000D02*
X142700000Y-100250000D01*
X147000000Y-99680000D02*
X147020000Y-99700000D01*
X146627027Y-99307027D02*
X147020000Y-99700000D01*
X146627027Y-98672973D02*
X146627027Y-99307027D01*
X150197000Y-101099999D02*
X150197000Y-100903000D01*
X150480000Y-100620000D02*
X150480000Y-99700000D01*
X150197000Y-100903000D02*
X150480000Y-100620000D01*
X150197000Y-101099999D02*
X150197000Y-101600001D01*
X126525000Y-91900000D02*
X133424990Y-91900000D01*
X154399999Y-94299999D02*
X154450000Y-94350000D01*
X133475000Y-91900000D02*
X133500000Y-91925000D01*
X133424990Y-91900000D02*
X133475000Y-91900000D01*
X154100000Y-94000000D02*
X154450000Y-94350000D01*
X150480000Y-98480000D02*
X149000000Y-97000000D01*
X150480000Y-99700000D02*
X150480000Y-98480000D01*
X154450000Y-91950000D02*
X154450000Y-94350000D01*
X146075000Y-94900000D02*
X150900000Y-94900000D01*
X150900000Y-94900000D02*
X151600000Y-94200000D01*
X145900000Y-95075000D02*
X146075000Y-94900000D01*
X154300000Y-94200000D02*
X154450000Y-94350000D01*
X151600000Y-94200000D02*
X154300000Y-94200000D01*
X124825000Y-91950000D02*
X124875000Y-91900000D01*
X124725000Y-92050000D02*
X124875000Y-91900000D01*
X123250000Y-92050000D02*
X124725000Y-92050000D01*
X123250000Y-93550000D02*
X123250000Y-94750000D01*
X143613600Y-101450010D02*
X144018609Y-101855019D01*
X135300000Y-98400000D02*
X135300000Y-100776029D01*
X146600000Y-102100000D02*
X147403000Y-102100000D01*
X134900000Y-98000000D02*
X135300000Y-98400000D01*
X131500000Y-98000000D02*
X134900000Y-98000000D01*
X131200000Y-94600000D02*
X131200000Y-97700000D01*
X130249990Y-93649990D02*
X131200000Y-94600000D01*
X131200000Y-97700000D02*
X131500000Y-98000000D01*
X127949990Y-93649990D02*
X130249990Y-93649990D01*
X127674999Y-93374999D02*
X127949990Y-93649990D01*
X146355020Y-101855020D02*
X146600000Y-102100000D01*
X135973981Y-101450010D02*
X143613600Y-101450010D01*
X123550000Y-93550000D02*
X124085010Y-93014990D01*
X126374999Y-93374999D02*
X127674999Y-93374999D01*
X135300000Y-100776029D02*
X135973981Y-101450010D01*
X124085010Y-93014990D02*
X126014990Y-93014990D01*
X126014990Y-93014990D02*
X126374999Y-93374999D01*
X144018609Y-101855019D02*
X146355020Y-101855020D01*
X123250000Y-93550000D02*
X123550000Y-93550000D01*
X122150000Y-94350000D02*
X121800000Y-94700000D01*
X122150000Y-93550000D02*
X122150000Y-94350000D01*
X124775000Y-100200000D02*
X125600000Y-100200000D01*
X146213227Y-102599999D02*
X146147096Y-102666130D01*
X147403000Y-102599999D02*
X146213227Y-102599999D01*
X126300000Y-100200000D02*
X124775000Y-100200000D01*
X121850000Y-91950000D02*
X121900000Y-92000000D01*
X121250000Y-92050000D02*
X121200000Y-92000000D01*
X122150000Y-92050000D02*
X121250000Y-92050000D01*
X129135000Y-94235000D02*
X129135000Y-95600000D01*
X129000000Y-94100000D02*
X129135000Y-94235000D01*
X127075000Y-94100000D02*
X129000000Y-94100000D01*
X140150000Y-98900000D02*
X140150000Y-100250000D01*
X141000000Y-98900000D02*
X141000000Y-100250000D01*
X156300000Y-95749999D02*
X156300000Y-97200000D01*
X156300000Y-97200000D02*
X155525001Y-97974999D01*
X153050001Y-97974999D02*
X152800000Y-98225000D01*
X155525001Y-97974999D02*
X153050001Y-97974999D01*
X134300000Y-101500000D02*
X133600000Y-101500000D01*
X133300000Y-101200000D02*
X133300000Y-99500000D01*
X133600000Y-101500000D02*
X133300000Y-101200000D01*
X149425000Y-96175000D02*
X149425000Y-95800000D01*
X149425000Y-95800000D02*
X155100000Y-95800000D01*
X155800000Y-95100000D02*
X155800000Y-94400000D01*
X155100000Y-95800000D02*
X155800000Y-95100000D01*
X158323700Y-98699999D02*
X158323700Y-98276300D01*
X158590000Y-98010000D02*
X158590000Y-97200000D01*
X158323700Y-98276300D02*
X158590000Y-98010000D01*
X158590000Y-97200000D02*
X157600000Y-97200000D01*
X129135000Y-102800000D02*
X129135000Y-101765000D01*
X130350000Y-100550000D02*
X132300000Y-100550000D01*
X129135000Y-101765000D02*
X130350000Y-100550000D01*
X157600000Y-102390000D02*
X156100000Y-102390000D01*
X156100000Y-102390000D02*
X154600000Y-102390000D01*
X154600000Y-102390000D02*
X154600000Y-101400000D01*
X154300000Y-101100000D02*
X153010000Y-101100000D01*
X154600000Y-101400000D02*
X154300000Y-101100000D01*
X153090000Y-101020000D02*
X153010000Y-101100000D01*
X153090000Y-99900000D02*
X153090000Y-101020000D01*
X158323700Y-99700000D02*
X157147626Y-99700000D01*
X154545010Y-99464990D02*
X156912616Y-99464990D01*
X156912616Y-99464990D02*
X157147626Y-99700000D01*
X154110000Y-99900000D02*
X154545010Y-99464990D01*
X150990000Y-102100000D02*
X151990000Y-101100000D01*
X150197000Y-102100000D02*
X150990000Y-102100000D01*
X126600000Y-102795000D02*
X126595000Y-102800000D01*
X123910000Y-103400000D02*
X125100000Y-103400000D01*
X125700000Y-102800000D02*
X126595000Y-102800000D01*
X125100000Y-103400000D02*
X125700000Y-102800000D01*
X127400000Y-101400000D02*
X126800000Y-101400000D01*
X126595000Y-101605000D02*
X126595000Y-102800000D01*
X126800000Y-101400000D02*
X126595000Y-101605000D01*
X157129099Y-98700000D02*
X157629100Y-99200001D01*
X157629100Y-99200001D02*
X158323700Y-99200001D01*
X155900000Y-98700000D02*
X157129099Y-98700000D01*
X160883901Y-100275000D02*
X160883901Y-101416099D01*
X160808900Y-100199999D02*
X160883901Y-100275000D01*
X160076300Y-100199999D02*
X160808900Y-100199999D01*
X160883901Y-101416099D02*
X160300000Y-102000000D01*
X160300000Y-102000000D02*
X159600000Y-102700000D01*
X159300000Y-103000000D02*
X159048700Y-103000000D01*
X159600000Y-102700000D02*
X159300000Y-103000000D01*
X130400000Y-95605000D02*
X130405000Y-95600000D01*
X130400000Y-97600000D02*
X130400000Y-95605000D01*
X121600000Y-102900000D02*
X121200000Y-102900000D01*
X121200000Y-102900000D02*
X120900000Y-102600000D01*
X120900000Y-102600000D02*
X120900000Y-101100000D01*
X121010000Y-100990000D02*
X121700000Y-100990000D01*
X120900000Y-101100000D02*
X121010000Y-100990000D01*
X123740001Y-98598000D02*
X123700001Y-98638000D01*
X125500000Y-98598000D02*
X123740001Y-98598000D01*
X140649811Y-91749811D02*
X140236600Y-91749811D01*
X141600000Y-92700000D02*
X140649811Y-91749811D01*
X141600000Y-92700000D02*
X142900000Y-92700000D01*
X122900000Y-100790000D02*
X122900000Y-97500000D01*
X123132000Y-97268000D02*
X123700001Y-97268000D01*
X122900000Y-97500000D02*
X123132000Y-97268000D01*
X127800000Y-95665000D02*
X127865000Y-95600000D01*
X127800000Y-97600000D02*
X127800000Y-95665000D01*
X159381697Y-99700000D02*
X160076300Y-99700000D01*
X159141699Y-99939998D02*
X159381697Y-99700000D01*
X159141699Y-101907001D02*
X159141699Y-99939998D01*
X159048700Y-102000000D02*
X159141699Y-101907001D01*
X125424172Y-97268000D02*
X125778086Y-97621914D01*
X123700001Y-97268000D02*
X125424172Y-97268000D01*
X140250189Y-93250189D02*
X141100000Y-94100000D01*
X140236600Y-93250189D02*
X140250189Y-93250189D01*
X151990000Y-103500000D02*
X151500000Y-103500000D01*
X151100001Y-103100001D02*
X150197000Y-103100001D01*
X151500000Y-103500000D02*
X151100001Y-103100001D01*
X151990000Y-102300000D02*
X151600000Y-102300000D01*
X151300001Y-102599999D02*
X150197000Y-102599999D01*
X151600000Y-102300000D02*
X151300001Y-102599999D01*
X159450000Y-91950000D02*
X159450000Y-94350000D01*
X139249937Y-93578164D02*
X139249937Y-93236600D01*
X133935949Y-93764051D02*
X139064051Y-93764051D01*
X139064051Y-93764051D02*
X139249937Y-93578164D01*
X133735949Y-93764051D02*
X133500000Y-94000000D01*
X133935949Y-93764051D02*
X133735949Y-93764051D01*
X127865000Y-102335000D02*
X127865000Y-102800000D01*
X130100000Y-100100000D02*
X127865000Y-102335000D01*
X131300000Y-100100000D02*
X130100000Y-100100000D01*
X132100000Y-99300000D02*
X131300000Y-100100000D01*
X143090000Y-97120000D02*
X143100000Y-97110000D01*
X141900000Y-97120000D02*
X143090000Y-97120000D01*
X141900000Y-101000000D02*
X141850000Y-100950000D01*
X144205010Y-101405010D02*
X143800000Y-101000000D01*
X145510000Y-97110000D02*
X145800000Y-97400000D01*
X145800000Y-100826998D02*
X145221988Y-101405010D01*
X145800000Y-97400000D02*
X145800000Y-100826998D01*
X141850000Y-100950000D02*
X141850000Y-100250000D01*
X143800000Y-101000000D02*
X141900000Y-101000000D01*
X145221988Y-101405010D02*
X144205010Y-101405010D01*
X143100000Y-97110000D02*
X145510000Y-97110000D01*
X139980000Y-97120000D02*
X140000000Y-97100000D01*
X138800000Y-97120000D02*
X139980000Y-97120000D01*
X139300000Y-98200000D02*
X139300000Y-98900000D01*
X138800000Y-97700000D02*
X139300000Y-98200000D01*
X138800000Y-97120000D02*
X138800000Y-97700000D01*
X161116167Y-90413309D02*
X161227913Y-90447047D01*
X161330971Y-90501843D01*
X161421430Y-90575620D01*
X161495832Y-90665556D01*
X161551350Y-90768236D01*
X161585865Y-90879735D01*
X161600000Y-91014214D01*
X161600001Y-103980426D01*
X161586691Y-104116167D01*
X161552953Y-104227912D01*
X161498156Y-104330972D01*
X161424380Y-104421430D01*
X161334444Y-104495832D01*
X161231764Y-104551350D01*
X161120265Y-104585865D01*
X160985785Y-104600000D01*
X145444731Y-104600000D01*
X145574581Y-104517014D01*
X145728814Y-104368943D01*
X145851196Y-104193627D01*
X145937024Y-103997804D01*
X145983000Y-103789000D01*
X145983000Y-103423672D01*
X146070765Y-103441130D01*
X146223427Y-103441130D01*
X146373155Y-103411347D01*
X146388753Y-103404886D01*
X146414706Y-103483858D01*
X146475997Y-103592445D01*
X146557295Y-103686987D01*
X146655475Y-103763853D01*
X146766764Y-103820088D01*
X146886886Y-103853530D01*
X147011224Y-103862896D01*
X147115750Y-103860001D01*
X147274000Y-103701751D01*
X147274000Y-103103813D01*
X147288407Y-103103813D01*
X147287637Y-103344600D01*
X147299859Y-103468690D01*
X147336054Y-103588011D01*
X147394833Y-103697978D01*
X147473936Y-103794364D01*
X147570322Y-103873467D01*
X147680289Y-103932246D01*
X147799610Y-103968441D01*
X147923700Y-103980663D01*
X148512750Y-103977600D01*
X148671000Y-103819350D01*
X148671000Y-102229000D01*
X148651000Y-102229000D01*
X148651000Y-101971000D01*
X148671000Y-101971000D01*
X148671000Y-101951000D01*
X148929000Y-101951000D01*
X148929000Y-101971000D01*
X148949000Y-101971000D01*
X148949000Y-102229000D01*
X148929000Y-102229000D01*
X148929000Y-103819350D01*
X149087250Y-103977600D01*
X149676300Y-103980663D01*
X149800390Y-103968441D01*
X149919711Y-103932246D01*
X150029678Y-103873467D01*
X150126064Y-103794364D01*
X150205167Y-103697978D01*
X150255499Y-103603815D01*
X150603400Y-103603815D01*
X150642126Y-103600001D01*
X150892896Y-103600001D01*
X151129075Y-103836181D01*
X151144736Y-103855264D01*
X151220871Y-103917746D01*
X151307733Y-103964175D01*
X151370649Y-103983260D01*
X151401982Y-103992765D01*
X151452764Y-103997767D01*
X151493093Y-104046907D01*
X151570651Y-104110558D01*
X151659137Y-104157854D01*
X151755150Y-104186980D01*
X151855000Y-104196814D01*
X152125000Y-104196814D01*
X152223133Y-104187149D01*
X152284183Y-104263629D01*
X152379489Y-104344030D01*
X152488649Y-104404294D01*
X152607469Y-104442103D01*
X152722750Y-104453000D01*
X152881000Y-104294750D01*
X152881000Y-103629000D01*
X153139000Y-103629000D01*
X153139000Y-104294750D01*
X153297250Y-104453000D01*
X153412531Y-104442103D01*
X153531351Y-104404294D01*
X153640511Y-104344030D01*
X153735817Y-104263629D01*
X153813607Y-104166179D01*
X153831994Y-104130629D01*
X153836371Y-104135817D01*
X153933821Y-104213607D01*
X154044574Y-104270890D01*
X154164374Y-104305465D01*
X154288618Y-104316005D01*
X154312750Y-104313000D01*
X154471000Y-104154750D01*
X154471000Y-103539000D01*
X154729000Y-103539000D01*
X154729000Y-104154750D01*
X154887250Y-104313000D01*
X154911382Y-104316005D01*
X155035626Y-104305465D01*
X155155426Y-104270890D01*
X155266179Y-104213607D01*
X155350000Y-104146696D01*
X155433821Y-104213607D01*
X155544574Y-104270890D01*
X155664374Y-104305465D01*
X155788618Y-104316005D01*
X155812750Y-104313000D01*
X155971000Y-104154750D01*
X155971000Y-103539000D01*
X154729000Y-103539000D01*
X154471000Y-103539000D01*
X153805250Y-103539000D01*
X153715250Y-103629000D01*
X153139000Y-103629000D01*
X152881000Y-103629000D01*
X152861000Y-103629000D01*
X152861000Y-103371000D01*
X152881000Y-103371000D01*
X152881000Y-103351000D01*
X153139000Y-103351000D01*
X153139000Y-103371000D01*
X153754750Y-103371000D01*
X153844750Y-103281000D01*
X154471000Y-103281000D01*
X154471000Y-103261000D01*
X154729000Y-103261000D01*
X154729000Y-103281000D01*
X155971000Y-103281000D01*
X155971000Y-103261000D01*
X156229000Y-103261000D01*
X156229000Y-103281000D01*
X156249000Y-103281000D01*
X156249000Y-103539000D01*
X156229000Y-103539000D01*
X156229000Y-104154750D01*
X156387250Y-104313000D01*
X156411382Y-104316005D01*
X156535626Y-104305465D01*
X156655426Y-104270890D01*
X156766179Y-104213607D01*
X156863629Y-104135817D01*
X156944030Y-104040511D01*
X157004294Y-103931351D01*
X157023533Y-103870889D01*
X157053093Y-103906907D01*
X157130651Y-103970558D01*
X157219137Y-104017854D01*
X157315150Y-104046980D01*
X157415000Y-104056814D01*
X157785000Y-104056814D01*
X157884850Y-104046980D01*
X157980863Y-104017854D01*
X157987305Y-104014411D01*
X158034076Y-104061182D01*
X158049737Y-104080265D01*
X158125872Y-104142747D01*
X158212734Y-104189176D01*
X158306984Y-104217766D01*
X158405001Y-104227420D01*
X158429561Y-104225001D01*
X159950439Y-104225001D01*
X159974999Y-104227420D01*
X159999559Y-104225001D01*
X160011337Y-104223841D01*
X160073016Y-104217766D01*
X160167266Y-104189176D01*
X160254128Y-104142747D01*
X160330263Y-104080265D01*
X160334584Y-104075000D01*
X160476331Y-104075000D01*
X160626059Y-104045217D01*
X160767100Y-103986796D01*
X160894034Y-103901982D01*
X161001982Y-103794034D01*
X161086796Y-103667100D01*
X161145217Y-103526059D01*
X161175000Y-103376331D01*
X161175000Y-103223669D01*
X161145217Y-103073941D01*
X161086796Y-102932900D01*
X161001982Y-102805966D01*
X160894034Y-102698018D01*
X160767100Y-102613204D01*
X160626059Y-102554783D01*
X160481148Y-102525958D01*
X160670919Y-102336188D01*
X160670928Y-102336177D01*
X161220087Y-101787019D01*
X161239165Y-101771363D01*
X161301647Y-101695228D01*
X161348076Y-101608366D01*
X161376666Y-101514116D01*
X161383901Y-101440659D01*
X161386320Y-101416099D01*
X161383901Y-101391539D01*
X161383901Y-100299549D01*
X161386319Y-100274999D01*
X161383901Y-100250449D01*
X161383901Y-100250440D01*
X161376666Y-100176983D01*
X161348076Y-100082733D01*
X161301647Y-99995871D01*
X161239165Y-99919736D01*
X161220081Y-99904074D01*
X161179828Y-99863821D01*
X161164164Y-99844735D01*
X161125000Y-99812594D01*
X161125000Y-99111704D01*
X161141355Y-99082580D01*
X161180025Y-98964038D01*
X161191900Y-98860249D01*
X161125000Y-98793349D01*
X161125000Y-98606649D01*
X161191900Y-98539749D01*
X161180025Y-98435960D01*
X161141355Y-98317418D01*
X161125000Y-98288294D01*
X161125000Y-97900000D01*
X161122598Y-97875614D01*
X161115485Y-97852165D01*
X161103934Y-97830554D01*
X161088388Y-97811612D01*
X161069446Y-97796066D01*
X161047835Y-97784515D01*
X161024386Y-97777402D01*
X161000000Y-97775000D01*
X160460766Y-97775000D01*
X160470890Y-97755426D01*
X160505465Y-97635626D01*
X160516005Y-97511382D01*
X160513000Y-97487250D01*
X160354750Y-97329000D01*
X159739000Y-97329000D01*
X159739000Y-97349000D01*
X159481000Y-97349000D01*
X159481000Y-97329000D01*
X159461000Y-97329000D01*
X159461000Y-97071000D01*
X159481000Y-97071000D01*
X159481000Y-97051000D01*
X159739000Y-97051000D01*
X159739000Y-97071000D01*
X160354750Y-97071000D01*
X160513000Y-96912750D01*
X160516005Y-96888618D01*
X160505465Y-96764374D01*
X160470890Y-96644574D01*
X160413607Y-96533821D01*
X160335817Y-96436371D01*
X160240511Y-96355970D01*
X160131351Y-96295706D01*
X160012531Y-96257897D01*
X159897250Y-96247000D01*
X159851928Y-96292322D01*
X159875000Y-96176331D01*
X159875000Y-96023669D01*
X159845217Y-95873941D01*
X159786796Y-95732900D01*
X159701982Y-95605966D01*
X159622830Y-95526814D01*
X159950000Y-95526814D01*
X160023513Y-95519574D01*
X160094200Y-95498131D01*
X160159347Y-95463309D01*
X160216448Y-95416448D01*
X160263309Y-95359347D01*
X160298131Y-95294200D01*
X160319574Y-95223513D01*
X160326814Y-95150000D01*
X160326814Y-93975000D01*
X160431255Y-93975000D01*
X160590644Y-93943296D01*
X160740784Y-93881106D01*
X160875907Y-93790819D01*
X160990819Y-93675907D01*
X161081106Y-93540784D01*
X161143296Y-93390644D01*
X161175000Y-93231255D01*
X161175000Y-93068745D01*
X161143296Y-92909356D01*
X161081106Y-92759216D01*
X160990819Y-92624093D01*
X160875907Y-92509181D01*
X160740784Y-92418894D01*
X160590644Y-92356704D01*
X160431255Y-92325000D01*
X160326814Y-92325000D01*
X160326814Y-91150000D01*
X160319574Y-91076487D01*
X160298131Y-91005800D01*
X160263309Y-90940653D01*
X160216448Y-90883552D01*
X160159347Y-90836691D01*
X160094200Y-90801869D01*
X160023513Y-90780426D01*
X159950000Y-90773186D01*
X158950000Y-90773186D01*
X158876487Y-90780426D01*
X158805800Y-90801869D01*
X158740653Y-90836691D01*
X158683552Y-90883552D01*
X158636691Y-90940653D01*
X158601869Y-91005800D01*
X158580426Y-91076487D01*
X158573186Y-91150000D01*
X158573186Y-92750000D01*
X158580426Y-92823513D01*
X158601869Y-92894200D01*
X158636691Y-92959347D01*
X158683552Y-93016448D01*
X158740653Y-93063309D01*
X158805800Y-93098131D01*
X158876487Y-93119574D01*
X158950000Y-93126814D01*
X158950001Y-93173186D01*
X158950000Y-93173186D01*
X158876487Y-93180426D01*
X158805800Y-93201869D01*
X158740653Y-93236691D01*
X158683552Y-93283552D01*
X158636691Y-93340653D01*
X158601869Y-93405800D01*
X158580426Y-93476487D01*
X158573186Y-93550000D01*
X158573186Y-94366574D01*
X158555264Y-94344736D01*
X158536186Y-94329079D01*
X158220928Y-94013823D01*
X158205264Y-93994736D01*
X158129129Y-93932254D01*
X158042267Y-93885825D01*
X157948017Y-93857235D01*
X157874560Y-93850000D01*
X157850000Y-93847581D01*
X157826814Y-93849865D01*
X157826814Y-93550000D01*
X157819574Y-93476487D01*
X157798131Y-93405800D01*
X157763309Y-93340653D01*
X157716448Y-93283552D01*
X157659347Y-93236691D01*
X157594200Y-93201869D01*
X157523513Y-93180426D01*
X157450000Y-93173186D01*
X157450000Y-93126814D01*
X157523513Y-93119574D01*
X157594200Y-93098131D01*
X157659347Y-93063309D01*
X157716448Y-93016448D01*
X157763309Y-92959347D01*
X157798131Y-92894200D01*
X157819574Y-92823513D01*
X157826814Y-92750000D01*
X157826814Y-91150000D01*
X157819574Y-91076487D01*
X157798131Y-91005800D01*
X157763309Y-90940653D01*
X157716448Y-90883552D01*
X157659347Y-90836691D01*
X157594200Y-90801869D01*
X157523513Y-90780426D01*
X157450000Y-90773186D01*
X156450000Y-90773186D01*
X156376487Y-90780426D01*
X156305800Y-90801869D01*
X156240653Y-90836691D01*
X156183552Y-90883552D01*
X156136691Y-90940653D01*
X156101869Y-91005800D01*
X156080426Y-91076487D01*
X156073186Y-91150000D01*
X156073186Y-92750000D01*
X156080426Y-92823513D01*
X156101869Y-92894200D01*
X156136691Y-92959347D01*
X156183552Y-93016448D01*
X156240653Y-93063309D01*
X156305800Y-93098131D01*
X156376487Y-93119574D01*
X156450000Y-93126814D01*
X156450001Y-93173186D01*
X156450000Y-93173186D01*
X156376487Y-93180426D01*
X156305800Y-93201869D01*
X156240653Y-93236691D01*
X156183552Y-93283552D01*
X156136691Y-93340653D01*
X156101869Y-93405800D01*
X156080426Y-93476487D01*
X156073186Y-93550000D01*
X156073186Y-93674304D01*
X156026059Y-93654783D01*
X155876331Y-93625000D01*
X155723669Y-93625000D01*
X155573941Y-93654783D01*
X155432900Y-93713204D01*
X155326814Y-93784088D01*
X155326814Y-93550000D01*
X155319574Y-93476487D01*
X155298131Y-93405800D01*
X155263309Y-93340653D01*
X155216448Y-93283552D01*
X155159347Y-93236691D01*
X155094200Y-93201869D01*
X155023513Y-93180426D01*
X154950000Y-93173186D01*
X154950000Y-93126814D01*
X155023513Y-93119574D01*
X155094200Y-93098131D01*
X155159347Y-93063309D01*
X155216448Y-93016448D01*
X155263309Y-92959347D01*
X155298131Y-92894200D01*
X155319574Y-92823513D01*
X155326814Y-92750000D01*
X155326814Y-91150000D01*
X155319574Y-91076487D01*
X155298131Y-91005800D01*
X155263309Y-90940653D01*
X155216448Y-90883552D01*
X155159347Y-90836691D01*
X155094200Y-90801869D01*
X155023513Y-90780426D01*
X154950000Y-90773186D01*
X153950000Y-90773186D01*
X153876487Y-90780426D01*
X153805800Y-90801869D01*
X153740653Y-90836691D01*
X153683552Y-90883552D01*
X153636691Y-90940653D01*
X153601869Y-91005800D01*
X153580426Y-91076487D01*
X153579036Y-91090601D01*
X153551059Y-91079013D01*
X153401331Y-91049230D01*
X153248669Y-91049230D01*
X153098941Y-91079013D01*
X152957900Y-91137434D01*
X152830966Y-91222248D01*
X152733214Y-91320000D01*
X152704560Y-91320000D01*
X152680000Y-91317581D01*
X152655440Y-91320000D01*
X152139910Y-91320000D01*
X152135443Y-91314557D01*
X152057126Y-91250285D01*
X151967776Y-91202526D01*
X151870825Y-91173116D01*
X151770000Y-91163186D01*
X151430000Y-91163186D01*
X151329175Y-91173116D01*
X151232224Y-91202526D01*
X151142874Y-91250285D01*
X151064557Y-91314557D01*
X151044928Y-91338475D01*
X150987733Y-91355825D01*
X150900871Y-91402254D01*
X150824736Y-91464736D01*
X150809075Y-91483819D01*
X150762336Y-91530558D01*
X150739347Y-91511691D01*
X150674200Y-91476869D01*
X150603513Y-91455426D01*
X150530000Y-91448186D01*
X149470000Y-91448186D01*
X149396487Y-91455426D01*
X149325800Y-91476869D01*
X149260653Y-91511691D01*
X149203552Y-91558552D01*
X149156691Y-91615653D01*
X149121869Y-91680800D01*
X149100426Y-91751487D01*
X149093186Y-91825000D01*
X149093186Y-92265367D01*
X149020236Y-92325236D01*
X148941133Y-92421622D01*
X148882354Y-92531589D01*
X148846159Y-92650910D01*
X148833937Y-92775000D01*
X148837000Y-92812750D01*
X148995250Y-92971000D01*
X149871000Y-92971000D01*
X149871000Y-92951000D01*
X150129000Y-92951000D01*
X150129000Y-92971000D01*
X150149000Y-92971000D01*
X150149000Y-93229000D01*
X150129000Y-93229000D01*
X150129000Y-93249000D01*
X149871000Y-93249000D01*
X149871000Y-93229000D01*
X148995250Y-93229000D01*
X148837000Y-93387250D01*
X148833937Y-93425000D01*
X148846159Y-93549090D01*
X148882354Y-93668411D01*
X148941133Y-93778378D01*
X149020236Y-93874764D01*
X149093186Y-93934633D01*
X149093186Y-94375000D01*
X149095648Y-94400000D01*
X148704352Y-94400000D01*
X148706814Y-94375000D01*
X148706814Y-93725000D01*
X148699574Y-93651487D01*
X148678131Y-93580800D01*
X148643309Y-93515653D01*
X148596448Y-93458552D01*
X148539347Y-93411691D01*
X148474200Y-93376869D01*
X148403513Y-93355426D01*
X148330000Y-93348186D01*
X147270000Y-93348186D01*
X147196487Y-93355426D01*
X147137579Y-93373296D01*
X147143000Y-93307250D01*
X146984750Y-93149000D01*
X146329000Y-93149000D01*
X146329000Y-93169000D01*
X146071000Y-93169000D01*
X146071000Y-93149000D01*
X146051000Y-93149000D01*
X146051000Y-92891000D01*
X146071000Y-92891000D01*
X146071000Y-92265250D01*
X146329000Y-92265250D01*
X146329000Y-92891000D01*
X146984750Y-92891000D01*
X147078110Y-92797640D01*
X147125800Y-92823131D01*
X147196487Y-92844574D01*
X147270000Y-92851814D01*
X148330000Y-92851814D01*
X148403513Y-92844574D01*
X148474200Y-92823131D01*
X148539347Y-92788309D01*
X148596448Y-92741448D01*
X148643309Y-92684347D01*
X148678131Y-92619200D01*
X148699574Y-92548513D01*
X148706814Y-92475000D01*
X148706814Y-91825000D01*
X148699574Y-91751487D01*
X148678131Y-91680800D01*
X148643309Y-91615653D01*
X148596448Y-91558552D01*
X148539347Y-91511691D01*
X148474200Y-91476869D01*
X148403513Y-91455426D01*
X148330000Y-91448186D01*
X147270000Y-91448186D01*
X147196487Y-91455426D01*
X147125800Y-91476869D01*
X147060653Y-91511691D01*
X147003552Y-91558552D01*
X146956691Y-91615653D01*
X146921869Y-91680800D01*
X146900426Y-91751487D01*
X146893186Y-91825000D01*
X146893186Y-92235759D01*
X146860312Y-92209097D01*
X146750007Y-92150956D01*
X146630478Y-92115451D01*
X146506320Y-92103948D01*
X146487250Y-92107000D01*
X146329000Y-92265250D01*
X146071000Y-92265250D01*
X145912750Y-92107000D01*
X145893680Y-92103948D01*
X145769522Y-92115451D01*
X145649993Y-92150956D01*
X145596788Y-92179000D01*
X144529000Y-92179000D01*
X144529000Y-92199000D01*
X144271000Y-92199000D01*
X144271000Y-92179000D01*
X144251000Y-92179000D01*
X144251000Y-91921000D01*
X144271000Y-91921000D01*
X144271000Y-91075250D01*
X144529000Y-91075250D01*
X144529000Y-91921000D01*
X145599750Y-91921000D01*
X145758000Y-91762750D01*
X145761063Y-91550000D01*
X145748841Y-91425910D01*
X145712646Y-91306589D01*
X145653867Y-91196622D01*
X145574764Y-91100236D01*
X145478378Y-91021133D01*
X145368411Y-90962354D01*
X145249090Y-90926159D01*
X145125000Y-90913937D01*
X144687250Y-90917000D01*
X144529000Y-91075250D01*
X144271000Y-91075250D01*
X144112750Y-90917000D01*
X143675000Y-90913937D01*
X143550910Y-90926159D01*
X143431589Y-90962354D01*
X143359454Y-91000911D01*
X143312359Y-90942845D01*
X143216432Y-90863186D01*
X143106807Y-90803773D01*
X142987697Y-90766887D01*
X142867250Y-90757000D01*
X142709000Y-90915250D01*
X142709000Y-91571000D01*
X142729000Y-91571000D01*
X142729000Y-91829000D01*
X142709000Y-91829000D01*
X142709000Y-91849000D01*
X142451000Y-91849000D01*
X142451000Y-91829000D01*
X142431000Y-91829000D01*
X142431000Y-91571000D01*
X142451000Y-91571000D01*
X142451000Y-90915250D01*
X142292750Y-90757000D01*
X142172303Y-90766887D01*
X142053193Y-90803773D01*
X141943568Y-90863186D01*
X141850523Y-90940452D01*
X141776939Y-90880064D01*
X141690077Y-90833635D01*
X141595827Y-90805045D01*
X141522370Y-90797810D01*
X141497810Y-90795391D01*
X141473250Y-90797810D01*
X139861459Y-90797810D01*
X139836899Y-90795391D01*
X139812339Y-90797810D01*
X139738882Y-90805045D01*
X139644632Y-90833635D01*
X139557770Y-90880064D01*
X139481635Y-90942546D01*
X139465973Y-90961630D01*
X139433952Y-90993651D01*
X139410187Y-90990700D01*
X139251937Y-91148950D01*
X139251937Y-91341059D01*
X139247937Y-91381671D01*
X139247937Y-91148950D01*
X139089687Y-90990700D01*
X138976210Y-91004792D01*
X138858287Y-91045309D01*
X138750533Y-91108053D01*
X138657091Y-91190613D01*
X138614206Y-91246932D01*
X138550187Y-91253237D01*
X138479500Y-91274680D01*
X138414353Y-91309502D01*
X138357252Y-91356363D01*
X138310391Y-91413464D01*
X138275569Y-91478611D01*
X138271811Y-91490998D01*
X138184752Y-91490998D01*
X138343000Y-91332750D01*
X138333113Y-91212303D01*
X138296227Y-91093193D01*
X138236814Y-90983568D01*
X138157155Y-90887641D01*
X138060312Y-90809097D01*
X137950007Y-90750956D01*
X137830478Y-90715451D01*
X137706320Y-90703948D01*
X137687250Y-90707000D01*
X137529000Y-90865250D01*
X137529000Y-91491000D01*
X137549000Y-91491000D01*
X137549000Y-91749000D01*
X137529000Y-91749000D01*
X137529000Y-91769000D01*
X137271000Y-91769000D01*
X137271000Y-91749000D01*
X136329000Y-91749000D01*
X136329000Y-91769000D01*
X136071000Y-91769000D01*
X136071000Y-91749000D01*
X135415250Y-91749000D01*
X135257000Y-91907250D01*
X135266887Y-92027697D01*
X135303773Y-92146807D01*
X135363186Y-92256432D01*
X135442845Y-92352359D01*
X135515976Y-92411672D01*
X135513186Y-92440000D01*
X135513186Y-92720000D01*
X135516159Y-92750189D01*
X132674371Y-92750189D01*
X132649811Y-92747770D01*
X132625251Y-92750189D01*
X131746205Y-92750189D01*
X131694034Y-92698018D01*
X131567100Y-92613204D01*
X131426059Y-92554783D01*
X131276331Y-92525000D01*
X131123669Y-92525000D01*
X130973941Y-92554783D01*
X130832900Y-92613204D01*
X130705966Y-92698018D01*
X130598018Y-92805966D01*
X130513204Y-92932900D01*
X130454783Y-93073941D01*
X130433083Y-93183032D01*
X130348007Y-93157225D01*
X130274550Y-93149990D01*
X130249990Y-93147571D01*
X130225430Y-93149990D01*
X128157095Y-93149990D01*
X128045928Y-93038823D01*
X128030263Y-93019735D01*
X127954128Y-92957253D01*
X127867266Y-92910824D01*
X127773016Y-92882234D01*
X127763899Y-92881336D01*
X127674999Y-92872580D01*
X127650439Y-92874999D01*
X126582105Y-92874999D01*
X126458920Y-92751814D01*
X126725000Y-92751814D01*
X126837531Y-92740731D01*
X126945737Y-92707907D01*
X127045461Y-92654603D01*
X127132869Y-92582869D01*
X127204603Y-92495461D01*
X127255628Y-92400000D01*
X132885300Y-92400000D01*
X132898018Y-92419034D01*
X133005966Y-92526982D01*
X133132900Y-92611796D01*
X133273941Y-92670217D01*
X133423669Y-92700000D01*
X133576331Y-92700000D01*
X133726059Y-92670217D01*
X133867100Y-92611796D01*
X133994034Y-92526982D01*
X134101982Y-92419034D01*
X134186796Y-92292100D01*
X134245217Y-92151059D01*
X134275000Y-92001331D01*
X134275000Y-91848669D01*
X134245217Y-91698941D01*
X134186796Y-91557900D01*
X134101982Y-91430966D01*
X134003766Y-91332750D01*
X135257000Y-91332750D01*
X135415250Y-91491000D01*
X136071000Y-91491000D01*
X136071000Y-90865250D01*
X136329000Y-90865250D01*
X136329000Y-91491000D01*
X137271000Y-91491000D01*
X137271000Y-90865250D01*
X137112750Y-90707000D01*
X137093680Y-90703948D01*
X136969522Y-90715451D01*
X136849993Y-90750956D01*
X136800000Y-90777307D01*
X136750007Y-90750956D01*
X136630478Y-90715451D01*
X136506320Y-90703948D01*
X136487250Y-90707000D01*
X136329000Y-90865250D01*
X136071000Y-90865250D01*
X135912750Y-90707000D01*
X135893680Y-90703948D01*
X135769522Y-90715451D01*
X135649993Y-90750956D01*
X135539688Y-90809097D01*
X135442845Y-90887641D01*
X135363186Y-90983568D01*
X135303773Y-91093193D01*
X135266887Y-91212303D01*
X135257000Y-91332750D01*
X134003766Y-91332750D01*
X133994034Y-91323018D01*
X133867100Y-91238204D01*
X133726059Y-91179783D01*
X133576331Y-91150000D01*
X133423669Y-91150000D01*
X133273941Y-91179783D01*
X133132900Y-91238204D01*
X133005966Y-91323018D01*
X132928984Y-91400000D01*
X127255628Y-91400000D01*
X127204603Y-91304539D01*
X127132869Y-91217131D01*
X127045461Y-91145397D01*
X126945737Y-91092093D01*
X126837531Y-91059269D01*
X126725000Y-91048186D01*
X126325000Y-91048186D01*
X126212469Y-91059269D01*
X126104263Y-91092093D01*
X126004539Y-91145397D01*
X125917131Y-91217131D01*
X125845397Y-91304539D01*
X125792093Y-91404263D01*
X125759269Y-91512469D01*
X125748186Y-91625000D01*
X125748186Y-92175000D01*
X125759269Y-92287531D01*
X125792093Y-92395737D01*
X125845397Y-92495461D01*
X125861424Y-92514990D01*
X125538576Y-92514990D01*
X125554603Y-92495461D01*
X125607907Y-92395737D01*
X125640731Y-92287531D01*
X125651814Y-92175000D01*
X125651814Y-91625000D01*
X125640731Y-91512469D01*
X125607907Y-91404263D01*
X125554603Y-91304539D01*
X125482869Y-91217131D01*
X125395461Y-91145397D01*
X125295737Y-91092093D01*
X125187531Y-91059269D01*
X125075000Y-91048186D01*
X124675000Y-91048186D01*
X124562469Y-91059269D01*
X124454263Y-91092093D01*
X124354539Y-91145397D01*
X124267131Y-91217131D01*
X124195397Y-91304539D01*
X124142093Y-91404263D01*
X124109269Y-91512469D01*
X124105573Y-91550000D01*
X124026814Y-91550000D01*
X124019574Y-91476487D01*
X123998131Y-91405800D01*
X123963309Y-91340653D01*
X123916448Y-91283552D01*
X123859347Y-91236691D01*
X123794200Y-91201869D01*
X123723513Y-91180426D01*
X123650000Y-91173186D01*
X122850000Y-91173186D01*
X122776487Y-91180426D01*
X122705800Y-91201869D01*
X122700000Y-91204969D01*
X122694200Y-91201869D01*
X122623513Y-91180426D01*
X122550000Y-91173186D01*
X121750000Y-91173186D01*
X121676487Y-91180426D01*
X121605800Y-91201869D01*
X121540653Y-91236691D01*
X121487564Y-91280259D01*
X121426059Y-91254783D01*
X121276331Y-91225000D01*
X121123669Y-91225000D01*
X120973941Y-91254783D01*
X120832900Y-91313204D01*
X120705966Y-91398018D01*
X120598018Y-91505966D01*
X120513204Y-91632900D01*
X120454783Y-91773941D01*
X120425000Y-91923669D01*
X120425000Y-92076331D01*
X120454783Y-92226059D01*
X120513204Y-92367100D01*
X120598018Y-92494034D01*
X120705966Y-92601982D01*
X120832900Y-92686796D01*
X120973941Y-92745217D01*
X121123669Y-92775000D01*
X121276331Y-92775000D01*
X121426059Y-92745217D01*
X121428580Y-92744173D01*
X121436691Y-92759347D01*
X121470054Y-92800000D01*
X121436691Y-92840653D01*
X121401869Y-92905800D01*
X121380426Y-92976487D01*
X121373186Y-93050000D01*
X121373186Y-94050000D01*
X121373473Y-94052912D01*
X121305966Y-94098018D01*
X121198018Y-94205966D01*
X121113204Y-94332900D01*
X121054783Y-94473941D01*
X121025000Y-94623669D01*
X121025000Y-94776331D01*
X121054783Y-94926059D01*
X121113204Y-95067100D01*
X121173732Y-95157687D01*
X121149399Y-95165069D01*
X121084252Y-95199891D01*
X121027151Y-95246752D01*
X120980290Y-95303853D01*
X120945468Y-95369000D01*
X120924025Y-95439687D01*
X120916785Y-95513200D01*
X120916785Y-95868800D01*
X120924025Y-95942313D01*
X120944255Y-96009000D01*
X120924025Y-96075687D01*
X120916785Y-96149200D01*
X120916785Y-96504800D01*
X120924025Y-96578313D01*
X120945468Y-96649000D01*
X120969409Y-96693791D01*
X120952474Y-96702348D01*
X120854294Y-96779214D01*
X120772996Y-96873756D01*
X120711705Y-96982343D01*
X120672776Y-97100800D01*
X120660599Y-97205950D01*
X120818849Y-97364200D01*
X120881135Y-97364200D01*
X120854294Y-97385214D01*
X120772996Y-97479756D01*
X120726477Y-97562172D01*
X120660599Y-97628050D01*
X120671247Y-97720000D01*
X120660599Y-97811950D01*
X120726477Y-97877828D01*
X120772996Y-97960244D01*
X120854294Y-98054786D01*
X120881135Y-98075800D01*
X120818849Y-98075800D01*
X120660599Y-98234050D01*
X120672776Y-98339200D01*
X120711705Y-98457657D01*
X120772996Y-98566244D01*
X120854294Y-98660786D01*
X120919820Y-98712087D01*
X120916785Y-98742900D01*
X120916785Y-99581100D01*
X120924025Y-99654613D01*
X120945468Y-99725300D01*
X120980290Y-99790447D01*
X121027151Y-99847548D01*
X121084252Y-99894409D01*
X121149399Y-99929231D01*
X121220086Y-99950674D01*
X121293599Y-99957914D01*
X122106399Y-99957914D01*
X122179912Y-99950674D01*
X122250599Y-99929231D01*
X122315746Y-99894409D01*
X122372847Y-99847548D01*
X122400000Y-99814461D01*
X122400000Y-100454597D01*
X122353093Y-100493093D01*
X122300000Y-100557786D01*
X122246907Y-100493093D01*
X122169349Y-100429442D01*
X122080863Y-100382146D01*
X121984850Y-100353020D01*
X121885000Y-100343186D01*
X121515000Y-100343186D01*
X121415150Y-100353020D01*
X121319137Y-100382146D01*
X121230651Y-100429442D01*
X121156862Y-100490000D01*
X121034549Y-100490000D01*
X121009999Y-100487582D01*
X120985449Y-100490000D01*
X120985440Y-100490000D01*
X120911983Y-100497235D01*
X120817733Y-100525825D01*
X120730871Y-100572254D01*
X120654736Y-100634736D01*
X120639074Y-100653820D01*
X120563818Y-100729077D01*
X120544737Y-100744736D01*
X120482255Y-100820871D01*
X120444956Y-100890653D01*
X120435826Y-100907733D01*
X120407235Y-101001983D01*
X120400000Y-101075439D01*
X120400000Y-91019565D01*
X120413309Y-90883833D01*
X120447047Y-90772087D01*
X120501843Y-90669029D01*
X120575620Y-90578570D01*
X120665556Y-90504168D01*
X120768236Y-90448650D01*
X120879735Y-90414135D01*
X121014214Y-90400000D01*
X160980435Y-90400000D01*
X161116167Y-90413309D01*
G04 #@! TA.AperFunction,Conductor*
D29*
G36*
X161116167Y-90413309D02*
G01*
X161227913Y-90447047D01*
X161330971Y-90501843D01*
X161421430Y-90575620D01*
X161495832Y-90665556D01*
X161551350Y-90768236D01*
X161585865Y-90879735D01*
X161600000Y-91014214D01*
X161600001Y-103980426D01*
X161586691Y-104116167D01*
X161552953Y-104227912D01*
X161498156Y-104330972D01*
X161424380Y-104421430D01*
X161334444Y-104495832D01*
X161231764Y-104551350D01*
X161120265Y-104585865D01*
X160985785Y-104600000D01*
X145444731Y-104600000D01*
X145574581Y-104517014D01*
X145728814Y-104368943D01*
X145851196Y-104193627D01*
X145937024Y-103997804D01*
X145983000Y-103789000D01*
X145983000Y-103423672D01*
X146070765Y-103441130D01*
X146223427Y-103441130D01*
X146373155Y-103411347D01*
X146388753Y-103404886D01*
X146414706Y-103483858D01*
X146475997Y-103592445D01*
X146557295Y-103686987D01*
X146655475Y-103763853D01*
X146766764Y-103820088D01*
X146886886Y-103853530D01*
X147011224Y-103862896D01*
X147115750Y-103860001D01*
X147274000Y-103701751D01*
X147274000Y-103103813D01*
X147288407Y-103103813D01*
X147287637Y-103344600D01*
X147299859Y-103468690D01*
X147336054Y-103588011D01*
X147394833Y-103697978D01*
X147473936Y-103794364D01*
X147570322Y-103873467D01*
X147680289Y-103932246D01*
X147799610Y-103968441D01*
X147923700Y-103980663D01*
X148512750Y-103977600D01*
X148671000Y-103819350D01*
X148671000Y-102229000D01*
X148651000Y-102229000D01*
X148651000Y-101971000D01*
X148671000Y-101971000D01*
X148671000Y-101951000D01*
X148929000Y-101951000D01*
X148929000Y-101971000D01*
X148949000Y-101971000D01*
X148949000Y-102229000D01*
X148929000Y-102229000D01*
X148929000Y-103819350D01*
X149087250Y-103977600D01*
X149676300Y-103980663D01*
X149800390Y-103968441D01*
X149919711Y-103932246D01*
X150029678Y-103873467D01*
X150126064Y-103794364D01*
X150205167Y-103697978D01*
X150255499Y-103603815D01*
X150603400Y-103603815D01*
X150642126Y-103600001D01*
X150892896Y-103600001D01*
X151129075Y-103836181D01*
X151144736Y-103855264D01*
X151220871Y-103917746D01*
X151307733Y-103964175D01*
X151370649Y-103983260D01*
X151401982Y-103992765D01*
X151452764Y-103997767D01*
X151493093Y-104046907D01*
X151570651Y-104110558D01*
X151659137Y-104157854D01*
X151755150Y-104186980D01*
X151855000Y-104196814D01*
X152125000Y-104196814D01*
X152223133Y-104187149D01*
X152284183Y-104263629D01*
X152379489Y-104344030D01*
X152488649Y-104404294D01*
X152607469Y-104442103D01*
X152722750Y-104453000D01*
X152881000Y-104294750D01*
X152881000Y-103629000D01*
X153139000Y-103629000D01*
X153139000Y-104294750D01*
X153297250Y-104453000D01*
X153412531Y-104442103D01*
X153531351Y-104404294D01*
X153640511Y-104344030D01*
X153735817Y-104263629D01*
X153813607Y-104166179D01*
X153831994Y-104130629D01*
X153836371Y-104135817D01*
X153933821Y-104213607D01*
X154044574Y-104270890D01*
X154164374Y-104305465D01*
X154288618Y-104316005D01*
X154312750Y-104313000D01*
X154471000Y-104154750D01*
X154471000Y-103539000D01*
X154729000Y-103539000D01*
X154729000Y-104154750D01*
X154887250Y-104313000D01*
X154911382Y-104316005D01*
X155035626Y-104305465D01*
X155155426Y-104270890D01*
X155266179Y-104213607D01*
X155350000Y-104146696D01*
X155433821Y-104213607D01*
X155544574Y-104270890D01*
X155664374Y-104305465D01*
X155788618Y-104316005D01*
X155812750Y-104313000D01*
X155971000Y-104154750D01*
X155971000Y-103539000D01*
X154729000Y-103539000D01*
X154471000Y-103539000D01*
X153805250Y-103539000D01*
X153715250Y-103629000D01*
X153139000Y-103629000D01*
X152881000Y-103629000D01*
X152861000Y-103629000D01*
X152861000Y-103371000D01*
X152881000Y-103371000D01*
X152881000Y-103351000D01*
X153139000Y-103351000D01*
X153139000Y-103371000D01*
X153754750Y-103371000D01*
X153844750Y-103281000D01*
X154471000Y-103281000D01*
X154471000Y-103261000D01*
X154729000Y-103261000D01*
X154729000Y-103281000D01*
X155971000Y-103281000D01*
X155971000Y-103261000D01*
X156229000Y-103261000D01*
X156229000Y-103281000D01*
X156249000Y-103281000D01*
X156249000Y-103539000D01*
X156229000Y-103539000D01*
X156229000Y-104154750D01*
X156387250Y-104313000D01*
X156411382Y-104316005D01*
X156535626Y-104305465D01*
X156655426Y-104270890D01*
X156766179Y-104213607D01*
X156863629Y-104135817D01*
X156944030Y-104040511D01*
X157004294Y-103931351D01*
X157023533Y-103870889D01*
X157053093Y-103906907D01*
X157130651Y-103970558D01*
X157219137Y-104017854D01*
X157315150Y-104046980D01*
X157415000Y-104056814D01*
X157785000Y-104056814D01*
X157884850Y-104046980D01*
X157980863Y-104017854D01*
X157987305Y-104014411D01*
X158034076Y-104061182D01*
X158049737Y-104080265D01*
X158125872Y-104142747D01*
X158212734Y-104189176D01*
X158306984Y-104217766D01*
X158405001Y-104227420D01*
X158429561Y-104225001D01*
X159950439Y-104225001D01*
X159974999Y-104227420D01*
X159999559Y-104225001D01*
X160011337Y-104223841D01*
X160073016Y-104217766D01*
X160167266Y-104189176D01*
X160254128Y-104142747D01*
X160330263Y-104080265D01*
X160334584Y-104075000D01*
X160476331Y-104075000D01*
X160626059Y-104045217D01*
X160767100Y-103986796D01*
X160894034Y-103901982D01*
X161001982Y-103794034D01*
X161086796Y-103667100D01*
X161145217Y-103526059D01*
X161175000Y-103376331D01*
X161175000Y-103223669D01*
X161145217Y-103073941D01*
X161086796Y-102932900D01*
X161001982Y-102805966D01*
X160894034Y-102698018D01*
X160767100Y-102613204D01*
X160626059Y-102554783D01*
X160481148Y-102525958D01*
X160670919Y-102336188D01*
X160670928Y-102336177D01*
X161220087Y-101787019D01*
X161239165Y-101771363D01*
X161301647Y-101695228D01*
X161348076Y-101608366D01*
X161376666Y-101514116D01*
X161383901Y-101440659D01*
X161386320Y-101416099D01*
X161383901Y-101391539D01*
X161383901Y-100299549D01*
X161386319Y-100274999D01*
X161383901Y-100250449D01*
X161383901Y-100250440D01*
X161376666Y-100176983D01*
X161348076Y-100082733D01*
X161301647Y-99995871D01*
X161239165Y-99919736D01*
X161220081Y-99904074D01*
X161179828Y-99863821D01*
X161164164Y-99844735D01*
X161125000Y-99812594D01*
X161125000Y-99111704D01*
X161141355Y-99082580D01*
X161180025Y-98964038D01*
X161191900Y-98860249D01*
X161125000Y-98793349D01*
X161125000Y-98606649D01*
X161191900Y-98539749D01*
X161180025Y-98435960D01*
X161141355Y-98317418D01*
X161125000Y-98288294D01*
X161125000Y-97900000D01*
X161122598Y-97875614D01*
X161115485Y-97852165D01*
X161103934Y-97830554D01*
X161088388Y-97811612D01*
X161069446Y-97796066D01*
X161047835Y-97784515D01*
X161024386Y-97777402D01*
X161000000Y-97775000D01*
X160460766Y-97775000D01*
X160470890Y-97755426D01*
X160505465Y-97635626D01*
X160516005Y-97511382D01*
X160513000Y-97487250D01*
X160354750Y-97329000D01*
X159739000Y-97329000D01*
X159739000Y-97349000D01*
X159481000Y-97349000D01*
X159481000Y-97329000D01*
X159461000Y-97329000D01*
X159461000Y-97071000D01*
X159481000Y-97071000D01*
X159481000Y-97051000D01*
X159739000Y-97051000D01*
X159739000Y-97071000D01*
X160354750Y-97071000D01*
X160513000Y-96912750D01*
X160516005Y-96888618D01*
X160505465Y-96764374D01*
X160470890Y-96644574D01*
X160413607Y-96533821D01*
X160335817Y-96436371D01*
X160240511Y-96355970D01*
X160131351Y-96295706D01*
X160012531Y-96257897D01*
X159897250Y-96247000D01*
X159851928Y-96292322D01*
X159875000Y-96176331D01*
X159875000Y-96023669D01*
X159845217Y-95873941D01*
X159786796Y-95732900D01*
X159701982Y-95605966D01*
X159622830Y-95526814D01*
X159950000Y-95526814D01*
X160023513Y-95519574D01*
X160094200Y-95498131D01*
X160159347Y-95463309D01*
X160216448Y-95416448D01*
X160263309Y-95359347D01*
X160298131Y-95294200D01*
X160319574Y-95223513D01*
X160326814Y-95150000D01*
X160326814Y-93975000D01*
X160431255Y-93975000D01*
X160590644Y-93943296D01*
X160740784Y-93881106D01*
X160875907Y-93790819D01*
X160990819Y-93675907D01*
X161081106Y-93540784D01*
X161143296Y-93390644D01*
X161175000Y-93231255D01*
X161175000Y-93068745D01*
X161143296Y-92909356D01*
X161081106Y-92759216D01*
X160990819Y-92624093D01*
X160875907Y-92509181D01*
X160740784Y-92418894D01*
X160590644Y-92356704D01*
X160431255Y-92325000D01*
X160326814Y-92325000D01*
X160326814Y-91150000D01*
X160319574Y-91076487D01*
X160298131Y-91005800D01*
X160263309Y-90940653D01*
X160216448Y-90883552D01*
X160159347Y-90836691D01*
X160094200Y-90801869D01*
X160023513Y-90780426D01*
X159950000Y-90773186D01*
X158950000Y-90773186D01*
X158876487Y-90780426D01*
X158805800Y-90801869D01*
X158740653Y-90836691D01*
X158683552Y-90883552D01*
X158636691Y-90940653D01*
X158601869Y-91005800D01*
X158580426Y-91076487D01*
X158573186Y-91150000D01*
X158573186Y-92750000D01*
X158580426Y-92823513D01*
X158601869Y-92894200D01*
X158636691Y-92959347D01*
X158683552Y-93016448D01*
X158740653Y-93063309D01*
X158805800Y-93098131D01*
X158876487Y-93119574D01*
X158950000Y-93126814D01*
X158950001Y-93173186D01*
X158950000Y-93173186D01*
X158876487Y-93180426D01*
X158805800Y-93201869D01*
X158740653Y-93236691D01*
X158683552Y-93283552D01*
X158636691Y-93340653D01*
X158601869Y-93405800D01*
X158580426Y-93476487D01*
X158573186Y-93550000D01*
X158573186Y-94366574D01*
X158555264Y-94344736D01*
X158536186Y-94329079D01*
X158220928Y-94013823D01*
X158205264Y-93994736D01*
X158129129Y-93932254D01*
X158042267Y-93885825D01*
X157948017Y-93857235D01*
X157874560Y-93850000D01*
X157850000Y-93847581D01*
X157826814Y-93849865D01*
X157826814Y-93550000D01*
X157819574Y-93476487D01*
X157798131Y-93405800D01*
X157763309Y-93340653D01*
X157716448Y-93283552D01*
X157659347Y-93236691D01*
X157594200Y-93201869D01*
X157523513Y-93180426D01*
X157450000Y-93173186D01*
X157450000Y-93126814D01*
X157523513Y-93119574D01*
X157594200Y-93098131D01*
X157659347Y-93063309D01*
X157716448Y-93016448D01*
X157763309Y-92959347D01*
X157798131Y-92894200D01*
X157819574Y-92823513D01*
X157826814Y-92750000D01*
X157826814Y-91150000D01*
X157819574Y-91076487D01*
X157798131Y-91005800D01*
X157763309Y-90940653D01*
X157716448Y-90883552D01*
X157659347Y-90836691D01*
X157594200Y-90801869D01*
X157523513Y-90780426D01*
X157450000Y-90773186D01*
X156450000Y-90773186D01*
X156376487Y-90780426D01*
X156305800Y-90801869D01*
X156240653Y-90836691D01*
X156183552Y-90883552D01*
X156136691Y-90940653D01*
X156101869Y-91005800D01*
X156080426Y-91076487D01*
X156073186Y-91150000D01*
X156073186Y-92750000D01*
X156080426Y-92823513D01*
X156101869Y-92894200D01*
X156136691Y-92959347D01*
X156183552Y-93016448D01*
X156240653Y-93063309D01*
X156305800Y-93098131D01*
X156376487Y-93119574D01*
X156450000Y-93126814D01*
X156450001Y-93173186D01*
X156450000Y-93173186D01*
X156376487Y-93180426D01*
X156305800Y-93201869D01*
X156240653Y-93236691D01*
X156183552Y-93283552D01*
X156136691Y-93340653D01*
X156101869Y-93405800D01*
X156080426Y-93476487D01*
X156073186Y-93550000D01*
X156073186Y-93674304D01*
X156026059Y-93654783D01*
X155876331Y-93625000D01*
X155723669Y-93625000D01*
X155573941Y-93654783D01*
X155432900Y-93713204D01*
X155326814Y-93784088D01*
X155326814Y-93550000D01*
X155319574Y-93476487D01*
X155298131Y-93405800D01*
X155263309Y-93340653D01*
X155216448Y-93283552D01*
X155159347Y-93236691D01*
X155094200Y-93201869D01*
X155023513Y-93180426D01*
X154950000Y-93173186D01*
X154950000Y-93126814D01*
X155023513Y-93119574D01*
X155094200Y-93098131D01*
X155159347Y-93063309D01*
X155216448Y-93016448D01*
X155263309Y-92959347D01*
X155298131Y-92894200D01*
X155319574Y-92823513D01*
X155326814Y-92750000D01*
X155326814Y-91150000D01*
X155319574Y-91076487D01*
X155298131Y-91005800D01*
X155263309Y-90940653D01*
X155216448Y-90883552D01*
X155159347Y-90836691D01*
X155094200Y-90801869D01*
X155023513Y-90780426D01*
X154950000Y-90773186D01*
X153950000Y-90773186D01*
X153876487Y-90780426D01*
X153805800Y-90801869D01*
X153740653Y-90836691D01*
X153683552Y-90883552D01*
X153636691Y-90940653D01*
X153601869Y-91005800D01*
X153580426Y-91076487D01*
X153579036Y-91090601D01*
X153551059Y-91079013D01*
X153401331Y-91049230D01*
X153248669Y-91049230D01*
X153098941Y-91079013D01*
X152957900Y-91137434D01*
X152830966Y-91222248D01*
X152733214Y-91320000D01*
X152704560Y-91320000D01*
X152680000Y-91317581D01*
X152655440Y-91320000D01*
X152139910Y-91320000D01*
X152135443Y-91314557D01*
X152057126Y-91250285D01*
X151967776Y-91202526D01*
X151870825Y-91173116D01*
X151770000Y-91163186D01*
X151430000Y-91163186D01*
X151329175Y-91173116D01*
X151232224Y-91202526D01*
X151142874Y-91250285D01*
X151064557Y-91314557D01*
X151044928Y-91338475D01*
X150987733Y-91355825D01*
X150900871Y-91402254D01*
X150824736Y-91464736D01*
X150809075Y-91483819D01*
X150762336Y-91530558D01*
X150739347Y-91511691D01*
X150674200Y-91476869D01*
X150603513Y-91455426D01*
X150530000Y-91448186D01*
X149470000Y-91448186D01*
X149396487Y-91455426D01*
X149325800Y-91476869D01*
X149260653Y-91511691D01*
X149203552Y-91558552D01*
X149156691Y-91615653D01*
X149121869Y-91680800D01*
X149100426Y-91751487D01*
X149093186Y-91825000D01*
X149093186Y-92265367D01*
X149020236Y-92325236D01*
X148941133Y-92421622D01*
X148882354Y-92531589D01*
X148846159Y-92650910D01*
X148833937Y-92775000D01*
X148837000Y-92812750D01*
X148995250Y-92971000D01*
X149871000Y-92971000D01*
X149871000Y-92951000D01*
X150129000Y-92951000D01*
X150129000Y-92971000D01*
X150149000Y-92971000D01*
X150149000Y-93229000D01*
X150129000Y-93229000D01*
X150129000Y-93249000D01*
X149871000Y-93249000D01*
X149871000Y-93229000D01*
X148995250Y-93229000D01*
X148837000Y-93387250D01*
X148833937Y-93425000D01*
X148846159Y-93549090D01*
X148882354Y-93668411D01*
X148941133Y-93778378D01*
X149020236Y-93874764D01*
X149093186Y-93934633D01*
X149093186Y-94375000D01*
X149095648Y-94400000D01*
X148704352Y-94400000D01*
X148706814Y-94375000D01*
X148706814Y-93725000D01*
X148699574Y-93651487D01*
X148678131Y-93580800D01*
X148643309Y-93515653D01*
X148596448Y-93458552D01*
X148539347Y-93411691D01*
X148474200Y-93376869D01*
X148403513Y-93355426D01*
X148330000Y-93348186D01*
X147270000Y-93348186D01*
X147196487Y-93355426D01*
X147137579Y-93373296D01*
X147143000Y-93307250D01*
X146984750Y-93149000D01*
X146329000Y-93149000D01*
X146329000Y-93169000D01*
X146071000Y-93169000D01*
X146071000Y-93149000D01*
X146051000Y-93149000D01*
X146051000Y-92891000D01*
X146071000Y-92891000D01*
X146071000Y-92265250D01*
X146329000Y-92265250D01*
X146329000Y-92891000D01*
X146984750Y-92891000D01*
X147078110Y-92797640D01*
X147125800Y-92823131D01*
X147196487Y-92844574D01*
X147270000Y-92851814D01*
X148330000Y-92851814D01*
X148403513Y-92844574D01*
X148474200Y-92823131D01*
X148539347Y-92788309D01*
X148596448Y-92741448D01*
X148643309Y-92684347D01*
X148678131Y-92619200D01*
X148699574Y-92548513D01*
X148706814Y-92475000D01*
X148706814Y-91825000D01*
X148699574Y-91751487D01*
X148678131Y-91680800D01*
X148643309Y-91615653D01*
X148596448Y-91558552D01*
X148539347Y-91511691D01*
X148474200Y-91476869D01*
X148403513Y-91455426D01*
X148330000Y-91448186D01*
X147270000Y-91448186D01*
X147196487Y-91455426D01*
X147125800Y-91476869D01*
X147060653Y-91511691D01*
X147003552Y-91558552D01*
X146956691Y-91615653D01*
X146921869Y-91680800D01*
X146900426Y-91751487D01*
X146893186Y-91825000D01*
X146893186Y-92235759D01*
X146860312Y-92209097D01*
X146750007Y-92150956D01*
X146630478Y-92115451D01*
X146506320Y-92103948D01*
X146487250Y-92107000D01*
X146329000Y-92265250D01*
X146071000Y-92265250D01*
X145912750Y-92107000D01*
X145893680Y-92103948D01*
X145769522Y-92115451D01*
X145649993Y-92150956D01*
X145596788Y-92179000D01*
X144529000Y-92179000D01*
X144529000Y-92199000D01*
X144271000Y-92199000D01*
X144271000Y-92179000D01*
X144251000Y-92179000D01*
X144251000Y-91921000D01*
X144271000Y-91921000D01*
X144271000Y-91075250D01*
X144529000Y-91075250D01*
X144529000Y-91921000D01*
X145599750Y-91921000D01*
X145758000Y-91762750D01*
X145761063Y-91550000D01*
X145748841Y-91425910D01*
X145712646Y-91306589D01*
X145653867Y-91196622D01*
X145574764Y-91100236D01*
X145478378Y-91021133D01*
X145368411Y-90962354D01*
X145249090Y-90926159D01*
X145125000Y-90913937D01*
X144687250Y-90917000D01*
X144529000Y-91075250D01*
X144271000Y-91075250D01*
X144112750Y-90917000D01*
X143675000Y-90913937D01*
X143550910Y-90926159D01*
X143431589Y-90962354D01*
X143359454Y-91000911D01*
X143312359Y-90942845D01*
X143216432Y-90863186D01*
X143106807Y-90803773D01*
X142987697Y-90766887D01*
X142867250Y-90757000D01*
X142709000Y-90915250D01*
X142709000Y-91571000D01*
X142729000Y-91571000D01*
X142729000Y-91829000D01*
X142709000Y-91829000D01*
X142709000Y-91849000D01*
X142451000Y-91849000D01*
X142451000Y-91829000D01*
X142431000Y-91829000D01*
X142431000Y-91571000D01*
X142451000Y-91571000D01*
X142451000Y-90915250D01*
X142292750Y-90757000D01*
X142172303Y-90766887D01*
X142053193Y-90803773D01*
X141943568Y-90863186D01*
X141850523Y-90940452D01*
X141776939Y-90880064D01*
X141690077Y-90833635D01*
X141595827Y-90805045D01*
X141522370Y-90797810D01*
X141497810Y-90795391D01*
X141473250Y-90797810D01*
X139861459Y-90797810D01*
X139836899Y-90795391D01*
X139812339Y-90797810D01*
X139738882Y-90805045D01*
X139644632Y-90833635D01*
X139557770Y-90880064D01*
X139481635Y-90942546D01*
X139465973Y-90961630D01*
X139433952Y-90993651D01*
X139410187Y-90990700D01*
X139251937Y-91148950D01*
X139251937Y-91341059D01*
X139247937Y-91381671D01*
X139247937Y-91148950D01*
X139089687Y-90990700D01*
X138976210Y-91004792D01*
X138858287Y-91045309D01*
X138750533Y-91108053D01*
X138657091Y-91190613D01*
X138614206Y-91246932D01*
X138550187Y-91253237D01*
X138479500Y-91274680D01*
X138414353Y-91309502D01*
X138357252Y-91356363D01*
X138310391Y-91413464D01*
X138275569Y-91478611D01*
X138271811Y-91490998D01*
X138184752Y-91490998D01*
X138343000Y-91332750D01*
X138333113Y-91212303D01*
X138296227Y-91093193D01*
X138236814Y-90983568D01*
X138157155Y-90887641D01*
X138060312Y-90809097D01*
X137950007Y-90750956D01*
X137830478Y-90715451D01*
X137706320Y-90703948D01*
X137687250Y-90707000D01*
X137529000Y-90865250D01*
X137529000Y-91491000D01*
X137549000Y-91491000D01*
X137549000Y-91749000D01*
X137529000Y-91749000D01*
X137529000Y-91769000D01*
X137271000Y-91769000D01*
X137271000Y-91749000D01*
X136329000Y-91749000D01*
X136329000Y-91769000D01*
X136071000Y-91769000D01*
X136071000Y-91749000D01*
X135415250Y-91749000D01*
X135257000Y-91907250D01*
X135266887Y-92027697D01*
X135303773Y-92146807D01*
X135363186Y-92256432D01*
X135442845Y-92352359D01*
X135515976Y-92411672D01*
X135513186Y-92440000D01*
X135513186Y-92720000D01*
X135516159Y-92750189D01*
X132674371Y-92750189D01*
X132649811Y-92747770D01*
X132625251Y-92750189D01*
X131746205Y-92750189D01*
X131694034Y-92698018D01*
X131567100Y-92613204D01*
X131426059Y-92554783D01*
X131276331Y-92525000D01*
X131123669Y-92525000D01*
X130973941Y-92554783D01*
X130832900Y-92613204D01*
X130705966Y-92698018D01*
X130598018Y-92805966D01*
X130513204Y-92932900D01*
X130454783Y-93073941D01*
X130433083Y-93183032D01*
X130348007Y-93157225D01*
X130274550Y-93149990D01*
X130249990Y-93147571D01*
X130225430Y-93149990D01*
X128157095Y-93149990D01*
X128045928Y-93038823D01*
X128030263Y-93019735D01*
X127954128Y-92957253D01*
X127867266Y-92910824D01*
X127773016Y-92882234D01*
X127763899Y-92881336D01*
X127674999Y-92872580D01*
X127650439Y-92874999D01*
X126582105Y-92874999D01*
X126458920Y-92751814D01*
X126725000Y-92751814D01*
X126837531Y-92740731D01*
X126945737Y-92707907D01*
X127045461Y-92654603D01*
X127132869Y-92582869D01*
X127204603Y-92495461D01*
X127255628Y-92400000D01*
X132885300Y-92400000D01*
X132898018Y-92419034D01*
X133005966Y-92526982D01*
X133132900Y-92611796D01*
X133273941Y-92670217D01*
X133423669Y-92700000D01*
X133576331Y-92700000D01*
X133726059Y-92670217D01*
X133867100Y-92611796D01*
X133994034Y-92526982D01*
X134101982Y-92419034D01*
X134186796Y-92292100D01*
X134245217Y-92151059D01*
X134275000Y-92001331D01*
X134275000Y-91848669D01*
X134245217Y-91698941D01*
X134186796Y-91557900D01*
X134101982Y-91430966D01*
X134003766Y-91332750D01*
X135257000Y-91332750D01*
X135415250Y-91491000D01*
X136071000Y-91491000D01*
X136071000Y-90865250D01*
X136329000Y-90865250D01*
X136329000Y-91491000D01*
X137271000Y-91491000D01*
X137271000Y-90865250D01*
X137112750Y-90707000D01*
X137093680Y-90703948D01*
X136969522Y-90715451D01*
X136849993Y-90750956D01*
X136800000Y-90777307D01*
X136750007Y-90750956D01*
X136630478Y-90715451D01*
X136506320Y-90703948D01*
X136487250Y-90707000D01*
X136329000Y-90865250D01*
X136071000Y-90865250D01*
X135912750Y-90707000D01*
X135893680Y-90703948D01*
X135769522Y-90715451D01*
X135649993Y-90750956D01*
X135539688Y-90809097D01*
X135442845Y-90887641D01*
X135363186Y-90983568D01*
X135303773Y-91093193D01*
X135266887Y-91212303D01*
X135257000Y-91332750D01*
X134003766Y-91332750D01*
X133994034Y-91323018D01*
X133867100Y-91238204D01*
X133726059Y-91179783D01*
X133576331Y-91150000D01*
X133423669Y-91150000D01*
X133273941Y-91179783D01*
X133132900Y-91238204D01*
X133005966Y-91323018D01*
X132928984Y-91400000D01*
X127255628Y-91400000D01*
X127204603Y-91304539D01*
X127132869Y-91217131D01*
X127045461Y-91145397D01*
X126945737Y-91092093D01*
X126837531Y-91059269D01*
X126725000Y-91048186D01*
X126325000Y-91048186D01*
X126212469Y-91059269D01*
X126104263Y-91092093D01*
X126004539Y-91145397D01*
X125917131Y-91217131D01*
X125845397Y-91304539D01*
X125792093Y-91404263D01*
X125759269Y-91512469D01*
X125748186Y-91625000D01*
X125748186Y-92175000D01*
X125759269Y-92287531D01*
X125792093Y-92395737D01*
X125845397Y-92495461D01*
X125861424Y-92514990D01*
X125538576Y-92514990D01*
X125554603Y-92495461D01*
X125607907Y-92395737D01*
X125640731Y-92287531D01*
X125651814Y-92175000D01*
X125651814Y-91625000D01*
X125640731Y-91512469D01*
X125607907Y-91404263D01*
X125554603Y-91304539D01*
X125482869Y-91217131D01*
X125395461Y-91145397D01*
X125295737Y-91092093D01*
X125187531Y-91059269D01*
X125075000Y-91048186D01*
X124675000Y-91048186D01*
X124562469Y-91059269D01*
X124454263Y-91092093D01*
X124354539Y-91145397D01*
X124267131Y-91217131D01*
X124195397Y-91304539D01*
X124142093Y-91404263D01*
X124109269Y-91512469D01*
X124105573Y-91550000D01*
X124026814Y-91550000D01*
X124019574Y-91476487D01*
X123998131Y-91405800D01*
X123963309Y-91340653D01*
X123916448Y-91283552D01*
X123859347Y-91236691D01*
X123794200Y-91201869D01*
X123723513Y-91180426D01*
X123650000Y-91173186D01*
X122850000Y-91173186D01*
X122776487Y-91180426D01*
X122705800Y-91201869D01*
X122700000Y-91204969D01*
X122694200Y-91201869D01*
X122623513Y-91180426D01*
X122550000Y-91173186D01*
X121750000Y-91173186D01*
X121676487Y-91180426D01*
X121605800Y-91201869D01*
X121540653Y-91236691D01*
X121487564Y-91280259D01*
X121426059Y-91254783D01*
X121276331Y-91225000D01*
X121123669Y-91225000D01*
X120973941Y-91254783D01*
X120832900Y-91313204D01*
X120705966Y-91398018D01*
X120598018Y-91505966D01*
X120513204Y-91632900D01*
X120454783Y-91773941D01*
X120425000Y-91923669D01*
X120425000Y-92076331D01*
X120454783Y-92226059D01*
X120513204Y-92367100D01*
X120598018Y-92494034D01*
X120705966Y-92601982D01*
X120832900Y-92686796D01*
X120973941Y-92745217D01*
X121123669Y-92775000D01*
X121276331Y-92775000D01*
X121426059Y-92745217D01*
X121428580Y-92744173D01*
X121436691Y-92759347D01*
X121470054Y-92800000D01*
X121436691Y-92840653D01*
X121401869Y-92905800D01*
X121380426Y-92976487D01*
X121373186Y-93050000D01*
X121373186Y-94050000D01*
X121373473Y-94052912D01*
X121305966Y-94098018D01*
X121198018Y-94205966D01*
X121113204Y-94332900D01*
X121054783Y-94473941D01*
X121025000Y-94623669D01*
X121025000Y-94776331D01*
X121054783Y-94926059D01*
X121113204Y-95067100D01*
X121173732Y-95157687D01*
X121149399Y-95165069D01*
X121084252Y-95199891D01*
X121027151Y-95246752D01*
X120980290Y-95303853D01*
X120945468Y-95369000D01*
X120924025Y-95439687D01*
X120916785Y-95513200D01*
X120916785Y-95868800D01*
X120924025Y-95942313D01*
X120944255Y-96009000D01*
X120924025Y-96075687D01*
X120916785Y-96149200D01*
X120916785Y-96504800D01*
X120924025Y-96578313D01*
X120945468Y-96649000D01*
X120969409Y-96693791D01*
X120952474Y-96702348D01*
X120854294Y-96779214D01*
X120772996Y-96873756D01*
X120711705Y-96982343D01*
X120672776Y-97100800D01*
X120660599Y-97205950D01*
X120818849Y-97364200D01*
X120881135Y-97364200D01*
X120854294Y-97385214D01*
X120772996Y-97479756D01*
X120726477Y-97562172D01*
X120660599Y-97628050D01*
X120671247Y-97720000D01*
X120660599Y-97811950D01*
X120726477Y-97877828D01*
X120772996Y-97960244D01*
X120854294Y-98054786D01*
X120881135Y-98075800D01*
X120818849Y-98075800D01*
X120660599Y-98234050D01*
X120672776Y-98339200D01*
X120711705Y-98457657D01*
X120772996Y-98566244D01*
X120854294Y-98660786D01*
X120919820Y-98712087D01*
X120916785Y-98742900D01*
X120916785Y-99581100D01*
X120924025Y-99654613D01*
X120945468Y-99725300D01*
X120980290Y-99790447D01*
X121027151Y-99847548D01*
X121084252Y-99894409D01*
X121149399Y-99929231D01*
X121220086Y-99950674D01*
X121293599Y-99957914D01*
X122106399Y-99957914D01*
X122179912Y-99950674D01*
X122250599Y-99929231D01*
X122315746Y-99894409D01*
X122372847Y-99847548D01*
X122400000Y-99814461D01*
X122400000Y-100454597D01*
X122353093Y-100493093D01*
X122300000Y-100557786D01*
X122246907Y-100493093D01*
X122169349Y-100429442D01*
X122080863Y-100382146D01*
X121984850Y-100353020D01*
X121885000Y-100343186D01*
X121515000Y-100343186D01*
X121415150Y-100353020D01*
X121319137Y-100382146D01*
X121230651Y-100429442D01*
X121156862Y-100490000D01*
X121034549Y-100490000D01*
X121009999Y-100487582D01*
X120985449Y-100490000D01*
X120985440Y-100490000D01*
X120911983Y-100497235D01*
X120817733Y-100525825D01*
X120730871Y-100572254D01*
X120654736Y-100634736D01*
X120639074Y-100653820D01*
X120563818Y-100729077D01*
X120544737Y-100744736D01*
X120482255Y-100820871D01*
X120444956Y-100890653D01*
X120435826Y-100907733D01*
X120407235Y-101001983D01*
X120400000Y-101075439D01*
X120400000Y-91019565D01*
X120413309Y-90883833D01*
X120447047Y-90772087D01*
X120501843Y-90669029D01*
X120575620Y-90578570D01*
X120665556Y-90504168D01*
X120768236Y-90448650D01*
X120879735Y-90414135D01*
X121014214Y-90400000D01*
X160980435Y-90400000D01*
X161116167Y-90413309D01*
G37*
G04 #@! TD.AperFunction*
D28*
X131501869Y-101094200D02*
X131536691Y-101159347D01*
X131583552Y-101216448D01*
X131640653Y-101263309D01*
X131705800Y-101298131D01*
X131776487Y-101319574D01*
X131850000Y-101326814D01*
X132750000Y-101326814D01*
X132814057Y-101320505D01*
X132835825Y-101392266D01*
X132852821Y-101424064D01*
X132750000Y-101413937D01*
X132587250Y-101417000D01*
X132429000Y-101575250D01*
X132429000Y-102321000D01*
X133224750Y-102321000D01*
X133383000Y-102162750D01*
X133386063Y-102050000D01*
X133375936Y-101947179D01*
X133391064Y-101955265D01*
X133407058Y-101963814D01*
X133407733Y-101964175D01*
X133484673Y-101987514D01*
X133501869Y-102044200D01*
X133536691Y-102109347D01*
X133583552Y-102166448D01*
X133640653Y-102213309D01*
X133705800Y-102248131D01*
X133776487Y-102269574D01*
X133850000Y-102276814D01*
X134750000Y-102276814D01*
X134823513Y-102269574D01*
X134894200Y-102248131D01*
X134959347Y-102213309D01*
X135016448Y-102166448D01*
X135063309Y-102109347D01*
X135098131Y-102044200D01*
X135119574Y-101973513D01*
X135126814Y-101900000D01*
X135126814Y-101309948D01*
X135603056Y-101786191D01*
X135618717Y-101805274D01*
X135694852Y-101867756D01*
X135745040Y-101894582D01*
X135575419Y-102002986D01*
X135421186Y-102151057D01*
X135298804Y-102326373D01*
X135212976Y-102522196D01*
X135167000Y-102731000D01*
X135167000Y-103131000D01*
X136121000Y-103131000D01*
X136121000Y-103111000D01*
X136379000Y-103111000D01*
X136379000Y-103131000D01*
X137333000Y-103131000D01*
X137333000Y-102731000D01*
X137287024Y-102522196D01*
X137201196Y-102326373D01*
X137078814Y-102151057D01*
X136924581Y-102002986D01*
X136841688Y-101950010D01*
X143406494Y-101950010D01*
X143647693Y-102191210D01*
X143663345Y-102210282D01*
X143682416Y-102225933D01*
X143682421Y-102225938D01*
X143739479Y-102272764D01*
X143826340Y-102319193D01*
X143920591Y-102347783D01*
X143938641Y-102349561D01*
X143862976Y-102522196D01*
X143817000Y-102731000D01*
X143817000Y-103131000D01*
X144771000Y-103131000D01*
X144771000Y-103111000D01*
X145029000Y-103111000D01*
X145029000Y-103131000D01*
X145049000Y-103131000D01*
X145049000Y-103389000D01*
X145029000Y-103389000D01*
X145029000Y-103409000D01*
X144771000Y-103409000D01*
X144771000Y-103389000D01*
X143817000Y-103389000D01*
X143817000Y-103789000D01*
X143862976Y-103997804D01*
X143948804Y-104193627D01*
X144071186Y-104368943D01*
X144225419Y-104517014D01*
X144355269Y-104600000D01*
X136794731Y-104600000D01*
X136924581Y-104517014D01*
X137078814Y-104368943D01*
X137201196Y-104193627D01*
X137287024Y-103997804D01*
X137333000Y-103789000D01*
X137333000Y-103389000D01*
X136379000Y-103389000D01*
X136379000Y-103409000D01*
X136121000Y-103409000D01*
X136121000Y-103389000D01*
X135167000Y-103389000D01*
X135167000Y-103789000D01*
X135212976Y-103997804D01*
X135298804Y-104193627D01*
X135421186Y-104368943D01*
X135575419Y-104517014D01*
X135705269Y-104600000D01*
X121019564Y-104600000D01*
X120883833Y-104586691D01*
X120772088Y-104552953D01*
X120669028Y-104498156D01*
X120578570Y-104424380D01*
X120504168Y-104334444D01*
X120448650Y-104231764D01*
X120414135Y-104120265D01*
X120400000Y-103985785D01*
X120400000Y-102624559D01*
X120407235Y-102698017D01*
X120411515Y-102712126D01*
X120435825Y-102792266D01*
X120482254Y-102879129D01*
X120544736Y-102955264D01*
X120563824Y-102970929D01*
X120829071Y-103236176D01*
X120844736Y-103255264D01*
X120920871Y-103317746D01*
X120961585Y-103339508D01*
X120998018Y-103394034D01*
X121105966Y-103501982D01*
X121232900Y-103586796D01*
X121373941Y-103645217D01*
X121523669Y-103675000D01*
X121676331Y-103675000D01*
X121826059Y-103645217D01*
X121967100Y-103586796D01*
X122094034Y-103501982D01*
X122201982Y-103394034D01*
X122243186Y-103332367D01*
X122243186Y-103585000D01*
X122253020Y-103684850D01*
X122282146Y-103780863D01*
X122329442Y-103869349D01*
X122393093Y-103946907D01*
X122470651Y-104010558D01*
X122559137Y-104057854D01*
X122655150Y-104086980D01*
X122755000Y-104096814D01*
X123025000Y-104096814D01*
X123124850Y-104086980D01*
X123220863Y-104057854D01*
X123309349Y-104010558D01*
X123386907Y-103946907D01*
X123400000Y-103930953D01*
X123413093Y-103946907D01*
X123490651Y-104010558D01*
X123579137Y-104057854D01*
X123675150Y-104086980D01*
X123775000Y-104096814D01*
X124045000Y-104096814D01*
X124144850Y-104086980D01*
X124240863Y-104057854D01*
X124329349Y-104010558D01*
X124406907Y-103946907D01*
X124445403Y-103900000D01*
X125075440Y-103900000D01*
X125100000Y-103902419D01*
X125124560Y-103900000D01*
X125198017Y-103892765D01*
X125292267Y-103864175D01*
X125379129Y-103817746D01*
X125455264Y-103755264D01*
X125470929Y-103736176D01*
X125907106Y-103300000D01*
X125918186Y-103300000D01*
X125918186Y-103450000D01*
X125928309Y-103552776D01*
X125958287Y-103651603D01*
X126006970Y-103742682D01*
X126072486Y-103822514D01*
X126152318Y-103888030D01*
X126243397Y-103936713D01*
X126342224Y-103966691D01*
X126445000Y-103976814D01*
X126745000Y-103976814D01*
X126847776Y-103966691D01*
X126946603Y-103936713D01*
X127037682Y-103888030D01*
X127117514Y-103822514D01*
X127183030Y-103742682D01*
X127230000Y-103654808D01*
X127276970Y-103742682D01*
X127342486Y-103822514D01*
X127422318Y-103888030D01*
X127513397Y-103936713D01*
X127612224Y-103966691D01*
X127715000Y-103976814D01*
X128015000Y-103976814D01*
X128117776Y-103966691D01*
X128216603Y-103936713D01*
X128307682Y-103888030D01*
X128387514Y-103822514D01*
X128453030Y-103742682D01*
X128500000Y-103654808D01*
X128546970Y-103742682D01*
X128612486Y-103822514D01*
X128692318Y-103888030D01*
X128783397Y-103936713D01*
X128882224Y-103966691D01*
X128985000Y-103976814D01*
X129285000Y-103976814D01*
X129387776Y-103966691D01*
X129486603Y-103936713D01*
X129549310Y-103903195D01*
X129576133Y-103953378D01*
X129655236Y-104049764D01*
X129751622Y-104128867D01*
X129861589Y-104187646D01*
X129980910Y-104223841D01*
X130105000Y-104236063D01*
X130117750Y-104233000D01*
X130276000Y-104074750D01*
X130276000Y-102929000D01*
X130256000Y-102929000D01*
X130256000Y-102671000D01*
X130276000Y-102671000D01*
X130276000Y-101525250D01*
X130534000Y-101525250D01*
X130534000Y-102671000D01*
X130554000Y-102671000D01*
X130554000Y-102929000D01*
X130534000Y-102929000D01*
X130534000Y-104074750D01*
X130692250Y-104233000D01*
X130705000Y-104236063D01*
X130829090Y-104223841D01*
X130948411Y-104187646D01*
X131058378Y-104128867D01*
X131154764Y-104049764D01*
X131233867Y-103953378D01*
X131292646Y-103843411D01*
X131328841Y-103724090D01*
X131341063Y-103600000D01*
X131338822Y-103224932D01*
X131400236Y-103299764D01*
X131496622Y-103378867D01*
X131606589Y-103437646D01*
X131725910Y-103473841D01*
X131850000Y-103486063D01*
X132012750Y-103483000D01*
X132171000Y-103324750D01*
X132171000Y-102579000D01*
X132429000Y-102579000D01*
X132429000Y-103324750D01*
X132587250Y-103483000D01*
X132750000Y-103486063D01*
X132874090Y-103473841D01*
X132993411Y-103437646D01*
X133103378Y-103378867D01*
X133199764Y-103299764D01*
X133278867Y-103203378D01*
X133337646Y-103093411D01*
X133373841Y-102974090D01*
X133386063Y-102850000D01*
X133383000Y-102737250D01*
X133224750Y-102579000D01*
X132429000Y-102579000D01*
X132171000Y-102579000D01*
X132151000Y-102579000D01*
X132151000Y-102321000D01*
X132171000Y-102321000D01*
X132171000Y-101575250D01*
X132012750Y-101417000D01*
X131850000Y-101413937D01*
X131725910Y-101426159D01*
X131606589Y-101462354D01*
X131496622Y-101521133D01*
X131400236Y-101600236D01*
X131321133Y-101696622D01*
X131290863Y-101753253D01*
X131233867Y-101646622D01*
X131154764Y-101550236D01*
X131058378Y-101471133D01*
X130948411Y-101412354D01*
X130829090Y-101376159D01*
X130705000Y-101363937D01*
X130692250Y-101367000D01*
X130534000Y-101525250D01*
X130276000Y-101525250D01*
X130178928Y-101428178D01*
X130557107Y-101050000D01*
X131488461Y-101050000D01*
X131501869Y-101094200D01*
G04 #@! TA.AperFunction,Conductor*
D29*
G36*
X131501869Y-101094200D02*
G01*
X131536691Y-101159347D01*
X131583552Y-101216448D01*
X131640653Y-101263309D01*
X131705800Y-101298131D01*
X131776487Y-101319574D01*
X131850000Y-101326814D01*
X132750000Y-101326814D01*
X132814057Y-101320505D01*
X132835825Y-101392266D01*
X132852821Y-101424064D01*
X132750000Y-101413937D01*
X132587250Y-101417000D01*
X132429000Y-101575250D01*
X132429000Y-102321000D01*
X133224750Y-102321000D01*
X133383000Y-102162750D01*
X133386063Y-102050000D01*
X133375936Y-101947179D01*
X133391064Y-101955265D01*
X133407058Y-101963814D01*
X133407733Y-101964175D01*
X133484673Y-101987514D01*
X133501869Y-102044200D01*
X133536691Y-102109347D01*
X133583552Y-102166448D01*
X133640653Y-102213309D01*
X133705800Y-102248131D01*
X133776487Y-102269574D01*
X133850000Y-102276814D01*
X134750000Y-102276814D01*
X134823513Y-102269574D01*
X134894200Y-102248131D01*
X134959347Y-102213309D01*
X135016448Y-102166448D01*
X135063309Y-102109347D01*
X135098131Y-102044200D01*
X135119574Y-101973513D01*
X135126814Y-101900000D01*
X135126814Y-101309948D01*
X135603056Y-101786191D01*
X135618717Y-101805274D01*
X135694852Y-101867756D01*
X135745040Y-101894582D01*
X135575419Y-102002986D01*
X135421186Y-102151057D01*
X135298804Y-102326373D01*
X135212976Y-102522196D01*
X135167000Y-102731000D01*
X135167000Y-103131000D01*
X136121000Y-103131000D01*
X136121000Y-103111000D01*
X136379000Y-103111000D01*
X136379000Y-103131000D01*
X137333000Y-103131000D01*
X137333000Y-102731000D01*
X137287024Y-102522196D01*
X137201196Y-102326373D01*
X137078814Y-102151057D01*
X136924581Y-102002986D01*
X136841688Y-101950010D01*
X143406494Y-101950010D01*
X143647693Y-102191210D01*
X143663345Y-102210282D01*
X143682416Y-102225933D01*
X143682421Y-102225938D01*
X143739479Y-102272764D01*
X143826340Y-102319193D01*
X143920591Y-102347783D01*
X143938641Y-102349561D01*
X143862976Y-102522196D01*
X143817000Y-102731000D01*
X143817000Y-103131000D01*
X144771000Y-103131000D01*
X144771000Y-103111000D01*
X145029000Y-103111000D01*
X145029000Y-103131000D01*
X145049000Y-103131000D01*
X145049000Y-103389000D01*
X145029000Y-103389000D01*
X145029000Y-103409000D01*
X144771000Y-103409000D01*
X144771000Y-103389000D01*
X143817000Y-103389000D01*
X143817000Y-103789000D01*
X143862976Y-103997804D01*
X143948804Y-104193627D01*
X144071186Y-104368943D01*
X144225419Y-104517014D01*
X144355269Y-104600000D01*
X136794731Y-104600000D01*
X136924581Y-104517014D01*
X137078814Y-104368943D01*
X137201196Y-104193627D01*
X137287024Y-103997804D01*
X137333000Y-103789000D01*
X137333000Y-103389000D01*
X136379000Y-103389000D01*
X136379000Y-103409000D01*
X136121000Y-103409000D01*
X136121000Y-103389000D01*
X135167000Y-103389000D01*
X135167000Y-103789000D01*
X135212976Y-103997804D01*
X135298804Y-104193627D01*
X135421186Y-104368943D01*
X135575419Y-104517014D01*
X135705269Y-104600000D01*
X121019564Y-104600000D01*
X120883833Y-104586691D01*
X120772088Y-104552953D01*
X120669028Y-104498156D01*
X120578570Y-104424380D01*
X120504168Y-104334444D01*
X120448650Y-104231764D01*
X120414135Y-104120265D01*
X120400000Y-103985785D01*
X120400000Y-102624559D01*
X120407235Y-102698017D01*
X120411515Y-102712126D01*
X120435825Y-102792266D01*
X120482254Y-102879129D01*
X120544736Y-102955264D01*
X120563824Y-102970929D01*
X120829071Y-103236176D01*
X120844736Y-103255264D01*
X120920871Y-103317746D01*
X120961585Y-103339508D01*
X120998018Y-103394034D01*
X121105966Y-103501982D01*
X121232900Y-103586796D01*
X121373941Y-103645217D01*
X121523669Y-103675000D01*
X121676331Y-103675000D01*
X121826059Y-103645217D01*
X121967100Y-103586796D01*
X122094034Y-103501982D01*
X122201982Y-103394034D01*
X122243186Y-103332367D01*
X122243186Y-103585000D01*
X122253020Y-103684850D01*
X122282146Y-103780863D01*
X122329442Y-103869349D01*
X122393093Y-103946907D01*
X122470651Y-104010558D01*
X122559137Y-104057854D01*
X122655150Y-104086980D01*
X122755000Y-104096814D01*
X123025000Y-104096814D01*
X123124850Y-104086980D01*
X123220863Y-104057854D01*
X123309349Y-104010558D01*
X123386907Y-103946907D01*
X123400000Y-103930953D01*
X123413093Y-103946907D01*
X123490651Y-104010558D01*
X123579137Y-104057854D01*
X123675150Y-104086980D01*
X123775000Y-104096814D01*
X124045000Y-104096814D01*
X124144850Y-104086980D01*
X124240863Y-104057854D01*
X124329349Y-104010558D01*
X124406907Y-103946907D01*
X124445403Y-103900000D01*
X125075440Y-103900000D01*
X125100000Y-103902419D01*
X125124560Y-103900000D01*
X125198017Y-103892765D01*
X125292267Y-103864175D01*
X125379129Y-103817746D01*
X125455264Y-103755264D01*
X125470929Y-103736176D01*
X125907106Y-103300000D01*
X125918186Y-103300000D01*
X125918186Y-103450000D01*
X125928309Y-103552776D01*
X125958287Y-103651603D01*
X126006970Y-103742682D01*
X126072486Y-103822514D01*
X126152318Y-103888030D01*
X126243397Y-103936713D01*
X126342224Y-103966691D01*
X126445000Y-103976814D01*
X126745000Y-103976814D01*
X126847776Y-103966691D01*
X126946603Y-103936713D01*
X127037682Y-103888030D01*
X127117514Y-103822514D01*
X127183030Y-103742682D01*
X127230000Y-103654808D01*
X127276970Y-103742682D01*
X127342486Y-103822514D01*
X127422318Y-103888030D01*
X127513397Y-103936713D01*
X127612224Y-103966691D01*
X127715000Y-103976814D01*
X128015000Y-103976814D01*
X128117776Y-103966691D01*
X128216603Y-103936713D01*
X128307682Y-103888030D01*
X128387514Y-103822514D01*
X128453030Y-103742682D01*
X128500000Y-103654808D01*
X128546970Y-103742682D01*
X128612486Y-103822514D01*
X128692318Y-103888030D01*
X128783397Y-103936713D01*
X128882224Y-103966691D01*
X128985000Y-103976814D01*
X129285000Y-103976814D01*
X129387776Y-103966691D01*
X129486603Y-103936713D01*
X129549310Y-103903195D01*
X129576133Y-103953378D01*
X129655236Y-104049764D01*
X129751622Y-104128867D01*
X129861589Y-104187646D01*
X129980910Y-104223841D01*
X130105000Y-104236063D01*
X130117750Y-104233000D01*
X130276000Y-104074750D01*
X130276000Y-102929000D01*
X130256000Y-102929000D01*
X130256000Y-102671000D01*
X130276000Y-102671000D01*
X130276000Y-101525250D01*
X130534000Y-101525250D01*
X130534000Y-102671000D01*
X130554000Y-102671000D01*
X130554000Y-102929000D01*
X130534000Y-102929000D01*
X130534000Y-104074750D01*
X130692250Y-104233000D01*
X130705000Y-104236063D01*
X130829090Y-104223841D01*
X130948411Y-104187646D01*
X131058378Y-104128867D01*
X131154764Y-104049764D01*
X131233867Y-103953378D01*
X131292646Y-103843411D01*
X131328841Y-103724090D01*
X131341063Y-103600000D01*
X131338822Y-103224932D01*
X131400236Y-103299764D01*
X131496622Y-103378867D01*
X131606589Y-103437646D01*
X131725910Y-103473841D01*
X131850000Y-103486063D01*
X132012750Y-103483000D01*
X132171000Y-103324750D01*
X132171000Y-102579000D01*
X132429000Y-102579000D01*
X132429000Y-103324750D01*
X132587250Y-103483000D01*
X132750000Y-103486063D01*
X132874090Y-103473841D01*
X132993411Y-103437646D01*
X133103378Y-103378867D01*
X133199764Y-103299764D01*
X133278867Y-103203378D01*
X133337646Y-103093411D01*
X133373841Y-102974090D01*
X133386063Y-102850000D01*
X133383000Y-102737250D01*
X133224750Y-102579000D01*
X132429000Y-102579000D01*
X132171000Y-102579000D01*
X132151000Y-102579000D01*
X132151000Y-102321000D01*
X132171000Y-102321000D01*
X132171000Y-101575250D01*
X132012750Y-101417000D01*
X131850000Y-101413937D01*
X131725910Y-101426159D01*
X131606589Y-101462354D01*
X131496622Y-101521133D01*
X131400236Y-101600236D01*
X131321133Y-101696622D01*
X131290863Y-101753253D01*
X131233867Y-101646622D01*
X131154764Y-101550236D01*
X131058378Y-101471133D01*
X130948411Y-101412354D01*
X130829090Y-101376159D01*
X130705000Y-101363937D01*
X130692250Y-101367000D01*
X130534000Y-101525250D01*
X130276000Y-101525250D01*
X130178928Y-101428178D01*
X130557107Y-101050000D01*
X131488461Y-101050000D01*
X131501869Y-101094200D01*
G37*
G04 #@! TD.AperFunction*
D28*
X131144736Y-98355264D02*
X131220871Y-98417746D01*
X131307733Y-98464175D01*
X131401983Y-98492765D01*
X131475440Y-98500000D01*
X131475441Y-98500000D01*
X131499999Y-98502419D01*
X131524557Y-98500000D01*
X134692894Y-98500000D01*
X134800000Y-98607106D01*
X134800001Y-100728110D01*
X134750000Y-100723186D01*
X133850000Y-100723186D01*
X133800000Y-100728110D01*
X133800000Y-100096016D01*
X133901982Y-99994034D01*
X133986796Y-99867100D01*
X134045217Y-99726059D01*
X134075000Y-99576331D01*
X134075000Y-99423669D01*
X134045217Y-99273941D01*
X133986796Y-99132900D01*
X133901982Y-99005966D01*
X133794034Y-98898018D01*
X133667100Y-98813204D01*
X133526059Y-98754783D01*
X133376331Y-98725000D01*
X133223669Y-98725000D01*
X133073941Y-98754783D01*
X132932900Y-98813204D01*
X132805966Y-98898018D01*
X132780503Y-98923481D01*
X132701982Y-98805966D01*
X132594034Y-98698018D01*
X132467100Y-98613204D01*
X132326059Y-98554783D01*
X132176331Y-98525000D01*
X132023669Y-98525000D01*
X131873941Y-98554783D01*
X131732900Y-98613204D01*
X131605966Y-98698018D01*
X131498018Y-98805966D01*
X131413204Y-98932900D01*
X131354783Y-99073941D01*
X131325000Y-99223669D01*
X131325000Y-99367894D01*
X131092895Y-99600000D01*
X130124549Y-99600000D01*
X130099999Y-99597582D01*
X130075449Y-99600000D01*
X130075440Y-99600000D01*
X130001983Y-99607235D01*
X129907733Y-99635825D01*
X129820871Y-99682254D01*
X129744736Y-99744736D01*
X129729080Y-99763813D01*
X128174042Y-101318852D01*
X128145217Y-101173941D01*
X128086796Y-101032900D01*
X128001982Y-100905966D01*
X127894034Y-100798018D01*
X127767100Y-100713204D01*
X127626059Y-100654783D01*
X127476331Y-100625000D01*
X127323669Y-100625000D01*
X127173941Y-100654783D01*
X127032900Y-100713204D01*
X126905966Y-100798018D01*
X126805829Y-100898155D01*
X126800000Y-100897581D01*
X126775440Y-100900000D01*
X126701983Y-100907235D01*
X126607733Y-100935825D01*
X126520871Y-100982254D01*
X126444736Y-101044736D01*
X126429075Y-101063819D01*
X126258823Y-101234072D01*
X126239736Y-101249736D01*
X126177254Y-101325871D01*
X126130825Y-101412734D01*
X126111533Y-101476331D01*
X126102235Y-101506983D01*
X126092581Y-101605000D01*
X126095000Y-101629560D01*
X126095000Y-101759009D01*
X126072486Y-101777486D01*
X126006970Y-101857318D01*
X125958287Y-101948397D01*
X125928309Y-102047224D01*
X125918186Y-102150000D01*
X125918186Y-102300000D01*
X125724557Y-102300000D01*
X125699999Y-102297581D01*
X125675441Y-102300000D01*
X125675440Y-102300000D01*
X125601983Y-102307235D01*
X125507733Y-102335825D01*
X125420871Y-102382254D01*
X125344736Y-102444736D01*
X125329075Y-102463819D01*
X124892895Y-102900000D01*
X124445403Y-102900000D01*
X124439630Y-102892966D01*
X124530478Y-102884549D01*
X124650007Y-102849044D01*
X124760312Y-102790903D01*
X124857155Y-102712359D01*
X124936814Y-102616432D01*
X124996227Y-102506807D01*
X125033113Y-102387697D01*
X125043000Y-102267250D01*
X124884750Y-102109000D01*
X124229000Y-102109000D01*
X124229000Y-102129000D01*
X123971000Y-102129000D01*
X123971000Y-102109000D01*
X123951000Y-102109000D01*
X123951000Y-101851000D01*
X123971000Y-101851000D01*
X123971000Y-101831000D01*
X124229000Y-101831000D01*
X124229000Y-101851000D01*
X124884750Y-101851000D01*
X125043000Y-101692750D01*
X125033113Y-101572303D01*
X124996227Y-101453193D01*
X124936814Y-101343568D01*
X124857155Y-101247641D01*
X124784024Y-101188328D01*
X124786814Y-101160000D01*
X124786814Y-100975000D01*
X124851331Y-100975000D01*
X125001059Y-100945217D01*
X125142100Y-100886796D01*
X125269034Y-100801982D01*
X125371016Y-100700000D01*
X125703984Y-100700000D01*
X125805966Y-100801982D01*
X125932900Y-100886796D01*
X126073941Y-100945217D01*
X126223669Y-100975000D01*
X126376331Y-100975000D01*
X126526059Y-100945217D01*
X126667100Y-100886796D01*
X126794034Y-100801982D01*
X126901982Y-100694034D01*
X126986796Y-100567100D01*
X127045217Y-100426059D01*
X127075000Y-100276331D01*
X127075000Y-100123669D01*
X127045217Y-99973941D01*
X126986796Y-99832900D01*
X126901982Y-99705966D01*
X126851561Y-99655545D01*
X126931176Y-99575929D01*
X126950264Y-99560264D01*
X127012746Y-99484129D01*
X127059175Y-99397267D01*
X127087765Y-99303017D01*
X127095000Y-99229560D01*
X127095000Y-99229559D01*
X127097419Y-99205001D01*
X127095000Y-99180443D01*
X127095000Y-99100003D01*
X129803984Y-99100003D01*
X129905966Y-99201985D01*
X130032900Y-99286799D01*
X130173941Y-99345220D01*
X130323669Y-99375003D01*
X130476331Y-99375003D01*
X130626059Y-99345220D01*
X130767100Y-99286799D01*
X130894034Y-99201985D01*
X131001982Y-99094037D01*
X131086796Y-98967103D01*
X131145217Y-98826062D01*
X131175000Y-98676334D01*
X131175000Y-98523672D01*
X131145217Y-98373944D01*
X131130085Y-98337411D01*
X131144736Y-98355264D01*
G04 #@! TA.AperFunction,Conductor*
D29*
G36*
X131144736Y-98355264D02*
G01*
X131220871Y-98417746D01*
X131307733Y-98464175D01*
X131401983Y-98492765D01*
X131475440Y-98500000D01*
X131475441Y-98500000D01*
X131499999Y-98502419D01*
X131524557Y-98500000D01*
X134692894Y-98500000D01*
X134800000Y-98607106D01*
X134800001Y-100728110D01*
X134750000Y-100723186D01*
X133850000Y-100723186D01*
X133800000Y-100728110D01*
X133800000Y-100096016D01*
X133901982Y-99994034D01*
X133986796Y-99867100D01*
X134045217Y-99726059D01*
X134075000Y-99576331D01*
X134075000Y-99423669D01*
X134045217Y-99273941D01*
X133986796Y-99132900D01*
X133901982Y-99005966D01*
X133794034Y-98898018D01*
X133667100Y-98813204D01*
X133526059Y-98754783D01*
X133376331Y-98725000D01*
X133223669Y-98725000D01*
X133073941Y-98754783D01*
X132932900Y-98813204D01*
X132805966Y-98898018D01*
X132780503Y-98923481D01*
X132701982Y-98805966D01*
X132594034Y-98698018D01*
X132467100Y-98613204D01*
X132326059Y-98554783D01*
X132176331Y-98525000D01*
X132023669Y-98525000D01*
X131873941Y-98554783D01*
X131732900Y-98613204D01*
X131605966Y-98698018D01*
X131498018Y-98805966D01*
X131413204Y-98932900D01*
X131354783Y-99073941D01*
X131325000Y-99223669D01*
X131325000Y-99367894D01*
X131092895Y-99600000D01*
X130124549Y-99600000D01*
X130099999Y-99597582D01*
X130075449Y-99600000D01*
X130075440Y-99600000D01*
X130001983Y-99607235D01*
X129907733Y-99635825D01*
X129820871Y-99682254D01*
X129744736Y-99744736D01*
X129729080Y-99763813D01*
X128174042Y-101318852D01*
X128145217Y-101173941D01*
X128086796Y-101032900D01*
X128001982Y-100905966D01*
X127894034Y-100798018D01*
X127767100Y-100713204D01*
X127626059Y-100654783D01*
X127476331Y-100625000D01*
X127323669Y-100625000D01*
X127173941Y-100654783D01*
X127032900Y-100713204D01*
X126905966Y-100798018D01*
X126805829Y-100898155D01*
X126800000Y-100897581D01*
X126775440Y-100900000D01*
X126701983Y-100907235D01*
X126607733Y-100935825D01*
X126520871Y-100982254D01*
X126444736Y-101044736D01*
X126429075Y-101063819D01*
X126258823Y-101234072D01*
X126239736Y-101249736D01*
X126177254Y-101325871D01*
X126130825Y-101412734D01*
X126111533Y-101476331D01*
X126102235Y-101506983D01*
X126092581Y-101605000D01*
X126095000Y-101629560D01*
X126095000Y-101759009D01*
X126072486Y-101777486D01*
X126006970Y-101857318D01*
X125958287Y-101948397D01*
X125928309Y-102047224D01*
X125918186Y-102150000D01*
X125918186Y-102300000D01*
X125724557Y-102300000D01*
X125699999Y-102297581D01*
X125675441Y-102300000D01*
X125675440Y-102300000D01*
X125601983Y-102307235D01*
X125507733Y-102335825D01*
X125420871Y-102382254D01*
X125344736Y-102444736D01*
X125329075Y-102463819D01*
X124892895Y-102900000D01*
X124445403Y-102900000D01*
X124439630Y-102892966D01*
X124530478Y-102884549D01*
X124650007Y-102849044D01*
X124760312Y-102790903D01*
X124857155Y-102712359D01*
X124936814Y-102616432D01*
X124996227Y-102506807D01*
X125033113Y-102387697D01*
X125043000Y-102267250D01*
X124884750Y-102109000D01*
X124229000Y-102109000D01*
X124229000Y-102129000D01*
X123971000Y-102129000D01*
X123971000Y-102109000D01*
X123951000Y-102109000D01*
X123951000Y-101851000D01*
X123971000Y-101851000D01*
X123971000Y-101831000D01*
X124229000Y-101831000D01*
X124229000Y-101851000D01*
X124884750Y-101851000D01*
X125043000Y-101692750D01*
X125033113Y-101572303D01*
X124996227Y-101453193D01*
X124936814Y-101343568D01*
X124857155Y-101247641D01*
X124784024Y-101188328D01*
X124786814Y-101160000D01*
X124786814Y-100975000D01*
X124851331Y-100975000D01*
X125001059Y-100945217D01*
X125142100Y-100886796D01*
X125269034Y-100801982D01*
X125371016Y-100700000D01*
X125703984Y-100700000D01*
X125805966Y-100801982D01*
X125932900Y-100886796D01*
X126073941Y-100945217D01*
X126223669Y-100975000D01*
X126376331Y-100975000D01*
X126526059Y-100945217D01*
X126667100Y-100886796D01*
X126794034Y-100801982D01*
X126901982Y-100694034D01*
X126986796Y-100567100D01*
X127045217Y-100426059D01*
X127075000Y-100276331D01*
X127075000Y-100123669D01*
X127045217Y-99973941D01*
X126986796Y-99832900D01*
X126901982Y-99705966D01*
X126851561Y-99655545D01*
X126931176Y-99575929D01*
X126950264Y-99560264D01*
X127012746Y-99484129D01*
X127059175Y-99397267D01*
X127087765Y-99303017D01*
X127095000Y-99229560D01*
X127095000Y-99229559D01*
X127097419Y-99205001D01*
X127095000Y-99180443D01*
X127095000Y-99100003D01*
X129803984Y-99100003D01*
X129905966Y-99201985D01*
X130032900Y-99286799D01*
X130173941Y-99345220D01*
X130323669Y-99375003D01*
X130476331Y-99375003D01*
X130626059Y-99345220D01*
X130767100Y-99286799D01*
X130894034Y-99201985D01*
X131001982Y-99094037D01*
X131086796Y-98967103D01*
X131145217Y-98826062D01*
X131175000Y-98676334D01*
X131175000Y-98523672D01*
X131145217Y-98373944D01*
X131130085Y-98337411D01*
X131144736Y-98355264D01*
G37*
G04 #@! TD.AperFunction*
D28*
X155449000Y-99971000D02*
X155469000Y-99971000D01*
X155469000Y-100229000D01*
X155449000Y-100229000D01*
X155449000Y-101171000D01*
X155469000Y-101171000D01*
X155469000Y-101429000D01*
X155449000Y-101429000D01*
X155449000Y-101449000D01*
X155191000Y-101449000D01*
X155191000Y-101429000D01*
X155171000Y-101429000D01*
X155171000Y-101171000D01*
X155191000Y-101171000D01*
X155191000Y-100229000D01*
X155171000Y-100229000D01*
X155171000Y-99971000D01*
X155191000Y-99971000D01*
X155191000Y-99964990D01*
X155449000Y-99964990D01*
X155449000Y-99971000D01*
G04 #@! TA.AperFunction,Conductor*
D29*
G36*
X155449000Y-99971000D02*
G01*
X155469000Y-99971000D01*
X155469000Y-100229000D01*
X155449000Y-100229000D01*
X155449000Y-101171000D01*
X155469000Y-101171000D01*
X155469000Y-101429000D01*
X155449000Y-101429000D01*
X155449000Y-101449000D01*
X155191000Y-101449000D01*
X155191000Y-101429000D01*
X155171000Y-101429000D01*
X155171000Y-101171000D01*
X155191000Y-101171000D01*
X155191000Y-100229000D01*
X155171000Y-100229000D01*
X155171000Y-99971000D01*
X155191000Y-99971000D01*
X155191000Y-99964990D01*
X155449000Y-99964990D01*
X155449000Y-99971000D01*
G37*
G04 #@! TD.AperFunction*
D28*
X155613204Y-96117099D02*
X155698018Y-96244033D01*
X155800000Y-96346015D01*
X155800001Y-96992893D01*
X155317896Y-97474999D01*
X153074561Y-97474999D01*
X153050001Y-97472580D01*
X153009769Y-97476543D01*
X152876331Y-97450000D01*
X152723669Y-97450000D01*
X152573941Y-97479783D01*
X152432900Y-97538204D01*
X152305966Y-97623018D01*
X152198018Y-97730966D01*
X152113204Y-97857900D01*
X152054783Y-97998941D01*
X152025000Y-98148669D01*
X152025000Y-98301331D01*
X152054783Y-98451059D01*
X152113204Y-98592100D01*
X152198018Y-98719034D01*
X152305966Y-98826982D01*
X152432900Y-98911796D01*
X152573941Y-98970217D01*
X152723669Y-99000000D01*
X152876331Y-99000000D01*
X153026059Y-98970217D01*
X153167100Y-98911796D01*
X153294034Y-98826982D01*
X153401982Y-98719034D01*
X153486796Y-98592100D01*
X153535301Y-98474999D01*
X155154573Y-98474999D01*
X155125000Y-98623669D01*
X155125000Y-98776331D01*
X155154783Y-98926059D01*
X155170909Y-98964990D01*
X154569569Y-98964990D01*
X154545009Y-98962571D01*
X154446992Y-98972225D01*
X154424233Y-98979129D01*
X154352743Y-99000815D01*
X154265881Y-99047244D01*
X154189746Y-99109726D01*
X154174085Y-99128809D01*
X154099708Y-99203186D01*
X153975000Y-99203186D01*
X153875150Y-99213020D01*
X153779137Y-99242146D01*
X153690651Y-99289442D01*
X153613093Y-99353093D01*
X153600000Y-99369047D01*
X153586907Y-99353093D01*
X153509349Y-99289442D01*
X153420863Y-99242146D01*
X153324850Y-99213020D01*
X153225000Y-99203186D01*
X152955000Y-99203186D01*
X152855150Y-99213020D01*
X152759137Y-99242146D01*
X152670651Y-99289442D01*
X152593093Y-99353093D01*
X152529442Y-99430651D01*
X152482146Y-99519137D01*
X152453020Y-99615150D01*
X152443186Y-99715000D01*
X152443186Y-100085000D01*
X152453020Y-100184850D01*
X152482146Y-100280863D01*
X152529442Y-100369349D01*
X152590000Y-100443139D01*
X152590001Y-100489976D01*
X152513093Y-100553093D01*
X152500000Y-100569047D01*
X152486907Y-100553093D01*
X152409349Y-100489442D01*
X152320863Y-100442146D01*
X152224850Y-100413020D01*
X152125000Y-100403186D01*
X151855000Y-100403186D01*
X151755150Y-100413020D01*
X151659137Y-100442146D01*
X151570651Y-100489442D01*
X151493093Y-100553093D01*
X151429442Y-100630651D01*
X151382146Y-100719137D01*
X151353020Y-100815150D01*
X151343186Y-100915000D01*
X151343186Y-101039708D01*
X150973909Y-101408985D01*
X150972974Y-101399488D01*
X150957962Y-101350000D01*
X150972974Y-101300512D01*
X150980214Y-101226999D01*
X150980214Y-100972999D01*
X150972974Y-100899486D01*
X150951531Y-100828799D01*
X150943435Y-100813652D01*
X150944175Y-100812267D01*
X150972765Y-100718017D01*
X150980000Y-100644560D01*
X150980000Y-100644551D01*
X150982418Y-100620001D01*
X150980000Y-100595451D01*
X150980000Y-100239910D01*
X150985443Y-100235443D01*
X151049715Y-100157126D01*
X151097474Y-100067776D01*
X151126884Y-99970825D01*
X151136814Y-99870000D01*
X151136814Y-99530000D01*
X151126884Y-99429175D01*
X151097474Y-99332224D01*
X151049715Y-99242874D01*
X150985443Y-99164557D01*
X150980000Y-99160090D01*
X150980000Y-98504557D01*
X150982419Y-98479999D01*
X150980000Y-98455440D01*
X150972765Y-98381983D01*
X150944175Y-98287733D01*
X150897746Y-98200871D01*
X150835264Y-98124736D01*
X150816181Y-98109075D01*
X149775000Y-97067895D01*
X149775000Y-96923669D01*
X149745217Y-96773941D01*
X149691901Y-96645225D01*
X149737531Y-96640731D01*
X149845737Y-96607907D01*
X149945461Y-96554603D01*
X150032869Y-96482869D01*
X150104603Y-96395461D01*
X150155628Y-96300000D01*
X155075440Y-96300000D01*
X155100000Y-96302419D01*
X155124560Y-96300000D01*
X155198017Y-96292765D01*
X155292267Y-96264175D01*
X155379129Y-96217746D01*
X155455264Y-96155264D01*
X155470929Y-96136176D01*
X155577120Y-96029985D01*
X155613204Y-96117099D01*
G04 #@! TA.AperFunction,Conductor*
D29*
G36*
X155613204Y-96117099D02*
G01*
X155698018Y-96244033D01*
X155800000Y-96346015D01*
X155800001Y-96992893D01*
X155317896Y-97474999D01*
X153074561Y-97474999D01*
X153050001Y-97472580D01*
X153009769Y-97476543D01*
X152876331Y-97450000D01*
X152723669Y-97450000D01*
X152573941Y-97479783D01*
X152432900Y-97538204D01*
X152305966Y-97623018D01*
X152198018Y-97730966D01*
X152113204Y-97857900D01*
X152054783Y-97998941D01*
X152025000Y-98148669D01*
X152025000Y-98301331D01*
X152054783Y-98451059D01*
X152113204Y-98592100D01*
X152198018Y-98719034D01*
X152305966Y-98826982D01*
X152432900Y-98911796D01*
X152573941Y-98970217D01*
X152723669Y-99000000D01*
X152876331Y-99000000D01*
X153026059Y-98970217D01*
X153167100Y-98911796D01*
X153294034Y-98826982D01*
X153401982Y-98719034D01*
X153486796Y-98592100D01*
X153535301Y-98474999D01*
X155154573Y-98474999D01*
X155125000Y-98623669D01*
X155125000Y-98776331D01*
X155154783Y-98926059D01*
X155170909Y-98964990D01*
X154569569Y-98964990D01*
X154545009Y-98962571D01*
X154446992Y-98972225D01*
X154424233Y-98979129D01*
X154352743Y-99000815D01*
X154265881Y-99047244D01*
X154189746Y-99109726D01*
X154174085Y-99128809D01*
X154099708Y-99203186D01*
X153975000Y-99203186D01*
X153875150Y-99213020D01*
X153779137Y-99242146D01*
X153690651Y-99289442D01*
X153613093Y-99353093D01*
X153600000Y-99369047D01*
X153586907Y-99353093D01*
X153509349Y-99289442D01*
X153420863Y-99242146D01*
X153324850Y-99213020D01*
X153225000Y-99203186D01*
X152955000Y-99203186D01*
X152855150Y-99213020D01*
X152759137Y-99242146D01*
X152670651Y-99289442D01*
X152593093Y-99353093D01*
X152529442Y-99430651D01*
X152482146Y-99519137D01*
X152453020Y-99615150D01*
X152443186Y-99715000D01*
X152443186Y-100085000D01*
X152453020Y-100184850D01*
X152482146Y-100280863D01*
X152529442Y-100369349D01*
X152590000Y-100443139D01*
X152590001Y-100489976D01*
X152513093Y-100553093D01*
X152500000Y-100569047D01*
X152486907Y-100553093D01*
X152409349Y-100489442D01*
X152320863Y-100442146D01*
X152224850Y-100413020D01*
X152125000Y-100403186D01*
X151855000Y-100403186D01*
X151755150Y-100413020D01*
X151659137Y-100442146D01*
X151570651Y-100489442D01*
X151493093Y-100553093D01*
X151429442Y-100630651D01*
X151382146Y-100719137D01*
X151353020Y-100815150D01*
X151343186Y-100915000D01*
X151343186Y-101039708D01*
X150973909Y-101408985D01*
X150972974Y-101399488D01*
X150957962Y-101350000D01*
X150972974Y-101300512D01*
X150980214Y-101226999D01*
X150980214Y-100972999D01*
X150972974Y-100899486D01*
X150951531Y-100828799D01*
X150943435Y-100813652D01*
X150944175Y-100812267D01*
X150972765Y-100718017D01*
X150980000Y-100644560D01*
X150980000Y-100644551D01*
X150982418Y-100620001D01*
X150980000Y-100595451D01*
X150980000Y-100239910D01*
X150985443Y-100235443D01*
X151049715Y-100157126D01*
X151097474Y-100067776D01*
X151126884Y-99970825D01*
X151136814Y-99870000D01*
X151136814Y-99530000D01*
X151126884Y-99429175D01*
X151097474Y-99332224D01*
X151049715Y-99242874D01*
X150985443Y-99164557D01*
X150980000Y-99160090D01*
X150980000Y-98504557D01*
X150982419Y-98479999D01*
X150980000Y-98455440D01*
X150972765Y-98381983D01*
X150944175Y-98287733D01*
X150897746Y-98200871D01*
X150835264Y-98124736D01*
X150816181Y-98109075D01*
X149775000Y-97067895D01*
X149775000Y-96923669D01*
X149745217Y-96773941D01*
X149691901Y-96645225D01*
X149737531Y-96640731D01*
X149845737Y-96607907D01*
X149945461Y-96554603D01*
X150032869Y-96482869D01*
X150104603Y-96395461D01*
X150155628Y-96300000D01*
X155075440Y-96300000D01*
X155100000Y-96302419D01*
X155124560Y-96300000D01*
X155198017Y-96292765D01*
X155292267Y-96264175D01*
X155379129Y-96217746D01*
X155455264Y-96155264D01*
X155470929Y-96136176D01*
X155577120Y-96029985D01*
X155613204Y-96117099D01*
G37*
G04 #@! TD.AperFunction*
D28*
X137727374Y-100166656D02*
X137725000Y-100178594D01*
X137725000Y-100321406D01*
X137727374Y-100333344D01*
X137614142Y-100446576D01*
X137600000Y-100432434D01*
X137585858Y-100446576D01*
X137403424Y-100264142D01*
X137417566Y-100250000D01*
X137403424Y-100235858D01*
X137585858Y-100053424D01*
X137600000Y-100067566D01*
X137614142Y-100053424D01*
X137727374Y-100166656D01*
G04 #@! TA.AperFunction,Conductor*
D29*
G36*
X137727374Y-100166656D02*
G01*
X137725000Y-100178594D01*
X137725000Y-100321406D01*
X137727374Y-100333344D01*
X137614142Y-100446576D01*
X137600000Y-100432434D01*
X137585858Y-100446576D01*
X137403424Y-100264142D01*
X137417566Y-100250000D01*
X137403424Y-100235858D01*
X137585858Y-100053424D01*
X137600000Y-100067566D01*
X137614142Y-100053424D01*
X137727374Y-100166656D01*
G37*
G04 #@! TD.AperFunction*
D28*
X143746576Y-100235858D02*
X143732434Y-100250000D01*
X143746576Y-100264142D01*
X143564142Y-100446576D01*
X143550000Y-100432434D01*
X143535858Y-100446576D01*
X143422626Y-100333344D01*
X143425000Y-100321406D01*
X143425000Y-100178594D01*
X143422626Y-100166656D01*
X143535858Y-100053424D01*
X143550000Y-100067566D01*
X143564142Y-100053424D01*
X143746576Y-100235858D01*
G04 #@! TA.AperFunction,Conductor*
D29*
G36*
X143746576Y-100235858D02*
G01*
X143732434Y-100250000D01*
X143746576Y-100264142D01*
X143564142Y-100446576D01*
X143550000Y-100432434D01*
X143535858Y-100446576D01*
X143422626Y-100333344D01*
X143425000Y-100321406D01*
X143425000Y-100178594D01*
X143422626Y-100166656D01*
X143535858Y-100053424D01*
X143550000Y-100067566D01*
X143564142Y-100053424D01*
X143746576Y-100235858D01*
G37*
G04 #@! TD.AperFunction*
D28*
X132149811Y-94425251D02*
X132147392Y-94449811D01*
X132157046Y-94547828D01*
X132162005Y-94564174D01*
X132185636Y-94642077D01*
X132232065Y-94728940D01*
X132294547Y-94805075D01*
X132313635Y-94820740D01*
X132629075Y-95136181D01*
X132644736Y-95155264D01*
X132720871Y-95217746D01*
X132807733Y-95264175D01*
X132835448Y-95272582D01*
X132901982Y-95292765D01*
X132999999Y-95302419D01*
X133024559Y-95300000D01*
X133775440Y-95300000D01*
X133800000Y-95302419D01*
X133824560Y-95300000D01*
X133898017Y-95292765D01*
X133992267Y-95264175D01*
X134079129Y-95217746D01*
X134155264Y-95155264D01*
X134170929Y-95136177D01*
X134593045Y-94714061D01*
X139806955Y-94714061D01*
X140254081Y-95161187D01*
X140269737Y-95180265D01*
X140277563Y-95186687D01*
X140129000Y-95335250D01*
X140129000Y-95951000D01*
X140794750Y-95951000D01*
X140953000Y-95792750D01*
X140942103Y-95677469D01*
X140904294Y-95558649D01*
X140844030Y-95449489D01*
X140763629Y-95354183D01*
X140727072Y-95325001D01*
X141423441Y-95325001D01*
X141448001Y-95327420D01*
X141472561Y-95325001D01*
X141546018Y-95317766D01*
X141640268Y-95289176D01*
X141727130Y-95242747D01*
X141803265Y-95180265D01*
X141818930Y-95161177D01*
X142359183Y-94620925D01*
X142378266Y-94605264D01*
X142440748Y-94529129D01*
X142483044Y-94450000D01*
X143351313Y-94450000D01*
X143403823Y-94548239D01*
X143481776Y-94643224D01*
X143576761Y-94721177D01*
X143685129Y-94779101D01*
X143802715Y-94814770D01*
X143900001Y-94824352D01*
X143900001Y-95407298D01*
X143863629Y-95364183D01*
X143766179Y-95286393D01*
X143655426Y-95229110D01*
X143535626Y-95194535D01*
X143411382Y-95183995D01*
X143387250Y-95187000D01*
X143229000Y-95345250D01*
X143229000Y-95961000D01*
X143894750Y-95961000D01*
X144024791Y-95830959D01*
X144044737Y-95855264D01*
X144063820Y-95870925D01*
X144329071Y-96136176D01*
X144344736Y-96155264D01*
X144420871Y-96217746D01*
X144507733Y-96264175D01*
X144601983Y-96292765D01*
X144675440Y-96300000D01*
X144675441Y-96300000D01*
X144699999Y-96302419D01*
X144724557Y-96300000D01*
X147044372Y-96300000D01*
X147095397Y-96395461D01*
X147167131Y-96482869D01*
X147254539Y-96554603D01*
X147275000Y-96565540D01*
X147275001Y-98247771D01*
X147229009Y-98178939D01*
X147121061Y-98070991D01*
X146994127Y-97986177D01*
X146853086Y-97927756D01*
X146703358Y-97897973D01*
X146550696Y-97897973D01*
X146400968Y-97927756D01*
X146300000Y-97969578D01*
X146300000Y-97424560D01*
X146302419Y-97400000D01*
X146292765Y-97301983D01*
X146285832Y-97279128D01*
X146264175Y-97207733D01*
X146217746Y-97120871D01*
X146155264Y-97044736D01*
X146136176Y-97029071D01*
X145880929Y-96773824D01*
X145865264Y-96754736D01*
X145789129Y-96692254D01*
X145702267Y-96645825D01*
X145608017Y-96617235D01*
X145534560Y-96610000D01*
X145510000Y-96607581D01*
X145485440Y-96610000D01*
X144004724Y-96610000D01*
X144042103Y-96492531D01*
X144053000Y-96377250D01*
X143894750Y-96219000D01*
X143229000Y-96219000D01*
X143229000Y-96239000D01*
X142971000Y-96239000D01*
X142971000Y-96219000D01*
X142951000Y-96219000D01*
X142951000Y-95961000D01*
X142971000Y-95961000D01*
X142971000Y-95345250D01*
X142812750Y-95187000D01*
X142788618Y-95183995D01*
X142664374Y-95194535D01*
X142544574Y-95229110D01*
X142433821Y-95286393D01*
X142336371Y-95364183D01*
X142255970Y-95459489D01*
X142232518Y-95501970D01*
X142169897Y-95480661D01*
X142058250Y-95467000D01*
X141900000Y-95625250D01*
X141741750Y-95467000D01*
X141630103Y-95480661D01*
X141512060Y-95520829D01*
X141404121Y-95583255D01*
X141310436Y-95665539D01*
X141234603Y-95764519D01*
X141179538Y-95876392D01*
X141147355Y-95996857D01*
X141142000Y-96066750D01*
X141300250Y-96225000D01*
X142025000Y-96225000D01*
X142025000Y-96335000D01*
X141300250Y-96335000D01*
X141142000Y-96493250D01*
X141147355Y-96563143D01*
X141179538Y-96683608D01*
X141234603Y-96795481D01*
X141310436Y-96894461D01*
X141398186Y-96971532D01*
X141398186Y-97113857D01*
X141397581Y-97120000D01*
X141398186Y-97126143D01*
X141398186Y-97300000D01*
X141405426Y-97373513D01*
X141426869Y-97444200D01*
X141461691Y-97509347D01*
X141508552Y-97566448D01*
X141565653Y-97613309D01*
X141630800Y-97648131D01*
X141701487Y-97669574D01*
X141775000Y-97676814D01*
X142025000Y-97676814D01*
X142098513Y-97669574D01*
X142169200Y-97648131D01*
X142221829Y-97620000D01*
X142569047Y-97620000D01*
X142630651Y-97670558D01*
X142719137Y-97717854D01*
X142815150Y-97746980D01*
X142915000Y-97756814D01*
X143285000Y-97756814D01*
X143384850Y-97746980D01*
X143480863Y-97717854D01*
X143569349Y-97670558D01*
X143643138Y-97610000D01*
X145300000Y-97610000D01*
X145300000Y-98124734D01*
X145195624Y-98088129D01*
X145029000Y-98214292D01*
X145029000Y-99751000D01*
X145049000Y-99751000D01*
X145049000Y-100009000D01*
X145029000Y-100009000D01*
X145029000Y-100029000D01*
X144771000Y-100029000D01*
X144771000Y-100009000D01*
X144504671Y-100009000D01*
X144497059Y-99969393D01*
X144424118Y-99790023D01*
X144418091Y-99778747D01*
X144220632Y-99761804D01*
X144231436Y-99751000D01*
X144771000Y-99751000D01*
X144771000Y-98214292D01*
X144604376Y-98088129D01*
X144405576Y-98157849D01*
X144225419Y-98272986D01*
X144071186Y-98421057D01*
X143948804Y-98596373D01*
X143880718Y-98751716D01*
X143732434Y-98900000D01*
X143746576Y-98914142D01*
X143564142Y-99096576D01*
X143550000Y-99082434D01*
X143535858Y-99096576D01*
X143422626Y-98983344D01*
X143425000Y-98971406D01*
X143425000Y-98828594D01*
X143422626Y-98816656D01*
X143535858Y-98703424D01*
X143550000Y-98717566D01*
X144038196Y-98229370D01*
X144021253Y-98031909D01*
X143842842Y-97956652D01*
X143653177Y-97917648D01*
X143459547Y-97916395D01*
X143269393Y-97952941D01*
X143090023Y-98025882D01*
X143078747Y-98031909D01*
X143061804Y-98229368D01*
X142943197Y-98110761D01*
X142861114Y-98192844D01*
X142771406Y-98175000D01*
X142628594Y-98175000D01*
X142488525Y-98202861D01*
X142356584Y-98257513D01*
X142275000Y-98312026D01*
X142193416Y-98257513D01*
X142061475Y-98202861D01*
X141921406Y-98175000D01*
X141778594Y-98175000D01*
X141638525Y-98202861D01*
X141506584Y-98257513D01*
X141425000Y-98312026D01*
X141343416Y-98257513D01*
X141211475Y-98202861D01*
X141071406Y-98175000D01*
X140928594Y-98175000D01*
X140788525Y-98202861D01*
X140656584Y-98257513D01*
X140575000Y-98312026D01*
X140493416Y-98257513D01*
X140361475Y-98202861D01*
X140221406Y-98175000D01*
X140078594Y-98175000D01*
X139938525Y-98202861D01*
X139806584Y-98257513D01*
X139800000Y-98261912D01*
X139800000Y-98224560D01*
X139802419Y-98200000D01*
X139792765Y-98101983D01*
X139787124Y-98083386D01*
X139764175Y-98007733D01*
X139717746Y-97920871D01*
X139655264Y-97844736D01*
X139636186Y-97829079D01*
X139427106Y-97620000D01*
X139481232Y-97620000D01*
X139530651Y-97660558D01*
X139619137Y-97707854D01*
X139715150Y-97736980D01*
X139815000Y-97746814D01*
X140185000Y-97746814D01*
X140284850Y-97736980D01*
X140380863Y-97707854D01*
X140469349Y-97660558D01*
X140546907Y-97596907D01*
X140610558Y-97519349D01*
X140657854Y-97430863D01*
X140686980Y-97334850D01*
X140696814Y-97235000D01*
X140696814Y-96965000D01*
X140687149Y-96866867D01*
X140763629Y-96805817D01*
X140844030Y-96710511D01*
X140904294Y-96601351D01*
X140942103Y-96482531D01*
X140953000Y-96367250D01*
X140794750Y-96209000D01*
X140129000Y-96209000D01*
X140129000Y-96229000D01*
X139871000Y-96229000D01*
X139871000Y-96209000D01*
X139851000Y-96209000D01*
X139851000Y-95951000D01*
X139871000Y-95951000D01*
X139871000Y-95335250D01*
X139712750Y-95177000D01*
X139688618Y-95173995D01*
X139564374Y-95184535D01*
X139444574Y-95219110D01*
X139333821Y-95276393D01*
X139236371Y-95354183D01*
X139155970Y-95449489D01*
X139127870Y-95500388D01*
X139069897Y-95480661D01*
X138958250Y-95467000D01*
X138800000Y-95625250D01*
X138641750Y-95467000D01*
X138530103Y-95480661D01*
X138412060Y-95520829D01*
X138330696Y-95567885D01*
X138326884Y-95529175D01*
X138297474Y-95432224D01*
X138249715Y-95342874D01*
X138185443Y-95264557D01*
X138107126Y-95200285D01*
X138017776Y-95152526D01*
X137920825Y-95123116D01*
X137820000Y-95113186D01*
X137540000Y-95113186D01*
X137511672Y-95115976D01*
X137452359Y-95042845D01*
X137356432Y-94963186D01*
X137246807Y-94903773D01*
X137127697Y-94866887D01*
X137007250Y-94857000D01*
X136849000Y-95015250D01*
X136849000Y-95671000D01*
X136869000Y-95671000D01*
X136869000Y-95929000D01*
X136849000Y-95929000D01*
X136849000Y-95949000D01*
X136591000Y-95949000D01*
X136591000Y-95929000D01*
X135965250Y-95929000D01*
X135807000Y-96087250D01*
X135803948Y-96106320D01*
X135815451Y-96230478D01*
X135850956Y-96350007D01*
X135909097Y-96460312D01*
X135987641Y-96557155D01*
X136083568Y-96636814D01*
X136107915Y-96650009D01*
X136080661Y-96730103D01*
X136067000Y-96841750D01*
X136225250Y-97000000D01*
X136067000Y-97158250D01*
X136080661Y-97269897D01*
X136120829Y-97387940D01*
X136183255Y-97495879D01*
X136265539Y-97589564D01*
X136364519Y-97665397D01*
X136476392Y-97720462D01*
X136596857Y-97752645D01*
X136666750Y-97758000D01*
X136825000Y-97599750D01*
X136825000Y-96875000D01*
X136935000Y-96875000D01*
X136935000Y-97599750D01*
X137093250Y-97758000D01*
X137163143Y-97752645D01*
X137220000Y-97737455D01*
X137220000Y-97895439D01*
X137217581Y-97920000D01*
X137224621Y-97991480D01*
X137140023Y-98025882D01*
X137128747Y-98031909D01*
X137111804Y-98229370D01*
X137600000Y-98717566D01*
X137614142Y-98703424D01*
X137727374Y-98816656D01*
X137725000Y-98828594D01*
X137725000Y-98971406D01*
X137727374Y-98983344D01*
X137614142Y-99096576D01*
X137600000Y-99082434D01*
X137585858Y-99096576D01*
X137403424Y-98914142D01*
X137417566Y-98900000D01*
X137269282Y-98751716D01*
X137201196Y-98596373D01*
X137078814Y-98421057D01*
X136924581Y-98272986D01*
X136744424Y-98157849D01*
X136545624Y-98088129D01*
X136379000Y-98214292D01*
X136379000Y-99751000D01*
X136918564Y-99751000D01*
X136929368Y-99761804D01*
X136731909Y-99778747D01*
X136656652Y-99957158D01*
X136645991Y-100009000D01*
X136379000Y-100009000D01*
X136379000Y-100029000D01*
X136121000Y-100029000D01*
X136121000Y-100009000D01*
X136101000Y-100009000D01*
X136101000Y-99751000D01*
X136121000Y-99751000D01*
X136121000Y-98214292D01*
X135954376Y-98088129D01*
X135755576Y-98157849D01*
X135742111Y-98166454D01*
X135717746Y-98120871D01*
X135655264Y-98044736D01*
X135636186Y-98029079D01*
X135270928Y-97663823D01*
X135255264Y-97644736D01*
X135179129Y-97582254D01*
X135092267Y-97535825D01*
X134998017Y-97507235D01*
X134924560Y-97500000D01*
X134900000Y-97497581D01*
X134875440Y-97500000D01*
X131707105Y-97500000D01*
X131700000Y-97492895D01*
X131700000Y-95493680D01*
X135803948Y-95493680D01*
X135807000Y-95512750D01*
X135965250Y-95671000D01*
X136591000Y-95671000D01*
X136591000Y-95015250D01*
X136432750Y-94857000D01*
X136312303Y-94866887D01*
X136193193Y-94903773D01*
X136083568Y-94963186D01*
X135987641Y-95042845D01*
X135909097Y-95139688D01*
X135850956Y-95249993D01*
X135815451Y-95369522D01*
X135803948Y-95493680D01*
X131700000Y-95493680D01*
X131700000Y-94624559D01*
X131702419Y-94599999D01*
X131692765Y-94501982D01*
X131676395Y-94448017D01*
X131664175Y-94407733D01*
X131617746Y-94320871D01*
X131555264Y-94244736D01*
X131536181Y-94229075D01*
X131364557Y-94057451D01*
X131426059Y-94045217D01*
X131567100Y-93986796D01*
X131694034Y-93901982D01*
X131801982Y-93794034D01*
X131831278Y-93750189D01*
X132149812Y-93750189D01*
X132149811Y-94425251D01*
G04 #@! TA.AperFunction,Conductor*
D29*
G36*
X132149811Y-94425251D02*
G01*
X132147392Y-94449811D01*
X132157046Y-94547828D01*
X132162005Y-94564174D01*
X132185636Y-94642077D01*
X132232065Y-94728940D01*
X132294547Y-94805075D01*
X132313635Y-94820740D01*
X132629075Y-95136181D01*
X132644736Y-95155264D01*
X132720871Y-95217746D01*
X132807733Y-95264175D01*
X132835448Y-95272582D01*
X132901982Y-95292765D01*
X132999999Y-95302419D01*
X133024559Y-95300000D01*
X133775440Y-95300000D01*
X133800000Y-95302419D01*
X133824560Y-95300000D01*
X133898017Y-95292765D01*
X133992267Y-95264175D01*
X134079129Y-95217746D01*
X134155264Y-95155264D01*
X134170929Y-95136177D01*
X134593045Y-94714061D01*
X139806955Y-94714061D01*
X140254081Y-95161187D01*
X140269737Y-95180265D01*
X140277563Y-95186687D01*
X140129000Y-95335250D01*
X140129000Y-95951000D01*
X140794750Y-95951000D01*
X140953000Y-95792750D01*
X140942103Y-95677469D01*
X140904294Y-95558649D01*
X140844030Y-95449489D01*
X140763629Y-95354183D01*
X140727072Y-95325001D01*
X141423441Y-95325001D01*
X141448001Y-95327420D01*
X141472561Y-95325001D01*
X141546018Y-95317766D01*
X141640268Y-95289176D01*
X141727130Y-95242747D01*
X141803265Y-95180265D01*
X141818930Y-95161177D01*
X142359183Y-94620925D01*
X142378266Y-94605264D01*
X142440748Y-94529129D01*
X142483044Y-94450000D01*
X143351313Y-94450000D01*
X143403823Y-94548239D01*
X143481776Y-94643224D01*
X143576761Y-94721177D01*
X143685129Y-94779101D01*
X143802715Y-94814770D01*
X143900001Y-94824352D01*
X143900001Y-95407298D01*
X143863629Y-95364183D01*
X143766179Y-95286393D01*
X143655426Y-95229110D01*
X143535626Y-95194535D01*
X143411382Y-95183995D01*
X143387250Y-95187000D01*
X143229000Y-95345250D01*
X143229000Y-95961000D01*
X143894750Y-95961000D01*
X144024791Y-95830959D01*
X144044737Y-95855264D01*
X144063820Y-95870925D01*
X144329071Y-96136176D01*
X144344736Y-96155264D01*
X144420871Y-96217746D01*
X144507733Y-96264175D01*
X144601983Y-96292765D01*
X144675440Y-96300000D01*
X144675441Y-96300000D01*
X144699999Y-96302419D01*
X144724557Y-96300000D01*
X147044372Y-96300000D01*
X147095397Y-96395461D01*
X147167131Y-96482869D01*
X147254539Y-96554603D01*
X147275000Y-96565540D01*
X147275001Y-98247771D01*
X147229009Y-98178939D01*
X147121061Y-98070991D01*
X146994127Y-97986177D01*
X146853086Y-97927756D01*
X146703358Y-97897973D01*
X146550696Y-97897973D01*
X146400968Y-97927756D01*
X146300000Y-97969578D01*
X146300000Y-97424560D01*
X146302419Y-97400000D01*
X146292765Y-97301983D01*
X146285832Y-97279128D01*
X146264175Y-97207733D01*
X146217746Y-97120871D01*
X146155264Y-97044736D01*
X146136176Y-97029071D01*
X145880929Y-96773824D01*
X145865264Y-96754736D01*
X145789129Y-96692254D01*
X145702267Y-96645825D01*
X145608017Y-96617235D01*
X145534560Y-96610000D01*
X145510000Y-96607581D01*
X145485440Y-96610000D01*
X144004724Y-96610000D01*
X144042103Y-96492531D01*
X144053000Y-96377250D01*
X143894750Y-96219000D01*
X143229000Y-96219000D01*
X143229000Y-96239000D01*
X142971000Y-96239000D01*
X142971000Y-96219000D01*
X142951000Y-96219000D01*
X142951000Y-95961000D01*
X142971000Y-95961000D01*
X142971000Y-95345250D01*
X142812750Y-95187000D01*
X142788618Y-95183995D01*
X142664374Y-95194535D01*
X142544574Y-95229110D01*
X142433821Y-95286393D01*
X142336371Y-95364183D01*
X142255970Y-95459489D01*
X142232518Y-95501970D01*
X142169897Y-95480661D01*
X142058250Y-95467000D01*
X141900000Y-95625250D01*
X141741750Y-95467000D01*
X141630103Y-95480661D01*
X141512060Y-95520829D01*
X141404121Y-95583255D01*
X141310436Y-95665539D01*
X141234603Y-95764519D01*
X141179538Y-95876392D01*
X141147355Y-95996857D01*
X141142000Y-96066750D01*
X141300250Y-96225000D01*
X142025000Y-96225000D01*
X142025000Y-96335000D01*
X141300250Y-96335000D01*
X141142000Y-96493250D01*
X141147355Y-96563143D01*
X141179538Y-96683608D01*
X141234603Y-96795481D01*
X141310436Y-96894461D01*
X141398186Y-96971532D01*
X141398186Y-97113857D01*
X141397581Y-97120000D01*
X141398186Y-97126143D01*
X141398186Y-97300000D01*
X141405426Y-97373513D01*
X141426869Y-97444200D01*
X141461691Y-97509347D01*
X141508552Y-97566448D01*
X141565653Y-97613309D01*
X141630800Y-97648131D01*
X141701487Y-97669574D01*
X141775000Y-97676814D01*
X142025000Y-97676814D01*
X142098513Y-97669574D01*
X142169200Y-97648131D01*
X142221829Y-97620000D01*
X142569047Y-97620000D01*
X142630651Y-97670558D01*
X142719137Y-97717854D01*
X142815150Y-97746980D01*
X142915000Y-97756814D01*
X143285000Y-97756814D01*
X143384850Y-97746980D01*
X143480863Y-97717854D01*
X143569349Y-97670558D01*
X143643138Y-97610000D01*
X145300000Y-97610000D01*
X145300000Y-98124734D01*
X145195624Y-98088129D01*
X145029000Y-98214292D01*
X145029000Y-99751000D01*
X145049000Y-99751000D01*
X145049000Y-100009000D01*
X145029000Y-100009000D01*
X145029000Y-100029000D01*
X144771000Y-100029000D01*
X144771000Y-100009000D01*
X144504671Y-100009000D01*
X144497059Y-99969393D01*
X144424118Y-99790023D01*
X144418091Y-99778747D01*
X144220632Y-99761804D01*
X144231436Y-99751000D01*
X144771000Y-99751000D01*
X144771000Y-98214292D01*
X144604376Y-98088129D01*
X144405576Y-98157849D01*
X144225419Y-98272986D01*
X144071186Y-98421057D01*
X143948804Y-98596373D01*
X143880718Y-98751716D01*
X143732434Y-98900000D01*
X143746576Y-98914142D01*
X143564142Y-99096576D01*
X143550000Y-99082434D01*
X143535858Y-99096576D01*
X143422626Y-98983344D01*
X143425000Y-98971406D01*
X143425000Y-98828594D01*
X143422626Y-98816656D01*
X143535858Y-98703424D01*
X143550000Y-98717566D01*
X144038196Y-98229370D01*
X144021253Y-98031909D01*
X143842842Y-97956652D01*
X143653177Y-97917648D01*
X143459547Y-97916395D01*
X143269393Y-97952941D01*
X143090023Y-98025882D01*
X143078747Y-98031909D01*
X143061804Y-98229368D01*
X142943197Y-98110761D01*
X142861114Y-98192844D01*
X142771406Y-98175000D01*
X142628594Y-98175000D01*
X142488525Y-98202861D01*
X142356584Y-98257513D01*
X142275000Y-98312026D01*
X142193416Y-98257513D01*
X142061475Y-98202861D01*
X141921406Y-98175000D01*
X141778594Y-98175000D01*
X141638525Y-98202861D01*
X141506584Y-98257513D01*
X141425000Y-98312026D01*
X141343416Y-98257513D01*
X141211475Y-98202861D01*
X141071406Y-98175000D01*
X140928594Y-98175000D01*
X140788525Y-98202861D01*
X140656584Y-98257513D01*
X140575000Y-98312026D01*
X140493416Y-98257513D01*
X140361475Y-98202861D01*
X140221406Y-98175000D01*
X140078594Y-98175000D01*
X139938525Y-98202861D01*
X139806584Y-98257513D01*
X139800000Y-98261912D01*
X139800000Y-98224560D01*
X139802419Y-98200000D01*
X139792765Y-98101983D01*
X139787124Y-98083386D01*
X139764175Y-98007733D01*
X139717746Y-97920871D01*
X139655264Y-97844736D01*
X139636186Y-97829079D01*
X139427106Y-97620000D01*
X139481232Y-97620000D01*
X139530651Y-97660558D01*
X139619137Y-97707854D01*
X139715150Y-97736980D01*
X139815000Y-97746814D01*
X140185000Y-97746814D01*
X140284850Y-97736980D01*
X140380863Y-97707854D01*
X140469349Y-97660558D01*
X140546907Y-97596907D01*
X140610558Y-97519349D01*
X140657854Y-97430863D01*
X140686980Y-97334850D01*
X140696814Y-97235000D01*
X140696814Y-96965000D01*
X140687149Y-96866867D01*
X140763629Y-96805817D01*
X140844030Y-96710511D01*
X140904294Y-96601351D01*
X140942103Y-96482531D01*
X140953000Y-96367250D01*
X140794750Y-96209000D01*
X140129000Y-96209000D01*
X140129000Y-96229000D01*
X139871000Y-96229000D01*
X139871000Y-96209000D01*
X139851000Y-96209000D01*
X139851000Y-95951000D01*
X139871000Y-95951000D01*
X139871000Y-95335250D01*
X139712750Y-95177000D01*
X139688618Y-95173995D01*
X139564374Y-95184535D01*
X139444574Y-95219110D01*
X139333821Y-95276393D01*
X139236371Y-95354183D01*
X139155970Y-95449489D01*
X139127870Y-95500388D01*
X139069897Y-95480661D01*
X138958250Y-95467000D01*
X138800000Y-95625250D01*
X138641750Y-95467000D01*
X138530103Y-95480661D01*
X138412060Y-95520829D01*
X138330696Y-95567885D01*
X138326884Y-95529175D01*
X138297474Y-95432224D01*
X138249715Y-95342874D01*
X138185443Y-95264557D01*
X138107126Y-95200285D01*
X138017776Y-95152526D01*
X137920825Y-95123116D01*
X137820000Y-95113186D01*
X137540000Y-95113186D01*
X137511672Y-95115976D01*
X137452359Y-95042845D01*
X137356432Y-94963186D01*
X137246807Y-94903773D01*
X137127697Y-94866887D01*
X137007250Y-94857000D01*
X136849000Y-95015250D01*
X136849000Y-95671000D01*
X136869000Y-95671000D01*
X136869000Y-95929000D01*
X136849000Y-95929000D01*
X136849000Y-95949000D01*
X136591000Y-95949000D01*
X136591000Y-95929000D01*
X135965250Y-95929000D01*
X135807000Y-96087250D01*
X135803948Y-96106320D01*
X135815451Y-96230478D01*
X135850956Y-96350007D01*
X135909097Y-96460312D01*
X135987641Y-96557155D01*
X136083568Y-96636814D01*
X136107915Y-96650009D01*
X136080661Y-96730103D01*
X136067000Y-96841750D01*
X136225250Y-97000000D01*
X136067000Y-97158250D01*
X136080661Y-97269897D01*
X136120829Y-97387940D01*
X136183255Y-97495879D01*
X136265539Y-97589564D01*
X136364519Y-97665397D01*
X136476392Y-97720462D01*
X136596857Y-97752645D01*
X136666750Y-97758000D01*
X136825000Y-97599750D01*
X136825000Y-96875000D01*
X136935000Y-96875000D01*
X136935000Y-97599750D01*
X137093250Y-97758000D01*
X137163143Y-97752645D01*
X137220000Y-97737455D01*
X137220000Y-97895439D01*
X137217581Y-97920000D01*
X137224621Y-97991480D01*
X137140023Y-98025882D01*
X137128747Y-98031909D01*
X137111804Y-98229370D01*
X137600000Y-98717566D01*
X137614142Y-98703424D01*
X137727374Y-98816656D01*
X137725000Y-98828594D01*
X137725000Y-98971406D01*
X137727374Y-98983344D01*
X137614142Y-99096576D01*
X137600000Y-99082434D01*
X137585858Y-99096576D01*
X137403424Y-98914142D01*
X137417566Y-98900000D01*
X137269282Y-98751716D01*
X137201196Y-98596373D01*
X137078814Y-98421057D01*
X136924581Y-98272986D01*
X136744424Y-98157849D01*
X136545624Y-98088129D01*
X136379000Y-98214292D01*
X136379000Y-99751000D01*
X136918564Y-99751000D01*
X136929368Y-99761804D01*
X136731909Y-99778747D01*
X136656652Y-99957158D01*
X136645991Y-100009000D01*
X136379000Y-100009000D01*
X136379000Y-100029000D01*
X136121000Y-100029000D01*
X136121000Y-100009000D01*
X136101000Y-100009000D01*
X136101000Y-99751000D01*
X136121000Y-99751000D01*
X136121000Y-98214292D01*
X135954376Y-98088129D01*
X135755576Y-98157849D01*
X135742111Y-98166454D01*
X135717746Y-98120871D01*
X135655264Y-98044736D01*
X135636186Y-98029079D01*
X135270928Y-97663823D01*
X135255264Y-97644736D01*
X135179129Y-97582254D01*
X135092267Y-97535825D01*
X134998017Y-97507235D01*
X134924560Y-97500000D01*
X134900000Y-97497581D01*
X134875440Y-97500000D01*
X131707105Y-97500000D01*
X131700000Y-97492895D01*
X131700000Y-95493680D01*
X135803948Y-95493680D01*
X135807000Y-95512750D01*
X135965250Y-95671000D01*
X136591000Y-95671000D01*
X136591000Y-95015250D01*
X136432750Y-94857000D01*
X136312303Y-94866887D01*
X136193193Y-94903773D01*
X136083568Y-94963186D01*
X135987641Y-95042845D01*
X135909097Y-95139688D01*
X135850956Y-95249993D01*
X135815451Y-95369522D01*
X135803948Y-95493680D01*
X131700000Y-95493680D01*
X131700000Y-94624559D01*
X131702419Y-94599999D01*
X131692765Y-94501982D01*
X131676395Y-94448017D01*
X131664175Y-94407733D01*
X131617746Y-94320871D01*
X131555264Y-94244736D01*
X131536181Y-94229075D01*
X131364557Y-94057451D01*
X131426059Y-94045217D01*
X131567100Y-93986796D01*
X131694034Y-93901982D01*
X131801982Y-93794034D01*
X131831278Y-93750189D01*
X132149812Y-93750189D01*
X132149811Y-94425251D01*
G37*
G04 #@! TD.AperFunction*
D28*
X148313204Y-97367100D02*
X148398018Y-97494034D01*
X148505966Y-97601982D01*
X148632900Y-97686796D01*
X148773941Y-97745217D01*
X148923669Y-97775000D01*
X149067895Y-97775000D01*
X149980001Y-98687107D01*
X149980001Y-98783084D01*
X149927697Y-98766887D01*
X149807250Y-98757000D01*
X149649000Y-98915250D01*
X149649000Y-99571000D01*
X149669000Y-99571000D01*
X149669000Y-99829000D01*
X149649000Y-99829000D01*
X149649000Y-99849000D01*
X149391000Y-99849000D01*
X149391000Y-99829000D01*
X148765250Y-99829000D01*
X148750000Y-99844250D01*
X148734750Y-99829000D01*
X148109000Y-99829000D01*
X148109000Y-99849000D01*
X147851000Y-99849000D01*
X147851000Y-99829000D01*
X147831000Y-99829000D01*
X147831000Y-99571000D01*
X147851000Y-99571000D01*
X147851000Y-99551000D01*
X148109000Y-99551000D01*
X148109000Y-99571000D01*
X148734750Y-99571000D01*
X148750000Y-99555750D01*
X148765250Y-99571000D01*
X149391000Y-99571000D01*
X149391000Y-98915250D01*
X149232750Y-98757000D01*
X149112303Y-98766887D01*
X148993193Y-98803773D01*
X148883568Y-98863186D01*
X148787641Y-98942845D01*
X148750000Y-98989256D01*
X148712359Y-98942845D01*
X148700814Y-98933258D01*
X148745217Y-98826059D01*
X148775000Y-98676331D01*
X148775000Y-98523669D01*
X148745217Y-98373941D01*
X148686796Y-98232900D01*
X148601982Y-98105966D01*
X148494034Y-97998018D01*
X148367100Y-97913204D01*
X148275000Y-97875055D01*
X148275000Y-97274867D01*
X148313204Y-97367100D01*
G04 #@! TA.AperFunction,Conductor*
D29*
G36*
X148313204Y-97367100D02*
G01*
X148398018Y-97494034D01*
X148505966Y-97601982D01*
X148632900Y-97686796D01*
X148773941Y-97745217D01*
X148923669Y-97775000D01*
X149067895Y-97775000D01*
X149980001Y-98687107D01*
X149980001Y-98783084D01*
X149927697Y-98766887D01*
X149807250Y-98757000D01*
X149649000Y-98915250D01*
X149649000Y-99571000D01*
X149669000Y-99571000D01*
X149669000Y-99829000D01*
X149649000Y-99829000D01*
X149649000Y-99849000D01*
X149391000Y-99849000D01*
X149391000Y-99829000D01*
X148765250Y-99829000D01*
X148750000Y-99844250D01*
X148734750Y-99829000D01*
X148109000Y-99829000D01*
X148109000Y-99849000D01*
X147851000Y-99849000D01*
X147851000Y-99829000D01*
X147831000Y-99829000D01*
X147831000Y-99571000D01*
X147851000Y-99571000D01*
X147851000Y-99551000D01*
X148109000Y-99551000D01*
X148109000Y-99571000D01*
X148734750Y-99571000D01*
X148750000Y-99555750D01*
X148765250Y-99571000D01*
X149391000Y-99571000D01*
X149391000Y-98915250D01*
X149232750Y-98757000D01*
X149112303Y-98766887D01*
X148993193Y-98803773D01*
X148883568Y-98863186D01*
X148787641Y-98942845D01*
X148750000Y-98989256D01*
X148712359Y-98942845D01*
X148700814Y-98933258D01*
X148745217Y-98826059D01*
X148775000Y-98676331D01*
X148775000Y-98523669D01*
X148745217Y-98373941D01*
X148686796Y-98232900D01*
X148601982Y-98105966D01*
X148494034Y-97998018D01*
X148367100Y-97913204D01*
X148275000Y-97875055D01*
X148275000Y-97274867D01*
X148313204Y-97367100D01*
G37*
G04 #@! TD.AperFunction*
D28*
X121828999Y-97364200D02*
X121835249Y-97364200D01*
X121828999Y-97370450D01*
X121828999Y-98069550D01*
X121835249Y-98075800D01*
X121828999Y-98075800D01*
X121828999Y-98172000D01*
X121570999Y-98172000D01*
X121570999Y-98075800D01*
X121564749Y-98075800D01*
X121570999Y-98069550D01*
X121570999Y-97370450D01*
X121564749Y-97364200D01*
X121570999Y-97364200D01*
X121570999Y-97268000D01*
X121828999Y-97268000D01*
X121828999Y-97364200D01*
G04 #@! TA.AperFunction,Conductor*
D29*
G36*
X121828999Y-97364200D02*
G01*
X121835249Y-97364200D01*
X121828999Y-97370450D01*
X121828999Y-98069550D01*
X121835249Y-98075800D01*
X121828999Y-98075800D01*
X121828999Y-98172000D01*
X121570999Y-98172000D01*
X121570999Y-98075800D01*
X121564749Y-98075800D01*
X121570999Y-98069550D01*
X121570999Y-97370450D01*
X121564749Y-97364200D01*
X121570999Y-97364200D01*
X121570999Y-97268000D01*
X121828999Y-97268000D01*
X121828999Y-97364200D01*
G37*
G04 #@! TD.AperFunction*
D28*
X123957000Y-94292750D02*
X124115250Y-94451000D01*
X124771000Y-94451000D01*
X124771000Y-94431000D01*
X125029000Y-94431000D01*
X125029000Y-94451000D01*
X125049000Y-94451000D01*
X125049000Y-94709000D01*
X125029000Y-94709000D01*
X125029000Y-95491000D01*
X125049000Y-95491000D01*
X125049000Y-95749000D01*
X125029000Y-95749000D01*
X125029000Y-95769000D01*
X124771000Y-95769000D01*
X124771000Y-95749000D01*
X124115250Y-95749000D01*
X123957000Y-95907250D01*
X123966887Y-96027697D01*
X123967100Y-96028386D01*
X123293601Y-96028386D01*
X123220088Y-96035626D01*
X123149401Y-96057069D01*
X123084254Y-96091891D01*
X123027153Y-96138752D01*
X122980292Y-96195853D01*
X122945470Y-96261000D01*
X122924027Y-96331687D01*
X122916787Y-96405200D01*
X122916787Y-96760800D01*
X122921960Y-96813325D01*
X122852871Y-96850254D01*
X122776736Y-96912736D01*
X122761075Y-96931819D01*
X122693799Y-96999096D01*
X122688293Y-96982343D01*
X122627002Y-96873756D01*
X122545704Y-96779214D01*
X122447524Y-96702348D01*
X122430589Y-96693791D01*
X122454530Y-96649000D01*
X122475973Y-96578313D01*
X122483213Y-96504800D01*
X122483213Y-96149200D01*
X122475973Y-96075687D01*
X122455743Y-96009000D01*
X122475973Y-95942313D01*
X122483213Y-95868800D01*
X122483213Y-95513200D01*
X122475973Y-95439687D01*
X122454530Y-95369000D01*
X122419708Y-95303853D01*
X122372847Y-95246752D01*
X122359894Y-95236122D01*
X122401982Y-95194034D01*
X122486796Y-95067100D01*
X122545217Y-94926059D01*
X122575000Y-94776331D01*
X122575000Y-94623669D01*
X122573824Y-94617758D01*
X122614175Y-94542267D01*
X122642765Y-94448017D01*
X122646246Y-94412678D01*
X122694200Y-94398131D01*
X122700000Y-94395031D01*
X122705800Y-94398131D01*
X122750001Y-94411539D01*
X122750001Y-94774560D01*
X122757236Y-94848017D01*
X122785826Y-94942267D01*
X122832255Y-95029129D01*
X122894737Y-95105264D01*
X122970872Y-95167746D01*
X123057734Y-95214175D01*
X123151984Y-95242765D01*
X123250000Y-95252419D01*
X123348017Y-95242765D01*
X123442267Y-95214175D01*
X123529129Y-95167746D01*
X123605264Y-95105264D01*
X123667746Y-95029129D01*
X123714175Y-94942267D01*
X123736930Y-94867250D01*
X123957000Y-94867250D01*
X123966887Y-94987697D01*
X124001665Y-95100000D01*
X123966887Y-95212303D01*
X123957000Y-95332750D01*
X124115250Y-95491000D01*
X124539151Y-95491000D01*
X124593680Y-95496052D01*
X124612750Y-95493000D01*
X124614750Y-95491000D01*
X124771000Y-95491000D01*
X124771000Y-94709000D01*
X124614750Y-94709000D01*
X124612750Y-94707000D01*
X124593680Y-94703948D01*
X124539151Y-94709000D01*
X124115250Y-94709000D01*
X123957000Y-94867250D01*
X123736930Y-94867250D01*
X123742765Y-94848017D01*
X123750000Y-94774560D01*
X123750000Y-94411539D01*
X123794200Y-94398131D01*
X123859347Y-94363309D01*
X123916448Y-94316448D01*
X123959345Y-94264177D01*
X123957000Y-94292750D01*
G04 #@! TA.AperFunction,Conductor*
D29*
G36*
X123957000Y-94292750D02*
G01*
X124115250Y-94451000D01*
X124771000Y-94451000D01*
X124771000Y-94431000D01*
X125029000Y-94431000D01*
X125029000Y-94451000D01*
X125049000Y-94451000D01*
X125049000Y-94709000D01*
X125029000Y-94709000D01*
X125029000Y-95491000D01*
X125049000Y-95491000D01*
X125049000Y-95749000D01*
X125029000Y-95749000D01*
X125029000Y-95769000D01*
X124771000Y-95769000D01*
X124771000Y-95749000D01*
X124115250Y-95749000D01*
X123957000Y-95907250D01*
X123966887Y-96027697D01*
X123967100Y-96028386D01*
X123293601Y-96028386D01*
X123220088Y-96035626D01*
X123149401Y-96057069D01*
X123084254Y-96091891D01*
X123027153Y-96138752D01*
X122980292Y-96195853D01*
X122945470Y-96261000D01*
X122924027Y-96331687D01*
X122916787Y-96405200D01*
X122916787Y-96760800D01*
X122921960Y-96813325D01*
X122852871Y-96850254D01*
X122776736Y-96912736D01*
X122761075Y-96931819D01*
X122693799Y-96999096D01*
X122688293Y-96982343D01*
X122627002Y-96873756D01*
X122545704Y-96779214D01*
X122447524Y-96702348D01*
X122430589Y-96693791D01*
X122454530Y-96649000D01*
X122475973Y-96578313D01*
X122483213Y-96504800D01*
X122483213Y-96149200D01*
X122475973Y-96075687D01*
X122455743Y-96009000D01*
X122475973Y-95942313D01*
X122483213Y-95868800D01*
X122483213Y-95513200D01*
X122475973Y-95439687D01*
X122454530Y-95369000D01*
X122419708Y-95303853D01*
X122372847Y-95246752D01*
X122359894Y-95236122D01*
X122401982Y-95194034D01*
X122486796Y-95067100D01*
X122545217Y-94926059D01*
X122575000Y-94776331D01*
X122575000Y-94623669D01*
X122573824Y-94617758D01*
X122614175Y-94542267D01*
X122642765Y-94448017D01*
X122646246Y-94412678D01*
X122694200Y-94398131D01*
X122700000Y-94395031D01*
X122705800Y-94398131D01*
X122750001Y-94411539D01*
X122750001Y-94774560D01*
X122757236Y-94848017D01*
X122785826Y-94942267D01*
X122832255Y-95029129D01*
X122894737Y-95105264D01*
X122970872Y-95167746D01*
X123057734Y-95214175D01*
X123151984Y-95242765D01*
X123250000Y-95252419D01*
X123348017Y-95242765D01*
X123442267Y-95214175D01*
X123529129Y-95167746D01*
X123605264Y-95105264D01*
X123667746Y-95029129D01*
X123714175Y-94942267D01*
X123736930Y-94867250D01*
X123957000Y-94867250D01*
X123966887Y-94987697D01*
X124001665Y-95100000D01*
X123966887Y-95212303D01*
X123957000Y-95332750D01*
X124115250Y-95491000D01*
X124539151Y-95491000D01*
X124593680Y-95496052D01*
X124612750Y-95493000D01*
X124614750Y-95491000D01*
X124771000Y-95491000D01*
X124771000Y-94709000D01*
X124614750Y-94709000D01*
X124612750Y-94707000D01*
X124593680Y-94703948D01*
X124539151Y-94709000D01*
X124115250Y-94709000D01*
X123957000Y-94867250D01*
X123736930Y-94867250D01*
X123742765Y-94848017D01*
X123750000Y-94774560D01*
X123750000Y-94411539D01*
X123794200Y-94398131D01*
X123859347Y-94363309D01*
X123916448Y-94316448D01*
X123959345Y-94264177D01*
X123957000Y-94292750D01*
G37*
G04 #@! TD.AperFunction*
D28*
X138925000Y-96335000D02*
X138675000Y-96335000D01*
X138675000Y-96225000D01*
X138925000Y-96225000D01*
X138925000Y-96335000D01*
G04 #@! TA.AperFunction,Conductor*
D29*
G36*
X138925000Y-96335000D02*
G01*
X138675000Y-96335000D01*
X138675000Y-96225000D01*
X138925000Y-96225000D01*
X138925000Y-96335000D01*
G37*
G04 #@! TD.AperFunction*
D28*
X151729000Y-92651000D02*
X151749000Y-92651000D01*
X151749000Y-92900000D01*
X151451000Y-92900000D01*
X151451000Y-92651000D01*
X151471000Y-92651000D01*
X151471000Y-92631000D01*
X151729000Y-92631000D01*
X151729000Y-92651000D01*
G04 #@! TA.AperFunction,Conductor*
D29*
G36*
X151729000Y-92651000D02*
G01*
X151749000Y-92651000D01*
X151749000Y-92900000D01*
X151451000Y-92900000D01*
X151451000Y-92651000D01*
X151471000Y-92651000D01*
X151471000Y-92631000D01*
X151729000Y-92631000D01*
X151729000Y-92651000D01*
G37*
G04 #@! TD.AperFunction*
M02*
