M48
INCH,TZ
T1C0.0157
T2C0.0236
%
G90
G05
T1
X47497Y-38353
X47717Y-36220
X47874Y-40512
X47953Y-37283
X48346Y-37598
X48740Y-37598
X49124Y-39449
X49409Y-38818
X49519Y-38434
X49724Y-39449
X50030Y-37047
X50157Y-39921
X50197Y-39252
X50315Y-38425
X51339Y-38425
X51339Y-38819
X51654Y-36732
X52008Y-39094
X52480Y-39173
X52559Y-36191
X52559Y-37008
X52677Y-38071
X52953Y-38937
X53189Y-37598
X53189Y-38071
X54173Y-38937
X54173Y-39469
X54508Y-38937
X54508Y-39469
X54646Y-37402
X54843Y-38937
X54843Y-39469
X55177Y-38937
X55177Y-39469
X55512Y-38031
X55512Y-38937
X55512Y-39469
X55551Y-37047
X55846Y-38937
X55846Y-39469
X56181Y-38937
X56181Y-39469
X56260Y-36496
X56516Y-38937
X56516Y-39469
X57441Y-37431
X57538Y-40420
X57727Y-38848
X57992Y-36654
X58268Y-38819
X58543Y-39252
X58622Y-36654
X58661Y-38189
X59606Y-39136
X59685Y-37087
X60157Y-38671
X60364Y-36151
X60512Y-40157
X60945Y-38858
X60950Y-39601
X61339Y-37165
X61378Y-38858
X61535Y-37697
X61860Y-39606
X62047Y-38268
X62618Y-40157
X62618Y-40551
X62638Y-37835
X63150Y-40669
T2
G00X53642Y-39028
M15
G01X53642Y-39618
M16
G05
G00X53642Y-40496
M15
G01X53642Y-40811
M16
G05
G00X57047Y-39028
M15
G01X57047Y-39618
M16
G05
G00X57047Y-40496
M15
G01X57047Y-40811
M16
G05
T0
M30
