G04 #@! TF.GenerationSoftware,KiCad,Pcbnew,(5.1.9-0-10_14)*
G04 #@! TF.CreationDate,2025-05-13T11:21:21-05:00*
G04 #@! TF.ProjectId,DTYF Beta,44545946-2042-4657-9461-2e6b69636164,rev?*
G04 #@! TF.SameCoordinates,Original*
G04 #@! TF.FileFunction,Other,User*
%FSLAX46Y46*%
G04 Gerber Fmt 4.6, Leading zero omitted, Abs format (unit mm)*
G04 Created by KiCad (PCBNEW (5.1.9-0-10_14)) date 2025-05-13 11:21:21*
%MOMM*%
%LPD*%
G01*
G04 APERTURE LIST*
%ADD10C,0.152400*%
%ADD11C,0.050000*%
G04 APERTURE END LIST*
D10*
X160812900Y-98319000D02*
X160812900Y-101081000D01*
X160812900Y-101081000D02*
X160508100Y-101081000D01*
X157587100Y-101081000D02*
X157891900Y-101081000D01*
X157587100Y-101081000D02*
X157587100Y-98319000D01*
X157587100Y-98319000D02*
X157891900Y-98319000D01*
X160812900Y-98319000D02*
X160508100Y-98319000D01*
X160508100Y-97896600D02*
X160508100Y-98319000D01*
X160508100Y-101081000D02*
X160508100Y-101503400D01*
X160508100Y-101503400D02*
X157891900Y-101503400D01*
X157891900Y-101503400D02*
X157891900Y-101081000D01*
X157891900Y-98319000D02*
X157891900Y-97896600D01*
X157891900Y-97896600D02*
X160508100Y-97896600D01*
X140131063Y-91242700D02*
X140757300Y-91242700D01*
X140131063Y-91242700D02*
X140131063Y-91242700D01*
X138868937Y-91242700D02*
X140131063Y-91242700D01*
X138868937Y-91242700D02*
X138868937Y-91242700D01*
X138242700Y-91242700D02*
X138868937Y-91242700D01*
X138242700Y-91368811D02*
X138242700Y-91242700D01*
X138242700Y-91368811D02*
X138242700Y-91368811D01*
X138242700Y-93631189D02*
X138242700Y-91368811D01*
X138242700Y-93631189D02*
X138242700Y-93631189D01*
X138242700Y-93757300D02*
X138242700Y-93631189D01*
X138868937Y-93757300D02*
X138242700Y-93757300D01*
X138868937Y-93757300D02*
X138868937Y-93757300D01*
X140131063Y-93757300D02*
X138868937Y-93757300D01*
X140131063Y-93757300D02*
X140131063Y-93757300D01*
X140757300Y-93757300D02*
X140131063Y-93757300D01*
X140757300Y-93631189D02*
X140757300Y-93757300D01*
X140757300Y-93631189D02*
X140757300Y-93631189D01*
X140757300Y-91368811D02*
X140757300Y-93631189D01*
X140757300Y-91368811D02*
X140757300Y-91368811D01*
X140757300Y-91242700D02*
X140757300Y-91368811D01*
D11*
X149090000Y-99240000D02*
X150910000Y-99240000D01*
X149090000Y-100160000D02*
X149090000Y-99240000D01*
X150910000Y-100160000D02*
X149090000Y-100160000D01*
X150910000Y-99240000D02*
X150910000Y-100160000D01*
D10*
X146742600Y-103481000D02*
X146742600Y-100719000D01*
X146742600Y-100719000D02*
X147047400Y-100719000D01*
X150857400Y-100719000D02*
X150552600Y-100719000D01*
X150857400Y-100719000D02*
X150857400Y-103481000D01*
X150857400Y-103481000D02*
X150552600Y-103481000D01*
X146742600Y-103481000D02*
X147047400Y-103481000D01*
X147047400Y-103852600D02*
X147047400Y-103481000D01*
X147047400Y-100719000D02*
X147047400Y-100347400D01*
X147047400Y-100347400D02*
X150552600Y-100347400D01*
X150552600Y-100347400D02*
X150552600Y-100719000D01*
X150552600Y-103481000D02*
X150552600Y-103852600D01*
X150552600Y-103852600D02*
X147047400Y-103852600D01*
D11*
X125610000Y-94550000D02*
X125610000Y-103850000D01*
X131390000Y-94550000D02*
X125610000Y-94550000D01*
X131390000Y-103850000D02*
X131390000Y-94550000D01*
X125610000Y-103850000D02*
X131390000Y-103850000D01*
X152200000Y-95400000D02*
X152200000Y-88900000D01*
X152200000Y-88900000D02*
X161700000Y-88900000D01*
X161700000Y-88900000D02*
X161700000Y-95400000D01*
X161700000Y-95400000D02*
X152200000Y-95400000D01*
X154890000Y-100840000D02*
X156710000Y-100840000D01*
X154890000Y-101760000D02*
X154890000Y-100840000D01*
X156710000Y-101760000D02*
X154890000Y-101760000D01*
X156710000Y-100840000D02*
X156710000Y-101760000D01*
X135300000Y-97840000D02*
X135300000Y-108010000D01*
X135300000Y-108010000D02*
X145850000Y-108010000D01*
X135300000Y-97840000D02*
X145850000Y-97840000D01*
X145850000Y-97840000D02*
X145850000Y-108010000D01*
X124100000Y-91100000D02*
X121300000Y-91100000D01*
X121300000Y-91100000D02*
X121300000Y-94500000D01*
X121300000Y-94500000D02*
X124100000Y-94500000D01*
X124100000Y-94500000D02*
X124100000Y-91100000D01*
D10*
X124360400Y-95698200D02*
X124360400Y-99301800D01*
X124360400Y-99301800D02*
X124147800Y-99301800D01*
X121039600Y-99301800D02*
X121252200Y-99301800D01*
X121039600Y-99301800D02*
X121039600Y-95698200D01*
X121039600Y-95698200D02*
X121252200Y-95698200D01*
X124360400Y-95698200D02*
X124147800Y-95698200D01*
X124147800Y-94794900D02*
X124147800Y-95698200D01*
X124147800Y-99301800D02*
X124147800Y-100205100D01*
X124147800Y-100205100D02*
X121252200Y-100205100D01*
X121252200Y-100205100D02*
X121252200Y-99301800D01*
X121252200Y-95698200D02*
X121252200Y-94794900D01*
X121252200Y-94794900D02*
X124147800Y-94794900D01*
D11*
X123640000Y-100590000D02*
X124560000Y-100590000D01*
X124560000Y-100590000D02*
X124560000Y-102410000D01*
X124560000Y-102410000D02*
X123640000Y-102410000D01*
X123640000Y-102410000D02*
X123640000Y-100590000D01*
X143010000Y-92160000D02*
X141190000Y-92160000D01*
X143010000Y-91240000D02*
X143010000Y-92160000D01*
X141190000Y-91240000D02*
X143010000Y-91240000D01*
X141190000Y-92160000D02*
X141190000Y-91240000D01*
X125360000Y-97010000D02*
X124440000Y-97010000D01*
X124440000Y-97010000D02*
X124440000Y-95190000D01*
X124440000Y-95190000D02*
X125360000Y-95190000D01*
X125360000Y-95190000D02*
X125360000Y-97010000D01*
X156710000Y-99640000D02*
X156710000Y-100560000D01*
X156710000Y-100560000D02*
X154890000Y-100560000D01*
X154890000Y-100560000D02*
X154890000Y-99640000D01*
X154890000Y-99640000D02*
X156710000Y-99640000D01*
X136660000Y-93010000D02*
X135740000Y-93010000D01*
X135740000Y-93010000D02*
X135740000Y-91190000D01*
X135740000Y-91190000D02*
X136660000Y-91190000D01*
X136660000Y-91190000D02*
X136660000Y-93010000D01*
X137860000Y-91190000D02*
X137860000Y-93010000D01*
X136940000Y-91190000D02*
X137860000Y-91190000D01*
X136940000Y-93010000D02*
X136940000Y-91190000D01*
X137860000Y-93010000D02*
X136940000Y-93010000D01*
X146590000Y-100160000D02*
X146590000Y-99240000D01*
X146590000Y-99240000D02*
X148410000Y-99240000D01*
X148410000Y-99240000D02*
X148410000Y-100160000D01*
X148410000Y-100160000D02*
X146590000Y-100160000D01*
X124440000Y-95010000D02*
X124440000Y-93190000D01*
X125360000Y-95010000D02*
X124440000Y-95010000D01*
X125360000Y-93190000D02*
X125360000Y-95010000D01*
X124440000Y-93190000D02*
X125360000Y-93190000D01*
X151140000Y-93210000D02*
X151140000Y-91390000D01*
X152060000Y-93210000D02*
X151140000Y-93210000D01*
X152060000Y-91390000D02*
X152060000Y-93210000D01*
X151140000Y-91390000D02*
X152060000Y-91390000D01*
X136290000Y-95340000D02*
X138110000Y-95340000D01*
X136290000Y-96260000D02*
X136290000Y-95340000D01*
X138110000Y-96260000D02*
X136290000Y-96260000D01*
X138110000Y-95340000D02*
X138110000Y-96260000D01*
X146660000Y-94410000D02*
X145740000Y-94410000D01*
X145740000Y-94410000D02*
X145740000Y-92590000D01*
X145740000Y-92590000D02*
X146660000Y-92590000D01*
X146660000Y-92590000D02*
X146660000Y-94410000D01*
X145380000Y-94700000D02*
X143420000Y-94700000D01*
X143420000Y-94700000D02*
X143420000Y-91300000D01*
X143420000Y-91300000D02*
X145380000Y-91300000D01*
X145380000Y-91300000D02*
X145380000Y-94700000D01*
X131600000Y-103250000D02*
X131600000Y-99750000D01*
X135000000Y-103250000D02*
X131600000Y-103250000D01*
X135000000Y-99750000D02*
X135000000Y-103250000D01*
X131600000Y-99750000D02*
X135000000Y-99750000D01*
X124220000Y-91170000D02*
X127180000Y-91170000D01*
X124220000Y-92630000D02*
X124220000Y-91170000D01*
X127180000Y-92630000D02*
X124220000Y-92630000D01*
X127180000Y-91170000D02*
X127180000Y-92630000D01*
X160030000Y-97670000D02*
X158170000Y-97670000D01*
X160030000Y-96730000D02*
X160030000Y-97670000D01*
X158170000Y-96730000D02*
X160030000Y-96730000D01*
X158170000Y-97670000D02*
X158170000Y-96730000D01*
X152670000Y-99430000D02*
X154530000Y-99430000D01*
X152670000Y-100370000D02*
X152670000Y-99430000D01*
X154530000Y-100370000D02*
X152670000Y-100370000D01*
X154530000Y-99430000D02*
X154530000Y-100370000D01*
X158070000Y-101970000D02*
X158070000Y-103830000D01*
X157130000Y-101970000D02*
X158070000Y-101970000D01*
X157130000Y-103830000D02*
X157130000Y-101970000D01*
X158070000Y-103830000D02*
X157130000Y-103830000D01*
X154130000Y-101970000D02*
X155070000Y-101970000D01*
X155070000Y-101970000D02*
X155070000Y-103830000D01*
X155070000Y-103830000D02*
X154130000Y-103830000D01*
X154130000Y-103830000D02*
X154130000Y-101970000D01*
X153430000Y-101570000D02*
X151570000Y-101570000D01*
X153430000Y-100630000D02*
X153430000Y-101570000D01*
X151570000Y-100630000D02*
X153430000Y-100630000D01*
X151570000Y-101570000D02*
X151570000Y-100630000D01*
X124330000Y-102930000D02*
X124330000Y-103870000D01*
X124330000Y-103870000D02*
X122470000Y-103870000D01*
X122470000Y-103870000D02*
X122470000Y-102930000D01*
X122470000Y-102930000D02*
X124330000Y-102930000D01*
X147120000Y-96530000D02*
X147120000Y-95070000D01*
X147120000Y-95070000D02*
X150080000Y-95070000D01*
X150080000Y-95070000D02*
X150080000Y-96530000D01*
X150080000Y-96530000D02*
X147120000Y-96530000D01*
X121230000Y-102430000D02*
X121230000Y-100570000D01*
X122170000Y-102430000D02*
X121230000Y-102430000D01*
X122170000Y-100570000D02*
X122170000Y-102430000D01*
X121230000Y-100570000D02*
X122170000Y-100570000D01*
X122430000Y-100570000D02*
X123370000Y-100570000D01*
X123370000Y-100570000D02*
X123370000Y-102430000D01*
X123370000Y-102430000D02*
X122430000Y-102430000D01*
X122430000Y-102430000D02*
X122430000Y-100570000D01*
X153430000Y-103970000D02*
X151570000Y-103970000D01*
X153430000Y-103030000D02*
X153430000Y-103970000D01*
X151570000Y-103030000D02*
X153430000Y-103030000D01*
X151570000Y-103970000D02*
X151570000Y-103030000D01*
X153430000Y-101830000D02*
X153430000Y-102770000D01*
X153430000Y-102770000D02*
X151570000Y-102770000D01*
X151570000Y-102770000D02*
X151570000Y-101830000D01*
X151570000Y-101830000D02*
X153430000Y-101830000D01*
X140470000Y-95660000D02*
X140470000Y-97520000D01*
X139530000Y-95660000D02*
X140470000Y-95660000D01*
X139530000Y-97520000D02*
X139530000Y-95660000D01*
X140470000Y-97520000D02*
X139530000Y-97520000D01*
X143570000Y-97530000D02*
X142630000Y-97530000D01*
X142630000Y-97530000D02*
X142630000Y-95670000D01*
X142630000Y-95670000D02*
X143570000Y-95670000D01*
X143570000Y-95670000D02*
X143570000Y-97530000D01*
X155630000Y-101970000D02*
X156570000Y-101970000D01*
X156570000Y-101970000D02*
X156570000Y-103830000D01*
X156570000Y-103830000D02*
X155630000Y-103830000D01*
X155630000Y-103830000D02*
X155630000Y-101970000D01*
X150800000Y-94900000D02*
X147000000Y-94900000D01*
X147000000Y-94900000D02*
X147000000Y-91300000D01*
X147000000Y-91300000D02*
X150800000Y-91300000D01*
X150800000Y-91300000D02*
X150800000Y-94900000D01*
X137850000Y-97280000D02*
X137850000Y-97450000D01*
X138050000Y-96720000D02*
X137850000Y-96720000D01*
X138050000Y-97280000D02*
X138050000Y-96720000D01*
X137850000Y-97280000D02*
X138050000Y-97280000D01*
X136750000Y-96720000D02*
X136750000Y-96550000D01*
X136550000Y-96720000D02*
X136750000Y-96720000D01*
X136550000Y-97280000D02*
X136550000Y-96720000D01*
X136750000Y-97280000D02*
X136550000Y-97280000D01*
X136750000Y-97450000D02*
X136750000Y-97280000D01*
X137850000Y-97450000D02*
X136750000Y-97450000D01*
X137850000Y-96550000D02*
X137850000Y-96720000D01*
X136750000Y-96550000D02*
X137850000Y-96550000D01*
X142350000Y-96150000D02*
X142350000Y-97250000D01*
X142350000Y-97250000D02*
X142180000Y-97250000D01*
X141450000Y-97250000D02*
X141450000Y-96150000D01*
X141450000Y-96150000D02*
X141620000Y-96150000D01*
X141620000Y-96150000D02*
X141620000Y-95950000D01*
X141620000Y-95950000D02*
X142180000Y-95950000D01*
X142180000Y-95950000D02*
X142180000Y-96150000D01*
X142180000Y-96150000D02*
X142350000Y-96150000D01*
X141620000Y-97250000D02*
X141620000Y-97450000D01*
X141620000Y-97450000D02*
X142180000Y-97450000D01*
X142180000Y-97450000D02*
X142180000Y-97250000D01*
X141620000Y-97250000D02*
X141450000Y-97250000D01*
X139250000Y-96150000D02*
X139250000Y-97250000D01*
X139250000Y-97250000D02*
X139080000Y-97250000D01*
X138350000Y-97250000D02*
X138350000Y-96150000D01*
X138350000Y-96150000D02*
X138520000Y-96150000D01*
X138520000Y-96150000D02*
X138520000Y-95950000D01*
X138520000Y-95950000D02*
X139080000Y-95950000D01*
X139080000Y-95950000D02*
X139080000Y-96150000D01*
X139080000Y-96150000D02*
X139250000Y-96150000D01*
X138520000Y-97250000D02*
X138520000Y-97450000D01*
X138520000Y-97450000D02*
X139080000Y-97450000D01*
X139080000Y-97450000D02*
X139080000Y-97250000D01*
X138520000Y-97250000D02*
X138350000Y-97250000D01*
M02*
