G04 #@! TF.GenerationSoftware,KiCad,Pcbnew,(5.1.9-0-10_14)*
G04 #@! TF.CreationDate,2025-05-13T11:21:21-05:00*
G04 #@! TF.ProjectId,DTYF Beta,44545946-2042-4657-9461-2e6b69636164,rev?*
G04 #@! TF.SameCoordinates,Original*
G04 #@! TF.FileFunction,Other,Fab,Top*
%FSLAX46Y46*%
G04 Gerber Fmt 4.6, Leading zero omitted, Abs format (unit mm)*
G04 Created by KiCad (PCBNEW (5.1.9-0-10_14)) date 2025-05-13 11:21:21*
%MOMM*%
%LPD*%
G01*
G04 APERTURE LIST*
%ADD10C,0.152400*%
%ADD11C,0.100000*%
%ADD12C,0.120000*%
%ADD13C,0.127000*%
%ADD14C,0.200000*%
%ADD15C,0.150000*%
%ADD16C,0.040000*%
%ADD17C,0.080000*%
%ADD18C,0.075000*%
%ADD19C,0.060000*%
G04 APERTURE END LIST*
D10*
X160254100Y-98150600D02*
X158145900Y-98150600D01*
X158145900Y-98150600D02*
X158145900Y-101249400D01*
X158145900Y-101249400D02*
X160254100Y-101249400D01*
X160254100Y-101249400D02*
X160254100Y-98150600D01*
X160826200Y-101350000D02*
G75*
G03*
X160826200Y-101350000I-76200J0D01*
G01*
X159504800Y-101249400D02*
G75*
G03*
X158895200Y-101249400I-304800J0D01*
G01*
X140503300Y-91496700D02*
X140503300Y-91496700D01*
X140503300Y-93503300D02*
X140503300Y-91496700D01*
X140503300Y-93503300D02*
X140503300Y-93503300D01*
X138496700Y-93503300D02*
X140503300Y-93503300D01*
X138496700Y-93503300D02*
X138496700Y-93503300D01*
X138496700Y-91496700D02*
X138496700Y-93503300D01*
X138496700Y-91496700D02*
X138496700Y-91496700D01*
X140503300Y-91496700D02*
X138496700Y-91496700D01*
X138623700Y-93377189D02*
X138496700Y-93377189D01*
X138623700Y-93123189D02*
X138623700Y-93377189D01*
X138496700Y-93123189D02*
X138623700Y-93123189D01*
X138496700Y-93377189D02*
X138496700Y-93123189D01*
X138623700Y-92877063D02*
X138496700Y-92877063D01*
X138623700Y-92623063D02*
X138623700Y-92877063D01*
X138496700Y-92623063D02*
X138623700Y-92623063D01*
X138496700Y-92877063D02*
X138496700Y-92623063D01*
X138623700Y-92376937D02*
X138496700Y-92376937D01*
X138623700Y-92122937D02*
X138623700Y-92376937D01*
X138496700Y-92122937D02*
X138623700Y-92122937D01*
X138496700Y-92376937D02*
X138496700Y-92122937D01*
X138623700Y-91876811D02*
X138496700Y-91876811D01*
X138623700Y-91622811D02*
X138623700Y-91876811D01*
X138496700Y-91622811D02*
X138623700Y-91622811D01*
X138496700Y-91876811D02*
X138496700Y-91622811D01*
X139122937Y-91623700D02*
X139122937Y-91496700D01*
X139376937Y-91623700D02*
X139122937Y-91623700D01*
X139376937Y-91496700D02*
X139376937Y-91623700D01*
X139122937Y-91496700D02*
X139376937Y-91496700D01*
X139623063Y-91623700D02*
X139623063Y-91496700D01*
X139877063Y-91623700D02*
X139623063Y-91623700D01*
X139877063Y-91496700D02*
X139877063Y-91623700D01*
X139623063Y-91496700D02*
X139877063Y-91496700D01*
X140376300Y-91622811D02*
X140503300Y-91622811D01*
X140376300Y-91876811D02*
X140376300Y-91622811D01*
X140503300Y-91876811D02*
X140376300Y-91876811D01*
X140503300Y-91622811D02*
X140503300Y-91876811D01*
X140376300Y-92122937D02*
X140503300Y-92122937D01*
X140376300Y-92376937D02*
X140376300Y-92122937D01*
X140503300Y-92376937D02*
X140376300Y-92376937D01*
X140503300Y-92122937D02*
X140503300Y-92376937D01*
X140376300Y-92623063D02*
X140503300Y-92623063D01*
X140376300Y-92877063D02*
X140376300Y-92623063D01*
X140503300Y-92877063D02*
X140376300Y-92877063D01*
X140503300Y-92623063D02*
X140503300Y-92877063D01*
X140376300Y-93123189D02*
X140503300Y-93123189D01*
X140376300Y-93377189D02*
X140376300Y-93123189D01*
X140503300Y-93377189D02*
X140376300Y-93377189D01*
X140503300Y-93123189D02*
X140503300Y-93377189D01*
X139877063Y-93376300D02*
X139877063Y-93503300D01*
X139623063Y-93376300D02*
X139877063Y-93376300D01*
X139623063Y-93503300D02*
X139623063Y-93376300D01*
X139877063Y-93503300D02*
X139623063Y-93503300D01*
X139376937Y-93376300D02*
X139376937Y-93503300D01*
X139122937Y-93376300D02*
X139376937Y-93376300D01*
X139122937Y-93503300D02*
X139122937Y-93376300D01*
X139376937Y-93503300D02*
X139122937Y-93503300D01*
X140503300Y-92233300D02*
X139233300Y-93503300D01*
D11*
X149500000Y-99450000D02*
X150500000Y-99450000D01*
X149500000Y-99950000D02*
X149500000Y-99450000D01*
X150500000Y-99950000D02*
X149500000Y-99950000D01*
X150500000Y-99450000D02*
X150500000Y-99950000D01*
D12*
X146811803Y-100450000D02*
G75*
G03*
X146811803Y-100450000I-111803J0D01*
G01*
D10*
X147301400Y-103598600D02*
X150298600Y-103598600D01*
X150298600Y-103598600D02*
X150298600Y-100601400D01*
X150298600Y-100601400D02*
X147301400Y-100601400D01*
X147301400Y-100601400D02*
X147301400Y-103598600D01*
X148495200Y-100601400D02*
G75*
G03*
X149104800Y-100601400I304800J0D01*
G01*
D11*
X126862500Y-101837500D02*
X125862500Y-100837500D01*
X131137500Y-101837500D02*
X126862500Y-101837500D01*
X131137500Y-96562500D02*
X131137500Y-101837500D01*
X125862500Y-96562500D02*
X131137500Y-96562500D01*
X125862500Y-100837500D02*
X125862500Y-96562500D01*
D12*
X126511803Y-104211803D02*
G75*
G03*
X126511803Y-104211803I-111803J0D01*
G01*
D13*
X161450000Y-94900000D02*
X152450000Y-94900000D01*
X152450000Y-94900000D02*
X152450000Y-91400000D01*
X152450000Y-91400000D02*
X156950000Y-91400000D01*
X156950000Y-91400000D02*
X158450000Y-91400000D01*
X158450000Y-91400000D02*
X161450000Y-91400000D01*
X161450000Y-91400000D02*
X161450000Y-94900000D01*
X158450000Y-91400000D02*
X158450000Y-89150000D01*
X158450000Y-89150000D02*
X156950000Y-89150000D01*
X156950000Y-89150000D02*
X156950000Y-91400000D01*
D14*
X161020000Y-95200000D02*
G75*
G03*
X161020000Y-95200000I-120000J0D01*
G01*
D11*
X155300000Y-101050000D02*
X156300000Y-101050000D01*
X155300000Y-101550000D02*
X155300000Y-101050000D01*
X156300000Y-101550000D02*
X155300000Y-101550000D01*
X156300000Y-101050000D02*
X156300000Y-101550000D01*
X136100000Y-98340000D02*
X145050000Y-98340000D01*
X136100000Y-107510000D02*
X145050000Y-107510000D01*
X136100000Y-98340000D02*
X136100000Y-107510000D01*
X145050000Y-98340000D02*
X145050000Y-107510000D01*
X137575000Y-105000000D02*
X143575000Y-105000000D01*
D12*
X123950000Y-91100000D02*
G75*
G03*
X123950000Y-91100000I-100000J0D01*
G01*
D11*
X123500000Y-92800000D02*
G75*
G03*
X123500000Y-92800000I-800000J0D01*
G01*
X123700000Y-92800000D02*
X122700000Y-91800000D01*
X123700000Y-91800000D02*
X121700000Y-91800000D01*
X121700000Y-91800000D02*
X121700000Y-93800000D01*
X121700000Y-93800000D02*
X123700000Y-93800000D01*
X123700000Y-93800000D02*
X123700000Y-91800000D01*
D10*
X123893800Y-95048900D02*
X121506200Y-95048900D01*
X121506200Y-95048900D02*
X121506200Y-99951100D01*
X121506200Y-99951100D02*
X123893800Y-99951100D01*
X123893800Y-99951100D02*
X123893800Y-95048900D01*
X124726200Y-99350000D02*
G75*
G03*
X124726200Y-99350000I-76200J0D01*
G01*
X123004800Y-99951100D02*
G75*
G03*
X122395200Y-99951100I-304800J0D01*
G01*
D11*
X123850000Y-101000000D02*
X124350000Y-101000000D01*
X124350000Y-101000000D02*
X124350000Y-102000000D01*
X124350000Y-102000000D02*
X123850000Y-102000000D01*
X123850000Y-102000000D02*
X123850000Y-101000000D01*
X142600000Y-91950000D02*
X141600000Y-91950000D01*
X142600000Y-91450000D02*
X142600000Y-91950000D01*
X141600000Y-91450000D02*
X142600000Y-91450000D01*
X141600000Y-91950000D02*
X141600000Y-91450000D01*
X125150000Y-96600000D02*
X124650000Y-96600000D01*
X124650000Y-96600000D02*
X124650000Y-95600000D01*
X124650000Y-95600000D02*
X125150000Y-95600000D01*
X125150000Y-95600000D02*
X125150000Y-96600000D01*
X156300000Y-99850000D02*
X156300000Y-100350000D01*
X156300000Y-100350000D02*
X155300000Y-100350000D01*
X155300000Y-100350000D02*
X155300000Y-99850000D01*
X155300000Y-99850000D02*
X156300000Y-99850000D01*
X136450000Y-92600000D02*
X135950000Y-92600000D01*
X135950000Y-92600000D02*
X135950000Y-91600000D01*
X135950000Y-91600000D02*
X136450000Y-91600000D01*
X136450000Y-91600000D02*
X136450000Y-92600000D01*
X137650000Y-91600000D02*
X137650000Y-92600000D01*
X137150000Y-91600000D02*
X137650000Y-91600000D01*
X137150000Y-92600000D02*
X137150000Y-91600000D01*
X137650000Y-92600000D02*
X137150000Y-92600000D01*
X147000000Y-99950000D02*
X147000000Y-99450000D01*
X147000000Y-99450000D02*
X148000000Y-99450000D01*
X148000000Y-99450000D02*
X148000000Y-99950000D01*
X148000000Y-99950000D02*
X147000000Y-99950000D01*
X124650000Y-94600000D02*
X124650000Y-93600000D01*
X125150000Y-94600000D02*
X124650000Y-94600000D01*
X125150000Y-93600000D02*
X125150000Y-94600000D01*
X124650000Y-93600000D02*
X125150000Y-93600000D01*
X151350000Y-92800000D02*
X151350000Y-91800000D01*
X151850000Y-92800000D02*
X151350000Y-92800000D01*
X151850000Y-91800000D02*
X151850000Y-92800000D01*
X151350000Y-91800000D02*
X151850000Y-91800000D01*
X136700000Y-95550000D02*
X137700000Y-95550000D01*
X136700000Y-96050000D02*
X136700000Y-95550000D01*
X137700000Y-96050000D02*
X136700000Y-96050000D01*
X137700000Y-95550000D02*
X137700000Y-96050000D01*
X146450000Y-94000000D02*
X145950000Y-94000000D01*
X145950000Y-94000000D02*
X145950000Y-93000000D01*
X145950000Y-93000000D02*
X146450000Y-93000000D01*
X146450000Y-93000000D02*
X146450000Y-94000000D01*
X145025000Y-94000000D02*
X143775000Y-94000000D01*
X143775000Y-94000000D02*
X143775000Y-92000000D01*
X143775000Y-92000000D02*
X145025000Y-92000000D01*
X145025000Y-92000000D02*
X145025000Y-94000000D01*
X132600000Y-103020000D02*
X134000000Y-103020000D01*
X134000000Y-99980000D02*
X134000000Y-103020000D01*
X132600000Y-100550000D02*
X133150000Y-99980000D01*
X133150000Y-99980000D02*
X134000000Y-99980000D01*
X132600000Y-100550000D02*
X132600000Y-103000000D01*
X124900000Y-91487500D02*
X126500000Y-91487500D01*
X124900000Y-92312500D02*
X124900000Y-91487500D01*
X126500000Y-92312500D02*
X124900000Y-92312500D01*
X126500000Y-91487500D02*
X126500000Y-92312500D01*
X159625000Y-97470000D02*
X158575000Y-97470000D01*
X159625000Y-96930000D02*
X159625000Y-97470000D01*
X158575000Y-96930000D02*
X159625000Y-96930000D01*
X158575000Y-97470000D02*
X158575000Y-96930000D01*
X153075000Y-99630000D02*
X154125000Y-99630000D01*
X153075000Y-100170000D02*
X153075000Y-99630000D01*
X154125000Y-100170000D02*
X153075000Y-100170000D01*
X154125000Y-99630000D02*
X154125000Y-100170000D01*
X157870000Y-102375000D02*
X157870000Y-103425000D01*
X157330000Y-102375000D02*
X157870000Y-102375000D01*
X157330000Y-103425000D02*
X157330000Y-102375000D01*
X157870000Y-103425000D02*
X157330000Y-103425000D01*
X154330000Y-102375000D02*
X154870000Y-102375000D01*
X154870000Y-102375000D02*
X154870000Y-103425000D01*
X154870000Y-103425000D02*
X154330000Y-103425000D01*
X154330000Y-103425000D02*
X154330000Y-102375000D01*
X153025000Y-101370000D02*
X151975000Y-101370000D01*
X153025000Y-100830000D02*
X153025000Y-101370000D01*
X151975000Y-100830000D02*
X153025000Y-100830000D01*
X151975000Y-101370000D02*
X151975000Y-100830000D01*
X123925000Y-103130000D02*
X123925000Y-103670000D01*
X123925000Y-103670000D02*
X122875000Y-103670000D01*
X122875000Y-103670000D02*
X122875000Y-103130000D01*
X122875000Y-103130000D02*
X123925000Y-103130000D01*
X147800000Y-96212500D02*
X147800000Y-95387500D01*
X147800000Y-95387500D02*
X149400000Y-95387500D01*
X149400000Y-95387500D02*
X149400000Y-96212500D01*
X149400000Y-96212500D02*
X147800000Y-96212500D01*
X121430000Y-102025000D02*
X121430000Y-100975000D01*
X121970000Y-102025000D02*
X121430000Y-102025000D01*
X121970000Y-100975000D02*
X121970000Y-102025000D01*
X121430000Y-100975000D02*
X121970000Y-100975000D01*
X122630000Y-100975000D02*
X123170000Y-100975000D01*
X123170000Y-100975000D02*
X123170000Y-102025000D01*
X123170000Y-102025000D02*
X122630000Y-102025000D01*
X122630000Y-102025000D02*
X122630000Y-100975000D01*
X153025000Y-103770000D02*
X151975000Y-103770000D01*
X153025000Y-103230000D02*
X153025000Y-103770000D01*
X151975000Y-103230000D02*
X153025000Y-103230000D01*
X151975000Y-103770000D02*
X151975000Y-103230000D01*
X153025000Y-102030000D02*
X153025000Y-102570000D01*
X153025000Y-102570000D02*
X151975000Y-102570000D01*
X151975000Y-102570000D02*
X151975000Y-102030000D01*
X151975000Y-102030000D02*
X153025000Y-102030000D01*
X140270000Y-96065000D02*
X140270000Y-97115000D01*
X139730000Y-96065000D02*
X140270000Y-96065000D01*
X139730000Y-97115000D02*
X139730000Y-96065000D01*
X140270000Y-97115000D02*
X139730000Y-97115000D01*
X143370000Y-97125000D02*
X142830000Y-97125000D01*
X142830000Y-97125000D02*
X142830000Y-96075000D01*
X142830000Y-96075000D02*
X143370000Y-96075000D01*
X143370000Y-96075000D02*
X143370000Y-97125000D01*
X155830000Y-102375000D02*
X156370000Y-102375000D01*
X156370000Y-102375000D02*
X156370000Y-103425000D01*
X156370000Y-103425000D02*
X155830000Y-103425000D01*
X155830000Y-103425000D02*
X155830000Y-102375000D01*
X149800000Y-94000000D02*
X149150000Y-94650000D01*
X148000000Y-94650000D02*
X149150000Y-94650000D01*
X149800000Y-94000000D02*
X149800000Y-91550000D01*
X148000000Y-91550000D02*
X149800000Y-91550000D01*
X148000000Y-94650000D02*
X148000000Y-91550000D01*
X137150000Y-97000000D02*
X137050000Y-97000000D01*
X137150000Y-97200000D02*
X137450000Y-97000000D01*
X137150000Y-96800000D02*
X137150000Y-97200000D01*
X137450000Y-97000000D02*
X137150000Y-96800000D01*
X137450000Y-97000000D02*
X137550000Y-97000000D01*
X137450000Y-96800000D02*
X137450000Y-97200000D01*
X136900000Y-97300000D02*
X136900000Y-96700000D01*
X137700000Y-97300000D02*
X136900000Y-97300000D01*
X137700000Y-96700000D02*
X137700000Y-97300000D01*
X136900000Y-96700000D02*
X137700000Y-96700000D01*
X142200000Y-96300000D02*
X142200000Y-97100000D01*
X142200000Y-97100000D02*
X141600000Y-97100000D01*
X141600000Y-97100000D02*
X141600000Y-96300000D01*
X141600000Y-96300000D02*
X142200000Y-96300000D01*
X142100000Y-96850000D02*
X141700000Y-96850000D01*
X141900000Y-96850000D02*
X141900000Y-96950000D01*
X141900000Y-96850000D02*
X142100000Y-96550000D01*
X142100000Y-96550000D02*
X141700000Y-96550000D01*
X141700000Y-96550000D02*
X141900000Y-96850000D01*
X141900000Y-96550000D02*
X141900000Y-96450000D01*
X139100000Y-96300000D02*
X139100000Y-97100000D01*
X139100000Y-97100000D02*
X138500000Y-97100000D01*
X138500000Y-97100000D02*
X138500000Y-96300000D01*
X138500000Y-96300000D02*
X139100000Y-96300000D01*
X139000000Y-96850000D02*
X138600000Y-96850000D01*
X138800000Y-96850000D02*
X138800000Y-96950000D01*
X138800000Y-96850000D02*
X139000000Y-96550000D01*
X139000000Y-96550000D02*
X138600000Y-96550000D01*
X138600000Y-96550000D02*
X138800000Y-96850000D01*
X138800000Y-96550000D02*
X138800000Y-96450000D01*
D15*
X140900000Y-93052380D02*
X140900000Y-93290476D01*
X140661904Y-93195238D02*
X140900000Y-93290476D01*
X141138095Y-93195238D01*
X140757142Y-93480952D02*
X140900000Y-93290476D01*
X141042857Y-93480952D01*
D16*
X149958333Y-99789285D02*
X149946428Y-99801190D01*
X149910714Y-99813095D01*
X149886904Y-99813095D01*
X149851190Y-99801190D01*
X149827380Y-99777380D01*
X149815476Y-99753571D01*
X149803571Y-99705952D01*
X149803571Y-99670238D01*
X149815476Y-99622619D01*
X149827380Y-99598809D01*
X149851190Y-99575000D01*
X149886904Y-99563095D01*
X149910714Y-99563095D01*
X149946428Y-99575000D01*
X149958333Y-99586904D01*
X150077380Y-99813095D02*
X150125000Y-99813095D01*
X150148809Y-99801190D01*
X150160714Y-99789285D01*
X150184523Y-99753571D01*
X150196428Y-99705952D01*
X150196428Y-99610714D01*
X150184523Y-99586904D01*
X150172619Y-99575000D01*
X150148809Y-99563095D01*
X150101190Y-99563095D01*
X150077380Y-99575000D01*
X150065476Y-99586904D01*
X150053571Y-99610714D01*
X150053571Y-99670238D01*
X150065476Y-99694047D01*
X150077380Y-99705952D01*
X150101190Y-99717857D01*
X150148809Y-99717857D01*
X150172619Y-99705952D01*
X150184523Y-99694047D01*
X150196428Y-99670238D01*
D15*
X127952380Y-99961904D02*
X128761904Y-99961904D01*
X128857142Y-99914285D01*
X128904761Y-99866666D01*
X128952380Y-99771428D01*
X128952380Y-99580952D01*
X128904761Y-99485714D01*
X128857142Y-99438095D01*
X128761904Y-99390476D01*
X127952380Y-99390476D01*
X127952380Y-98438095D02*
X127952380Y-98914285D01*
X128428571Y-98961904D01*
X128380952Y-98914285D01*
X128333333Y-98819047D01*
X128333333Y-98580952D01*
X128380952Y-98485714D01*
X128428571Y-98438095D01*
X128523809Y-98390476D01*
X128761904Y-98390476D01*
X128857142Y-98438095D01*
X128904761Y-98485714D01*
X128952380Y-98580952D01*
X128952380Y-98819047D01*
X128904761Y-98914285D01*
X128857142Y-98961904D01*
D16*
X155758333Y-101389285D02*
X155746428Y-101401190D01*
X155710714Y-101413095D01*
X155686904Y-101413095D01*
X155651190Y-101401190D01*
X155627380Y-101377380D01*
X155615476Y-101353571D01*
X155603571Y-101305952D01*
X155603571Y-101270238D01*
X155615476Y-101222619D01*
X155627380Y-101198809D01*
X155651190Y-101175000D01*
X155686904Y-101163095D01*
X155710714Y-101163095D01*
X155746428Y-101175000D01*
X155758333Y-101186904D01*
X155972619Y-101246428D02*
X155972619Y-101413095D01*
X155913095Y-101151190D02*
X155853571Y-101329761D01*
X156008333Y-101329761D01*
X124189285Y-101541666D02*
X124201190Y-101553571D01*
X124213095Y-101589285D01*
X124213095Y-101613095D01*
X124201190Y-101648809D01*
X124177380Y-101672619D01*
X124153571Y-101684523D01*
X124105952Y-101696428D01*
X124070238Y-101696428D01*
X124022619Y-101684523D01*
X123998809Y-101672619D01*
X123975000Y-101648809D01*
X123963095Y-101613095D01*
X123963095Y-101589285D01*
X123975000Y-101553571D01*
X123986904Y-101541666D01*
X124213095Y-101303571D02*
X124213095Y-101446428D01*
X124213095Y-101375000D02*
X123963095Y-101375000D01*
X123998809Y-101398809D01*
X124022619Y-101422619D01*
X124034523Y-101446428D01*
X142058333Y-91789285D02*
X142046428Y-91801190D01*
X142010714Y-91813095D01*
X141986904Y-91813095D01*
X141951190Y-91801190D01*
X141927380Y-91777380D01*
X141915476Y-91753571D01*
X141903571Y-91705952D01*
X141903571Y-91670238D01*
X141915476Y-91622619D01*
X141927380Y-91598809D01*
X141951190Y-91575000D01*
X141986904Y-91563095D01*
X142010714Y-91563095D01*
X142046428Y-91575000D01*
X142058333Y-91586904D01*
X142153571Y-91586904D02*
X142165476Y-91575000D01*
X142189285Y-91563095D01*
X142248809Y-91563095D01*
X142272619Y-91575000D01*
X142284523Y-91586904D01*
X142296428Y-91610714D01*
X142296428Y-91634523D01*
X142284523Y-91670238D01*
X142141666Y-91813095D01*
X142296428Y-91813095D01*
X124989285Y-96141666D02*
X125001190Y-96153571D01*
X125013095Y-96189285D01*
X125013095Y-96213095D01*
X125001190Y-96248809D01*
X124977380Y-96272619D01*
X124953571Y-96284523D01*
X124905952Y-96296428D01*
X124870238Y-96296428D01*
X124822619Y-96284523D01*
X124798809Y-96272619D01*
X124775000Y-96248809D01*
X124763095Y-96213095D01*
X124763095Y-96189285D01*
X124775000Y-96153571D01*
X124786904Y-96141666D01*
X124763095Y-96058333D02*
X124763095Y-95903571D01*
X124858333Y-95986904D01*
X124858333Y-95951190D01*
X124870238Y-95927380D01*
X124882142Y-95915476D01*
X124905952Y-95903571D01*
X124965476Y-95903571D01*
X124989285Y-95915476D01*
X125001190Y-95927380D01*
X125013095Y-95951190D01*
X125013095Y-96022619D01*
X125001190Y-96046428D01*
X124989285Y-96058333D01*
X155758333Y-100189285D02*
X155746428Y-100201190D01*
X155710714Y-100213095D01*
X155686904Y-100213095D01*
X155651190Y-100201190D01*
X155627380Y-100177380D01*
X155615476Y-100153571D01*
X155603571Y-100105952D01*
X155603571Y-100070238D01*
X155615476Y-100022619D01*
X155627380Y-99998809D01*
X155651190Y-99975000D01*
X155686904Y-99963095D01*
X155710714Y-99963095D01*
X155746428Y-99975000D01*
X155758333Y-99986904D01*
X155984523Y-99963095D02*
X155865476Y-99963095D01*
X155853571Y-100082142D01*
X155865476Y-100070238D01*
X155889285Y-100058333D01*
X155948809Y-100058333D01*
X155972619Y-100070238D01*
X155984523Y-100082142D01*
X155996428Y-100105952D01*
X155996428Y-100165476D01*
X155984523Y-100189285D01*
X155972619Y-100201190D01*
X155948809Y-100213095D01*
X155889285Y-100213095D01*
X155865476Y-100201190D01*
X155853571Y-100189285D01*
X136289285Y-92141666D02*
X136301190Y-92153571D01*
X136313095Y-92189285D01*
X136313095Y-92213095D01*
X136301190Y-92248809D01*
X136277380Y-92272619D01*
X136253571Y-92284523D01*
X136205952Y-92296428D01*
X136170238Y-92296428D01*
X136122619Y-92284523D01*
X136098809Y-92272619D01*
X136075000Y-92248809D01*
X136063095Y-92213095D01*
X136063095Y-92189285D01*
X136075000Y-92153571D01*
X136086904Y-92141666D01*
X136063095Y-91927380D02*
X136063095Y-91975000D01*
X136075000Y-91998809D01*
X136086904Y-92010714D01*
X136122619Y-92034523D01*
X136170238Y-92046428D01*
X136265476Y-92046428D01*
X136289285Y-92034523D01*
X136301190Y-92022619D01*
X136313095Y-91998809D01*
X136313095Y-91951190D01*
X136301190Y-91927380D01*
X136289285Y-91915476D01*
X136265476Y-91903571D01*
X136205952Y-91903571D01*
X136182142Y-91915476D01*
X136170238Y-91927380D01*
X136158333Y-91951190D01*
X136158333Y-91998809D01*
X136170238Y-92022619D01*
X136182142Y-92034523D01*
X136205952Y-92046428D01*
X137489285Y-92141666D02*
X137501190Y-92153571D01*
X137513095Y-92189285D01*
X137513095Y-92213095D01*
X137501190Y-92248809D01*
X137477380Y-92272619D01*
X137453571Y-92284523D01*
X137405952Y-92296428D01*
X137370238Y-92296428D01*
X137322619Y-92284523D01*
X137298809Y-92272619D01*
X137275000Y-92248809D01*
X137263095Y-92213095D01*
X137263095Y-92189285D01*
X137275000Y-92153571D01*
X137286904Y-92141666D01*
X137263095Y-92058333D02*
X137263095Y-91891666D01*
X137513095Y-91998809D01*
X147458333Y-99789285D02*
X147446428Y-99801190D01*
X147410714Y-99813095D01*
X147386904Y-99813095D01*
X147351190Y-99801190D01*
X147327380Y-99777380D01*
X147315476Y-99753571D01*
X147303571Y-99705952D01*
X147303571Y-99670238D01*
X147315476Y-99622619D01*
X147327380Y-99598809D01*
X147351190Y-99575000D01*
X147386904Y-99563095D01*
X147410714Y-99563095D01*
X147446428Y-99575000D01*
X147458333Y-99586904D01*
X147601190Y-99670238D02*
X147577380Y-99658333D01*
X147565476Y-99646428D01*
X147553571Y-99622619D01*
X147553571Y-99610714D01*
X147565476Y-99586904D01*
X147577380Y-99575000D01*
X147601190Y-99563095D01*
X147648809Y-99563095D01*
X147672619Y-99575000D01*
X147684523Y-99586904D01*
X147696428Y-99610714D01*
X147696428Y-99622619D01*
X147684523Y-99646428D01*
X147672619Y-99658333D01*
X147648809Y-99670238D01*
X147601190Y-99670238D01*
X147577380Y-99682142D01*
X147565476Y-99694047D01*
X147553571Y-99717857D01*
X147553571Y-99765476D01*
X147565476Y-99789285D01*
X147577380Y-99801190D01*
X147601190Y-99813095D01*
X147648809Y-99813095D01*
X147672619Y-99801190D01*
X147684523Y-99789285D01*
X147696428Y-99765476D01*
X147696428Y-99717857D01*
X147684523Y-99694047D01*
X147672619Y-99682142D01*
X147648809Y-99670238D01*
X124989285Y-94260714D02*
X125001190Y-94272619D01*
X125013095Y-94308333D01*
X125013095Y-94332142D01*
X125001190Y-94367857D01*
X124977380Y-94391666D01*
X124953571Y-94403571D01*
X124905952Y-94415476D01*
X124870238Y-94415476D01*
X124822619Y-94403571D01*
X124798809Y-94391666D01*
X124775000Y-94367857D01*
X124763095Y-94332142D01*
X124763095Y-94308333D01*
X124775000Y-94272619D01*
X124786904Y-94260714D01*
X125013095Y-94022619D02*
X125013095Y-94165476D01*
X125013095Y-94094047D02*
X124763095Y-94094047D01*
X124798809Y-94117857D01*
X124822619Y-94141666D01*
X124834523Y-94165476D01*
X124763095Y-93867857D02*
X124763095Y-93844047D01*
X124775000Y-93820238D01*
X124786904Y-93808333D01*
X124810714Y-93796428D01*
X124858333Y-93784523D01*
X124917857Y-93784523D01*
X124965476Y-93796428D01*
X124989285Y-93808333D01*
X125001190Y-93820238D01*
X125013095Y-93844047D01*
X125013095Y-93867857D01*
X125001190Y-93891666D01*
X124989285Y-93903571D01*
X124965476Y-93915476D01*
X124917857Y-93927380D01*
X124858333Y-93927380D01*
X124810714Y-93915476D01*
X124786904Y-93903571D01*
X124775000Y-93891666D01*
X124763095Y-93867857D01*
X151689285Y-92460714D02*
X151701190Y-92472619D01*
X151713095Y-92508333D01*
X151713095Y-92532142D01*
X151701190Y-92567857D01*
X151677380Y-92591666D01*
X151653571Y-92603571D01*
X151605952Y-92615476D01*
X151570238Y-92615476D01*
X151522619Y-92603571D01*
X151498809Y-92591666D01*
X151475000Y-92567857D01*
X151463095Y-92532142D01*
X151463095Y-92508333D01*
X151475000Y-92472619D01*
X151486904Y-92460714D01*
X151713095Y-92222619D02*
X151713095Y-92365476D01*
X151713095Y-92294047D02*
X151463095Y-92294047D01*
X151498809Y-92317857D01*
X151522619Y-92341666D01*
X151534523Y-92365476D01*
X151713095Y-91984523D02*
X151713095Y-92127380D01*
X151713095Y-92055952D02*
X151463095Y-92055952D01*
X151498809Y-92079761D01*
X151522619Y-92103571D01*
X151534523Y-92127380D01*
X137039285Y-95889285D02*
X137027380Y-95901190D01*
X136991666Y-95913095D01*
X136967857Y-95913095D01*
X136932142Y-95901190D01*
X136908333Y-95877380D01*
X136896428Y-95853571D01*
X136884523Y-95805952D01*
X136884523Y-95770238D01*
X136896428Y-95722619D01*
X136908333Y-95698809D01*
X136932142Y-95675000D01*
X136967857Y-95663095D01*
X136991666Y-95663095D01*
X137027380Y-95675000D01*
X137039285Y-95686904D01*
X137277380Y-95913095D02*
X137134523Y-95913095D01*
X137205952Y-95913095D02*
X137205952Y-95663095D01*
X137182142Y-95698809D01*
X137158333Y-95722619D01*
X137134523Y-95734523D01*
X137360714Y-95663095D02*
X137515476Y-95663095D01*
X137432142Y-95758333D01*
X137467857Y-95758333D01*
X137491666Y-95770238D01*
X137503571Y-95782142D01*
X137515476Y-95805952D01*
X137515476Y-95865476D01*
X137503571Y-95889285D01*
X137491666Y-95901190D01*
X137467857Y-95913095D01*
X137396428Y-95913095D01*
X137372619Y-95901190D01*
X137360714Y-95889285D01*
X146289285Y-93660714D02*
X146301190Y-93672619D01*
X146313095Y-93708333D01*
X146313095Y-93732142D01*
X146301190Y-93767857D01*
X146277380Y-93791666D01*
X146253571Y-93803571D01*
X146205952Y-93815476D01*
X146170238Y-93815476D01*
X146122619Y-93803571D01*
X146098809Y-93791666D01*
X146075000Y-93767857D01*
X146063095Y-93732142D01*
X146063095Y-93708333D01*
X146075000Y-93672619D01*
X146086904Y-93660714D01*
X146313095Y-93422619D02*
X146313095Y-93565476D01*
X146313095Y-93494047D02*
X146063095Y-93494047D01*
X146098809Y-93517857D01*
X146122619Y-93541666D01*
X146134523Y-93565476D01*
X146086904Y-93327380D02*
X146075000Y-93315476D01*
X146063095Y-93291666D01*
X146063095Y-93232142D01*
X146075000Y-93208333D01*
X146086904Y-93196428D01*
X146110714Y-93184523D01*
X146134523Y-93184523D01*
X146170238Y-93196428D01*
X146313095Y-93339285D01*
X146313095Y-93184523D01*
D17*
X144578571Y-93321428D02*
X144602380Y-93345238D01*
X144626190Y-93416666D01*
X144626190Y-93464285D01*
X144602380Y-93535714D01*
X144554761Y-93583333D01*
X144507142Y-93607142D01*
X144411904Y-93630952D01*
X144340476Y-93630952D01*
X144245238Y-93607142D01*
X144197619Y-93583333D01*
X144150000Y-93535714D01*
X144126190Y-93464285D01*
X144126190Y-93416666D01*
X144150000Y-93345238D01*
X144173809Y-93321428D01*
X144626190Y-92845238D02*
X144626190Y-93130952D01*
X144626190Y-92988095D02*
X144126190Y-92988095D01*
X144197619Y-93035714D01*
X144245238Y-93083333D01*
X144269047Y-93130952D01*
X144292857Y-92416666D02*
X144626190Y-92416666D01*
X144102380Y-92535714D02*
X144459523Y-92654761D01*
X144459523Y-92345238D01*
D18*
X133573809Y-101547619D02*
X133550000Y-101595238D01*
X133502380Y-101642857D01*
X133430952Y-101714285D01*
X133407142Y-101761904D01*
X133407142Y-101809523D01*
X133526190Y-101785714D02*
X133502380Y-101833333D01*
X133454761Y-101880952D01*
X133359523Y-101904761D01*
X133192857Y-101904761D01*
X133097619Y-101880952D01*
X133050000Y-101833333D01*
X133026190Y-101785714D01*
X133026190Y-101690476D01*
X133050000Y-101642857D01*
X133097619Y-101595238D01*
X133192857Y-101571428D01*
X133359523Y-101571428D01*
X133454761Y-101595238D01*
X133502380Y-101642857D01*
X133526190Y-101690476D01*
X133526190Y-101785714D01*
X133526190Y-101095238D02*
X133526190Y-101380952D01*
X133526190Y-101238095D02*
X133026190Y-101238095D01*
X133097619Y-101285714D01*
X133145238Y-101333333D01*
X133169047Y-101380952D01*
D19*
X125633333Y-92080952D02*
X125500000Y-91890476D01*
X125404761Y-92080952D02*
X125404761Y-91680952D01*
X125557142Y-91680952D01*
X125595238Y-91700000D01*
X125614285Y-91719047D01*
X125633333Y-91757142D01*
X125633333Y-91814285D01*
X125614285Y-91852380D01*
X125595238Y-91871428D01*
X125557142Y-91890476D01*
X125404761Y-91890476D01*
X126014285Y-92080952D02*
X125785714Y-92080952D01*
X125900000Y-92080952D02*
X125900000Y-91680952D01*
X125861904Y-91738095D01*
X125823809Y-91776190D01*
X125785714Y-91795238D01*
D16*
X159056666Y-97317619D02*
X158970000Y-97193809D01*
X158908095Y-97317619D02*
X158908095Y-97057619D01*
X159007142Y-97057619D01*
X159031904Y-97070000D01*
X159044285Y-97082380D01*
X159056666Y-97107142D01*
X159056666Y-97144285D01*
X159044285Y-97169047D01*
X159031904Y-97181428D01*
X159007142Y-97193809D01*
X158908095Y-97193809D01*
X159155714Y-97082380D02*
X159168095Y-97070000D01*
X159192857Y-97057619D01*
X159254761Y-97057619D01*
X159279523Y-97070000D01*
X159291904Y-97082380D01*
X159304285Y-97107142D01*
X159304285Y-97131904D01*
X159291904Y-97169047D01*
X159143333Y-97317619D01*
X159304285Y-97317619D01*
X153556666Y-100017619D02*
X153470000Y-99893809D01*
X153408095Y-100017619D02*
X153408095Y-99757619D01*
X153507142Y-99757619D01*
X153531904Y-99770000D01*
X153544285Y-99782380D01*
X153556666Y-99807142D01*
X153556666Y-99844285D01*
X153544285Y-99869047D01*
X153531904Y-99881428D01*
X153507142Y-99893809D01*
X153408095Y-99893809D01*
X153643333Y-99757619D02*
X153804285Y-99757619D01*
X153717619Y-99856666D01*
X153754761Y-99856666D01*
X153779523Y-99869047D01*
X153791904Y-99881428D01*
X153804285Y-99906190D01*
X153804285Y-99968095D01*
X153791904Y-99992857D01*
X153779523Y-100005238D01*
X153754761Y-100017619D01*
X153680476Y-100017619D01*
X153655714Y-100005238D01*
X153643333Y-99992857D01*
X157717619Y-102943333D02*
X157593809Y-103030000D01*
X157717619Y-103091904D02*
X157457619Y-103091904D01*
X157457619Y-102992857D01*
X157470000Y-102968095D01*
X157482380Y-102955714D01*
X157507142Y-102943333D01*
X157544285Y-102943333D01*
X157569047Y-102955714D01*
X157581428Y-102968095D01*
X157593809Y-102992857D01*
X157593809Y-103091904D01*
X157544285Y-102720476D02*
X157717619Y-102720476D01*
X157445238Y-102782380D02*
X157630952Y-102844285D01*
X157630952Y-102683333D01*
X154717619Y-102943333D02*
X154593809Y-103030000D01*
X154717619Y-103091904D02*
X154457619Y-103091904D01*
X154457619Y-102992857D01*
X154470000Y-102968095D01*
X154482380Y-102955714D01*
X154507142Y-102943333D01*
X154544285Y-102943333D01*
X154569047Y-102955714D01*
X154581428Y-102968095D01*
X154593809Y-102992857D01*
X154593809Y-103091904D01*
X154457619Y-102708095D02*
X154457619Y-102831904D01*
X154581428Y-102844285D01*
X154569047Y-102831904D01*
X154556666Y-102807142D01*
X154556666Y-102745238D01*
X154569047Y-102720476D01*
X154581428Y-102708095D01*
X154606190Y-102695714D01*
X154668095Y-102695714D01*
X154692857Y-102708095D01*
X154705238Y-102720476D01*
X154717619Y-102745238D01*
X154717619Y-102807142D01*
X154705238Y-102831904D01*
X154692857Y-102844285D01*
X152456666Y-101217619D02*
X152370000Y-101093809D01*
X152308095Y-101217619D02*
X152308095Y-100957619D01*
X152407142Y-100957619D01*
X152431904Y-100970000D01*
X152444285Y-100982380D01*
X152456666Y-101007142D01*
X152456666Y-101044285D01*
X152444285Y-101069047D01*
X152431904Y-101081428D01*
X152407142Y-101093809D01*
X152308095Y-101093809D01*
X152679523Y-100957619D02*
X152630000Y-100957619D01*
X152605238Y-100970000D01*
X152592857Y-100982380D01*
X152568095Y-101019523D01*
X152555714Y-101069047D01*
X152555714Y-101168095D01*
X152568095Y-101192857D01*
X152580476Y-101205238D01*
X152605238Y-101217619D01*
X152654761Y-101217619D01*
X152679523Y-101205238D01*
X152691904Y-101192857D01*
X152704285Y-101168095D01*
X152704285Y-101106190D01*
X152691904Y-101081428D01*
X152679523Y-101069047D01*
X152654761Y-101056666D01*
X152605238Y-101056666D01*
X152580476Y-101069047D01*
X152568095Y-101081428D01*
X152555714Y-101106190D01*
X123356666Y-103517619D02*
X123270000Y-103393809D01*
X123208095Y-103517619D02*
X123208095Y-103257619D01*
X123307142Y-103257619D01*
X123331904Y-103270000D01*
X123344285Y-103282380D01*
X123356666Y-103307142D01*
X123356666Y-103344285D01*
X123344285Y-103369047D01*
X123331904Y-103381428D01*
X123307142Y-103393809D01*
X123208095Y-103393809D01*
X123443333Y-103257619D02*
X123616666Y-103257619D01*
X123505238Y-103517619D01*
D19*
X148533333Y-95980952D02*
X148400000Y-95790476D01*
X148304761Y-95980952D02*
X148304761Y-95580952D01*
X148457142Y-95580952D01*
X148495238Y-95600000D01*
X148514285Y-95619047D01*
X148533333Y-95657142D01*
X148533333Y-95714285D01*
X148514285Y-95752380D01*
X148495238Y-95771428D01*
X148457142Y-95790476D01*
X148304761Y-95790476D01*
X148761904Y-95752380D02*
X148723809Y-95733333D01*
X148704761Y-95714285D01*
X148685714Y-95676190D01*
X148685714Y-95657142D01*
X148704761Y-95619047D01*
X148723809Y-95600000D01*
X148761904Y-95580952D01*
X148838095Y-95580952D01*
X148876190Y-95600000D01*
X148895238Y-95619047D01*
X148914285Y-95657142D01*
X148914285Y-95676190D01*
X148895238Y-95714285D01*
X148876190Y-95733333D01*
X148838095Y-95752380D01*
X148761904Y-95752380D01*
X148723809Y-95771428D01*
X148704761Y-95790476D01*
X148685714Y-95828571D01*
X148685714Y-95904761D01*
X148704761Y-95942857D01*
X148723809Y-95961904D01*
X148761904Y-95980952D01*
X148838095Y-95980952D01*
X148876190Y-95961904D01*
X148895238Y-95942857D01*
X148914285Y-95904761D01*
X148914285Y-95828571D01*
X148895238Y-95790476D01*
X148876190Y-95771428D01*
X148838095Y-95752380D01*
D16*
X121817619Y-101543333D02*
X121693809Y-101630000D01*
X121817619Y-101691904D02*
X121557619Y-101691904D01*
X121557619Y-101592857D01*
X121570000Y-101568095D01*
X121582380Y-101555714D01*
X121607142Y-101543333D01*
X121644285Y-101543333D01*
X121669047Y-101555714D01*
X121681428Y-101568095D01*
X121693809Y-101592857D01*
X121693809Y-101691904D01*
X121817619Y-101419523D02*
X121817619Y-101370000D01*
X121805238Y-101345238D01*
X121792857Y-101332857D01*
X121755714Y-101308095D01*
X121706190Y-101295714D01*
X121607142Y-101295714D01*
X121582380Y-101308095D01*
X121570000Y-101320476D01*
X121557619Y-101345238D01*
X121557619Y-101394761D01*
X121570000Y-101419523D01*
X121582380Y-101431904D01*
X121607142Y-101444285D01*
X121669047Y-101444285D01*
X121693809Y-101431904D01*
X121706190Y-101419523D01*
X121718571Y-101394761D01*
X121718571Y-101345238D01*
X121706190Y-101320476D01*
X121693809Y-101308095D01*
X121669047Y-101295714D01*
X123017619Y-101667142D02*
X122893809Y-101753809D01*
X123017619Y-101815714D02*
X122757619Y-101815714D01*
X122757619Y-101716666D01*
X122770000Y-101691904D01*
X122782380Y-101679523D01*
X122807142Y-101667142D01*
X122844285Y-101667142D01*
X122869047Y-101679523D01*
X122881428Y-101691904D01*
X122893809Y-101716666D01*
X122893809Y-101815714D01*
X123017619Y-101419523D02*
X123017619Y-101568095D01*
X123017619Y-101493809D02*
X122757619Y-101493809D01*
X122794761Y-101518571D01*
X122819523Y-101543333D01*
X122831904Y-101568095D01*
X122757619Y-101258571D02*
X122757619Y-101233809D01*
X122770000Y-101209047D01*
X122782380Y-101196666D01*
X122807142Y-101184285D01*
X122856666Y-101171904D01*
X122918571Y-101171904D01*
X122968095Y-101184285D01*
X122992857Y-101196666D01*
X123005238Y-101209047D01*
X123017619Y-101233809D01*
X123017619Y-101258571D01*
X123005238Y-101283333D01*
X122992857Y-101295714D01*
X122968095Y-101308095D01*
X122918571Y-101320476D01*
X122856666Y-101320476D01*
X122807142Y-101308095D01*
X122782380Y-101295714D01*
X122770000Y-101283333D01*
X122757619Y-101258571D01*
X150432857Y-102417619D02*
X150346190Y-102293809D01*
X150284285Y-102417619D02*
X150284285Y-102157619D01*
X150383333Y-102157619D01*
X150408095Y-102170000D01*
X150420476Y-102182380D01*
X150432857Y-102207142D01*
X150432857Y-102244285D01*
X150420476Y-102269047D01*
X150408095Y-102281428D01*
X150383333Y-102293809D01*
X150284285Y-102293809D01*
X150680476Y-102417619D02*
X150531904Y-102417619D01*
X150606190Y-102417619D02*
X150606190Y-102157619D01*
X150581428Y-102194761D01*
X150556666Y-102219523D01*
X150531904Y-102231904D01*
X150928095Y-102417619D02*
X150779523Y-102417619D01*
X150853809Y-102417619D02*
X150853809Y-102157619D01*
X150829047Y-102194761D01*
X150804285Y-102219523D01*
X150779523Y-102231904D01*
X152332857Y-102417619D02*
X152246190Y-102293809D01*
X152184285Y-102417619D02*
X152184285Y-102157619D01*
X152283333Y-102157619D01*
X152308095Y-102170000D01*
X152320476Y-102182380D01*
X152332857Y-102207142D01*
X152332857Y-102244285D01*
X152320476Y-102269047D01*
X152308095Y-102281428D01*
X152283333Y-102293809D01*
X152184285Y-102293809D01*
X152580476Y-102417619D02*
X152431904Y-102417619D01*
X152506190Y-102417619D02*
X152506190Y-102157619D01*
X152481428Y-102194761D01*
X152456666Y-102219523D01*
X152431904Y-102231904D01*
X152679523Y-102182380D02*
X152691904Y-102170000D01*
X152716666Y-102157619D01*
X152778571Y-102157619D01*
X152803333Y-102170000D01*
X152815714Y-102182380D01*
X152828095Y-102207142D01*
X152828095Y-102231904D01*
X152815714Y-102269047D01*
X152667142Y-102417619D01*
X152828095Y-102417619D01*
X140117619Y-96757142D02*
X139993809Y-96843809D01*
X140117619Y-96905714D02*
X139857619Y-96905714D01*
X139857619Y-96806666D01*
X139870000Y-96781904D01*
X139882380Y-96769523D01*
X139907142Y-96757142D01*
X139944285Y-96757142D01*
X139969047Y-96769523D01*
X139981428Y-96781904D01*
X139993809Y-96806666D01*
X139993809Y-96905714D01*
X140117619Y-96509523D02*
X140117619Y-96658095D01*
X140117619Y-96583809D02*
X139857619Y-96583809D01*
X139894761Y-96608571D01*
X139919523Y-96633333D01*
X139931904Y-96658095D01*
X139857619Y-96422857D02*
X139857619Y-96261904D01*
X139956666Y-96348571D01*
X139956666Y-96311428D01*
X139969047Y-96286666D01*
X139981428Y-96274285D01*
X140006190Y-96261904D01*
X140068095Y-96261904D01*
X140092857Y-96274285D01*
X140105238Y-96286666D01*
X140117619Y-96311428D01*
X140117619Y-96385714D01*
X140105238Y-96410476D01*
X140092857Y-96422857D01*
X143217619Y-96767142D02*
X143093809Y-96853809D01*
X143217619Y-96915714D02*
X142957619Y-96915714D01*
X142957619Y-96816666D01*
X142970000Y-96791904D01*
X142982380Y-96779523D01*
X143007142Y-96767142D01*
X143044285Y-96767142D01*
X143069047Y-96779523D01*
X143081428Y-96791904D01*
X143093809Y-96816666D01*
X143093809Y-96915714D01*
X143217619Y-96519523D02*
X143217619Y-96668095D01*
X143217619Y-96593809D02*
X142957619Y-96593809D01*
X142994761Y-96618571D01*
X143019523Y-96643333D01*
X143031904Y-96668095D01*
X143044285Y-96296666D02*
X143217619Y-96296666D01*
X142945238Y-96358571D02*
X143130952Y-96420476D01*
X143130952Y-96259523D01*
X155957619Y-103234285D02*
X155957619Y-103085714D01*
X156217619Y-103160000D02*
X155957619Y-103160000D01*
X156217619Y-102999047D02*
X155957619Y-102999047D01*
X156081428Y-102999047D02*
X156081428Y-102850476D01*
X156217619Y-102850476D02*
X155957619Y-102850476D01*
X156217619Y-102590476D02*
X156217619Y-102739047D01*
X156217619Y-102664761D02*
X155957619Y-102664761D01*
X155994761Y-102689523D01*
X156019523Y-102714285D01*
X156031904Y-102739047D01*
D18*
X148626190Y-93480952D02*
X149030952Y-93480952D01*
X149078571Y-93457142D01*
X149102380Y-93433333D01*
X149126190Y-93385714D01*
X149126190Y-93290476D01*
X149102380Y-93242857D01*
X149078571Y-93219047D01*
X149030952Y-93195238D01*
X148626190Y-93195238D01*
X148626190Y-92742857D02*
X148626190Y-92838095D01*
X148650000Y-92885714D01*
X148673809Y-92909523D01*
X148745238Y-92957142D01*
X148840476Y-92980952D01*
X149030952Y-92980952D01*
X149078571Y-92957142D01*
X149102380Y-92933333D01*
X149126190Y-92885714D01*
X149126190Y-92790476D01*
X149102380Y-92742857D01*
X149078571Y-92719047D01*
X149030952Y-92695238D01*
X148911904Y-92695238D01*
X148864285Y-92719047D01*
X148840476Y-92742857D01*
X148816666Y-92790476D01*
X148816666Y-92885714D01*
X148840476Y-92933333D01*
X148864285Y-92957142D01*
X148911904Y-92980952D01*
D11*
X135109523Y-97361904D02*
X135109523Y-96561904D01*
X135300000Y-96561904D01*
X135414285Y-96600000D01*
X135490476Y-96676190D01*
X135528571Y-96752380D01*
X135566666Y-96904761D01*
X135566666Y-97019047D01*
X135528571Y-97171428D01*
X135490476Y-97247619D01*
X135414285Y-97323809D01*
X135300000Y-97361904D01*
X135109523Y-97361904D01*
X135871428Y-96638095D02*
X135909523Y-96600000D01*
X135985714Y-96561904D01*
X136176190Y-96561904D01*
X136252380Y-96600000D01*
X136290476Y-96638095D01*
X136328571Y-96714285D01*
X136328571Y-96790476D01*
X136290476Y-96904761D01*
X135833333Y-97361904D01*
X136328571Y-97361904D01*
X141309523Y-95861904D02*
X141309523Y-95061904D01*
X141500000Y-95061904D01*
X141614285Y-95100000D01*
X141690476Y-95176190D01*
X141728571Y-95252380D01*
X141766666Y-95404761D01*
X141766666Y-95519047D01*
X141728571Y-95671428D01*
X141690476Y-95747619D01*
X141614285Y-95823809D01*
X141500000Y-95861904D01*
X141309523Y-95861904D01*
X142033333Y-95061904D02*
X142528571Y-95061904D01*
X142261904Y-95366666D01*
X142376190Y-95366666D01*
X142452380Y-95404761D01*
X142490476Y-95442857D01*
X142528571Y-95519047D01*
X142528571Y-95709523D01*
X142490476Y-95785714D01*
X142452380Y-95823809D01*
X142376190Y-95861904D01*
X142147619Y-95861904D01*
X142071428Y-95823809D01*
X142033333Y-95785714D01*
X138109523Y-95861904D02*
X138109523Y-95061904D01*
X138300000Y-95061904D01*
X138414285Y-95100000D01*
X138490476Y-95176190D01*
X138528571Y-95252380D01*
X138566666Y-95404761D01*
X138566666Y-95519047D01*
X138528571Y-95671428D01*
X138490476Y-95747619D01*
X138414285Y-95823809D01*
X138300000Y-95861904D01*
X138109523Y-95861904D01*
X139252380Y-95328571D02*
X139252380Y-95861904D01*
X139061904Y-95023809D02*
X138871428Y-95595238D01*
X139366666Y-95595238D01*
M02*
