G04 #@! TF.GenerationSoftware,KiCad,Pcbnew,(5.1.9-0-10_14)*
G04 #@! TF.CreationDate,2025-05-13T11:21:21-05:00*
G04 #@! TF.ProjectId,DTYF Beta,44545946-2042-4657-9461-2e6b69636164,rev?*
G04 #@! TF.SameCoordinates,Original*
G04 #@! TF.FileFunction,Copper,L2,Bot*
G04 #@! TF.FilePolarity,Positive*
%FSLAX46Y46*%
G04 Gerber Fmt 4.6, Leading zero omitted, Abs format (unit mm)*
G04 Created by KiCad (PCBNEW (5.1.9-0-10_14)) date 2025-05-13 11:21:21*
%MOMM*%
%LPD*%
G01*
G04 APERTURE LIST*
G04 #@! TA.AperFunction,SMDPad,CuDef*
%ADD10R,1.000000X2.000000*%
G04 #@! TD*
G04 #@! TA.AperFunction,ComponentPad*
%ADD11C,0.700000*%
G04 #@! TD*
G04 #@! TA.AperFunction,ComponentPad*
%ADD12O,0.900000X2.400000*%
G04 #@! TD*
G04 #@! TA.AperFunction,ComponentPad*
%ADD13O,0.900000X1.700000*%
G04 #@! TD*
G04 #@! TA.AperFunction,ViaPad*
%ADD14C,0.800000*%
G04 #@! TD*
G04 #@! TA.AperFunction,Conductor*
%ADD15C,0.250000*%
G04 #@! TD*
G04 #@! TA.AperFunction,Conductor*
%ADD16C,0.254000*%
G04 #@! TD*
G04 #@! TA.AperFunction,Conductor*
%ADD17C,0.100000*%
G04 #@! TD*
G04 APERTURE END LIST*
D10*
X153600000Y-95900000D03*
X151600000Y-95850000D03*
X158200000Y-92100000D03*
X156200000Y-92050000D03*
D11*
X137600000Y-98900000D03*
X138450000Y-98900000D03*
X139300000Y-98900000D03*
X140150000Y-98900000D03*
X141000000Y-98900000D03*
X141850000Y-98900000D03*
X142700000Y-98900000D03*
X143550000Y-98900000D03*
X138450000Y-100250000D03*
X140150000Y-100250000D03*
X139300000Y-100250000D03*
X137600000Y-100250000D03*
X141850000Y-100250000D03*
X142700000Y-100250000D03*
X143550000Y-100250000D03*
X141000000Y-100250000D03*
D12*
X136250000Y-99880000D03*
X144900000Y-99880000D03*
D13*
X136250000Y-103260000D03*
X144900000Y-103260000D03*
D14*
X130400000Y-98600003D03*
X131200000Y-93300000D03*
X157125000Y-100600000D03*
X148000000Y-98600000D03*
X120642000Y-97417000D03*
X123800000Y-95500000D03*
X141000000Y-96600000D03*
X154800000Y-98700000D03*
X154812653Y-100587347D03*
X151400000Y-99406239D03*
X148700000Y-99700000D03*
X134500000Y-98900000D03*
X147300000Y-93100000D03*
X148900000Y-93100000D03*
X127500000Y-99700000D03*
X133800000Y-96700000D03*
X138800000Y-95000000D03*
X135100000Y-95500000D03*
X135100000Y-96700000D03*
X122800000Y-95500000D03*
X160400000Y-103300000D03*
X159100000Y-96100000D03*
X153325000Y-91824230D03*
X153700000Y-102000000D03*
X146627027Y-98672973D03*
X133500000Y-91925000D03*
X145900000Y-95075000D03*
X149000000Y-97000000D03*
X151600000Y-94200000D03*
X121800000Y-94700000D03*
X124775000Y-100200000D03*
X146147096Y-102666130D03*
X126300000Y-100200000D03*
X121200000Y-92000000D03*
X127075000Y-94100000D03*
X156300000Y-95749999D03*
X152800000Y-98225000D03*
X133300000Y-99500000D03*
X155800000Y-94400000D03*
X157600000Y-97200000D03*
X127400000Y-101400000D03*
X155900000Y-98700000D03*
X159048700Y-103000000D03*
X130400000Y-97600000D03*
X121600000Y-102900000D03*
X125500000Y-98598000D03*
X142900000Y-92700000D03*
X127800000Y-97600000D03*
X159048700Y-102000000D03*
X125778086Y-97621914D03*
X141100000Y-94100000D03*
X133500000Y-94000000D03*
X132100000Y-99300000D03*
D15*
X156248001Y-97974999D02*
X157125000Y-98851998D01*
X148000000Y-98600000D02*
X151700000Y-98600000D01*
X153426998Y-99000000D02*
X154451999Y-97974999D01*
X157125000Y-98851998D02*
X157125000Y-100600000D01*
X152100000Y-99000000D02*
X153426998Y-99000000D01*
X151700000Y-98600000D02*
X152100000Y-99000000D01*
X154451999Y-97974999D02*
X156248001Y-97974999D01*
X131200000Y-98200000D02*
X131200000Y-93300000D01*
X130799997Y-98600003D02*
X131200000Y-98200000D01*
X130400000Y-98600003D02*
X130799997Y-98600003D01*
X154800000Y-100574694D02*
X154812653Y-100587347D01*
X154800000Y-98700000D02*
X154800000Y-100574694D01*
X151713668Y-99719907D02*
X151400000Y-99406239D01*
X153945213Y-99719907D02*
X151713668Y-99719907D01*
X154812653Y-100587347D02*
X153945213Y-99719907D01*
X148700000Y-99700000D02*
X149100000Y-99300000D01*
X151293761Y-99300000D02*
X151400000Y-99406239D01*
X149100000Y-99300000D02*
X151293761Y-99300000D01*
X159800000Y-102700000D02*
X160400000Y-103300000D01*
X159773701Y-96773701D02*
X159773701Y-102673701D01*
X159773701Y-102673701D02*
X159800000Y-102700000D01*
X159100000Y-96100000D02*
X159773701Y-96773701D01*
X158910001Y-90724999D02*
X159100000Y-90914998D01*
X154424231Y-90724999D02*
X158910001Y-90724999D01*
X159100000Y-90914998D02*
X159100000Y-96100000D01*
X153325000Y-91824230D02*
X154424231Y-90724999D01*
X138450000Y-98250000D02*
X138600000Y-98100000D01*
X138450000Y-98900000D02*
X138450000Y-98250000D01*
X142700000Y-98900000D02*
X142700000Y-98100000D01*
X138600000Y-98100000D02*
X142700000Y-98100000D01*
X145772973Y-98672973D02*
X146627027Y-98672973D01*
X145454990Y-98354990D02*
X145772973Y-98672973D01*
X144654990Y-98354990D02*
X145454990Y-98354990D01*
X144400000Y-98100000D02*
X144654990Y-98354990D01*
X142700000Y-98100000D02*
X144400000Y-98100000D01*
X150930083Y-100169917D02*
X152369917Y-100169917D01*
X153700000Y-101500000D02*
X153700000Y-102000000D01*
X146627027Y-100227027D02*
X146825001Y-100425001D01*
X146825001Y-100425001D02*
X150674999Y-100425001D01*
X150674999Y-100425001D02*
X150930083Y-100169917D01*
X152369917Y-100169917D02*
X153700000Y-101500000D01*
X146627027Y-98672973D02*
X146627027Y-100227027D01*
X151600000Y-92100000D02*
X151600000Y-94000000D01*
X151200000Y-91700000D02*
X151600000Y-92100000D01*
X141800000Y-91700000D02*
X151200000Y-91700000D01*
X141550010Y-91949990D02*
X141800000Y-91700000D01*
X141550010Y-93477008D02*
X141550010Y-91949990D01*
X141448001Y-94825001D02*
X141825001Y-94448001D01*
X141825001Y-94448001D02*
X141825001Y-93751999D01*
X140751999Y-94825001D02*
X141448001Y-94825001D01*
X141825001Y-93751999D02*
X141550010Y-93477008D01*
X140649990Y-93477008D02*
X140374999Y-93751999D01*
X140649990Y-91949990D02*
X140649990Y-93477008D01*
X140350009Y-91650009D02*
X140649990Y-91949990D01*
X133649991Y-91650009D02*
X140350009Y-91650009D01*
X133500000Y-91800000D02*
X133649991Y-91650009D01*
X133500000Y-91925000D02*
X133500000Y-91800000D01*
X140374999Y-94448001D02*
X140463499Y-94536501D01*
X140374999Y-93751999D02*
X140374999Y-94448001D01*
X140463499Y-94536501D02*
X140751999Y-94825001D01*
X149000000Y-97000000D02*
X146200000Y-97000000D01*
X145900000Y-96700000D02*
X145900000Y-95075000D01*
X146200000Y-97000000D02*
X145900000Y-96700000D01*
X151600000Y-94000000D02*
X151600000Y-94200000D01*
X151600000Y-94200000D02*
X151600000Y-95850000D01*
X121800000Y-94700000D02*
X121800000Y-97000000D01*
X121800000Y-97000000D02*
X121800000Y-99700000D01*
X121800000Y-99700000D02*
X121800000Y-99800000D01*
X121800000Y-99700000D02*
X121800000Y-99900000D01*
X122100000Y-100200000D02*
X124775000Y-100200000D01*
X121800000Y-99900000D02*
X122100000Y-100200000D01*
X146147096Y-102666130D02*
X145480966Y-102000000D01*
X132074999Y-102125001D02*
X126725001Y-102125001D01*
X132200000Y-102000000D02*
X132074999Y-102125001D01*
X145480966Y-102000000D02*
X132200000Y-102000000D01*
X126300000Y-101700000D02*
X126300000Y-100200000D01*
X126725001Y-102125001D02*
X126300000Y-101700000D01*
X127000000Y-92000000D02*
X126900000Y-92000000D01*
X126900000Y-92000000D02*
X121200000Y-92000000D01*
X127075000Y-94100000D02*
X127075000Y-92075000D01*
X127075000Y-92075000D02*
X127000000Y-92000000D01*
X156300000Y-95749999D02*
X157850001Y-95749999D01*
X158200000Y-95400000D02*
X158200000Y-92100000D01*
X157850001Y-95749999D02*
X158200000Y-95400000D01*
X151961410Y-98225000D02*
X152800000Y-98225000D01*
X151686420Y-97950010D02*
X151961410Y-98225000D01*
X148423012Y-97950010D02*
X151686420Y-97950010D01*
X148122992Y-97649990D02*
X148423012Y-97950010D01*
X133550010Y-97649990D02*
X148122992Y-97649990D01*
X133300000Y-97900000D02*
X133550010Y-97649990D01*
X133300000Y-99500000D02*
X133300000Y-97900000D01*
X155800000Y-94400000D02*
X156200000Y-94000000D01*
X156200000Y-94000000D02*
X156200000Y-92050000D01*
X157600000Y-97200000D02*
X157400000Y-97000000D01*
X154700000Y-97000000D02*
X153600000Y-95900000D01*
X157400000Y-97000000D02*
X154700000Y-97000000D01*
X127400000Y-101400000D02*
X127405010Y-101405010D01*
X127405010Y-101405010D02*
X145958978Y-101405010D01*
X145958978Y-101405010D02*
X147753968Y-103200000D01*
X155900000Y-102800000D02*
X155900000Y-98700000D01*
X155500000Y-103200000D02*
X155900000Y-102800000D01*
X147753968Y-103200000D02*
X155500000Y-103200000D01*
X128525001Y-97625001D02*
X130374999Y-97625001D01*
X130374999Y-97625001D02*
X130400000Y-97600000D01*
X128525001Y-98374999D02*
X128525001Y-97625001D01*
X128302000Y-98598000D02*
X128525001Y-98374999D01*
X125500000Y-98598000D02*
X128302000Y-98598000D01*
X125100000Y-102900000D02*
X125500000Y-102500000D01*
X125500000Y-102500000D02*
X125500000Y-98598000D01*
X121600000Y-102900000D02*
X125100000Y-102900000D01*
X158483015Y-103000000D02*
X159048700Y-103000000D01*
X156500000Y-97500000D02*
X158200000Y-99200000D01*
X151164998Y-97500000D02*
X156500000Y-97500000D01*
X150600000Y-92500000D02*
X150600000Y-96935002D01*
X142000020Y-92299980D02*
X142149990Y-92150010D01*
X158200000Y-99200000D02*
X158200000Y-102716985D01*
X142000020Y-93195294D02*
X142000020Y-92299980D01*
X141634402Y-95275010D02*
X142300000Y-94609412D01*
X150250010Y-92150010D02*
X150600000Y-92500000D01*
X140565599Y-95275011D02*
X141634402Y-95275010D01*
X132152008Y-91650010D02*
X133151999Y-92650001D01*
X139924989Y-93565599D02*
X139924990Y-94634402D01*
X158200000Y-102716985D02*
X158483015Y-103000000D01*
X142300000Y-93495274D02*
X142000020Y-93195294D01*
X140199980Y-92199980D02*
X140199980Y-93290608D01*
X128749990Y-91650010D02*
X132152008Y-91650010D01*
X140100019Y-92100019D02*
X140199980Y-92199980D01*
X150600000Y-96935002D02*
X151164998Y-97500000D01*
X133848001Y-92650001D02*
X134397983Y-92100019D01*
X140199980Y-93290608D02*
X139924989Y-93565599D01*
X134397983Y-92100019D02*
X140100019Y-92100019D01*
X133151999Y-92650001D02*
X133848001Y-92650001D01*
X128525001Y-91874999D02*
X128749990Y-91650010D01*
X142300000Y-94609412D02*
X142300000Y-93495274D01*
X139924990Y-94634402D02*
X140565599Y-95275011D01*
X128525001Y-97625001D02*
X128525001Y-91874999D01*
X142900000Y-92700000D02*
X142900000Y-92200000D01*
X142850010Y-92150010D02*
X150250010Y-92150010D01*
X142900000Y-92200000D02*
X142850010Y-92150010D01*
X142149990Y-92150010D02*
X142850010Y-92150010D01*
X127800000Y-97600000D02*
X127778086Y-97621914D01*
X127778086Y-97621914D02*
X125778086Y-97621914D01*
X128074991Y-91688599D02*
X128074991Y-97325009D01*
X128563589Y-91200001D02*
X128074991Y-91688599D01*
X128074991Y-97325009D02*
X127800000Y-97600000D01*
X140600000Y-91200000D02*
X128563589Y-91200001D01*
X141100000Y-91700000D02*
X140600000Y-91200000D01*
X141100000Y-91700000D02*
X141100000Y-94100000D01*
X152300000Y-91200000D02*
X141600000Y-91200000D01*
X152600000Y-91500000D02*
X152300000Y-91200000D01*
X152600000Y-93900000D02*
X152600000Y-91500000D01*
X154700000Y-94900000D02*
X154439999Y-94639999D01*
X154439999Y-94639999D02*
X154425001Y-94639999D01*
X154874999Y-96474999D02*
X154700000Y-96300000D01*
X159048700Y-102000000D02*
X159048700Y-97148700D01*
X141600000Y-91200000D02*
X141100000Y-91700000D01*
X159048700Y-97148700D02*
X158374999Y-96474999D01*
X153274999Y-94574999D02*
X152600000Y-93900000D01*
X154360001Y-94574999D02*
X153274999Y-94574999D01*
X154425001Y-94639999D02*
X154360001Y-94574999D01*
X158374999Y-96474999D02*
X154874999Y-96474999D01*
X154700000Y-94900000D02*
X154700000Y-96300000D01*
X133500000Y-94000000D02*
X132600000Y-94000000D01*
X132100000Y-94500000D02*
X132100000Y-99300000D01*
X132600000Y-94000000D02*
X132100000Y-94500000D01*
D16*
X126300725Y-102759975D02*
X126432754Y-102830547D01*
X126576015Y-102874004D01*
X126687668Y-102885001D01*
X126687677Y-102885001D01*
X126725000Y-102888677D01*
X126762323Y-102885001D01*
X132037677Y-102885001D01*
X132074999Y-102888677D01*
X132112321Y-102885001D01*
X132112332Y-102885001D01*
X132223985Y-102874004D01*
X132367246Y-102830547D01*
X132499228Y-102760000D01*
X135165000Y-102760000D01*
X135165000Y-103133000D01*
X136123000Y-103133000D01*
X136123000Y-103113000D01*
X136377000Y-103113000D01*
X136377000Y-103133000D01*
X137335000Y-103133000D01*
X137335000Y-102760000D01*
X143815000Y-102760000D01*
X143815000Y-103133000D01*
X144773000Y-103133000D01*
X144773000Y-103113000D01*
X145027000Y-103113000D01*
X145027000Y-103133000D01*
X145047000Y-103133000D01*
X145047000Y-103387000D01*
X145027000Y-103387000D01*
X145027000Y-103407000D01*
X144773000Y-103407000D01*
X144773000Y-103387000D01*
X143815000Y-103387000D01*
X143815000Y-103787000D01*
X143860624Y-103996233D01*
X143946191Y-104192545D01*
X144048680Y-104340000D01*
X137101320Y-104340000D01*
X137203809Y-104192545D01*
X137289376Y-103996233D01*
X137335000Y-103787000D01*
X137335000Y-103387000D01*
X136377000Y-103387000D01*
X136377000Y-103407000D01*
X136123000Y-103407000D01*
X136123000Y-103387000D01*
X135165000Y-103387000D01*
X135165000Y-103787000D01*
X135210624Y-103996233D01*
X135296191Y-104192545D01*
X135398680Y-104340000D01*
X121032279Y-104340000D01*
X120934576Y-104330420D01*
X120871643Y-104311420D01*
X120813594Y-104280554D01*
X120762657Y-104239011D01*
X120720752Y-104188356D01*
X120689485Y-104130529D01*
X120670044Y-104067728D01*
X120660000Y-103972165D01*
X120660000Y-103335224D01*
X120682795Y-103390256D01*
X120796063Y-103559774D01*
X120940226Y-103703937D01*
X121109744Y-103817205D01*
X121298102Y-103895226D01*
X121498061Y-103935000D01*
X121701939Y-103935000D01*
X121901898Y-103895226D01*
X122090256Y-103817205D01*
X122259774Y-103703937D01*
X122303711Y-103660000D01*
X125062678Y-103660000D01*
X125100000Y-103663676D01*
X125137322Y-103660000D01*
X125137333Y-103660000D01*
X125248986Y-103649003D01*
X125392247Y-103605546D01*
X125524276Y-103534974D01*
X125640001Y-103440001D01*
X125663803Y-103410998D01*
X126011003Y-103063799D01*
X126040001Y-103040001D01*
X126134974Y-102924276D01*
X126205546Y-102792247D01*
X126232356Y-102703866D01*
X126300725Y-102759975D01*
G04 #@! TA.AperFunction,Conductor*
D17*
G36*
X126300725Y-102759975D02*
G01*
X126432754Y-102830547D01*
X126576015Y-102874004D01*
X126687668Y-102885001D01*
X126687677Y-102885001D01*
X126725000Y-102888677D01*
X126762323Y-102885001D01*
X132037677Y-102885001D01*
X132074999Y-102888677D01*
X132112321Y-102885001D01*
X132112332Y-102885001D01*
X132223985Y-102874004D01*
X132367246Y-102830547D01*
X132499228Y-102760000D01*
X135165000Y-102760000D01*
X135165000Y-103133000D01*
X136123000Y-103133000D01*
X136123000Y-103113000D01*
X136377000Y-103113000D01*
X136377000Y-103133000D01*
X137335000Y-103133000D01*
X137335000Y-102760000D01*
X143815000Y-102760000D01*
X143815000Y-103133000D01*
X144773000Y-103133000D01*
X144773000Y-103113000D01*
X145027000Y-103113000D01*
X145027000Y-103133000D01*
X145047000Y-103133000D01*
X145047000Y-103387000D01*
X145027000Y-103387000D01*
X145027000Y-103407000D01*
X144773000Y-103407000D01*
X144773000Y-103387000D01*
X143815000Y-103387000D01*
X143815000Y-103787000D01*
X143860624Y-103996233D01*
X143946191Y-104192545D01*
X144048680Y-104340000D01*
X137101320Y-104340000D01*
X137203809Y-104192545D01*
X137289376Y-103996233D01*
X137335000Y-103787000D01*
X137335000Y-103387000D01*
X136377000Y-103387000D01*
X136377000Y-103407000D01*
X136123000Y-103407000D01*
X136123000Y-103387000D01*
X135165000Y-103387000D01*
X135165000Y-103787000D01*
X135210624Y-103996233D01*
X135296191Y-104192545D01*
X135398680Y-104340000D01*
X121032279Y-104340000D01*
X120934576Y-104330420D01*
X120871643Y-104311420D01*
X120813594Y-104280554D01*
X120762657Y-104239011D01*
X120720752Y-104188356D01*
X120689485Y-104130529D01*
X120670044Y-104067728D01*
X120660000Y-103972165D01*
X120660000Y-103335224D01*
X120682795Y-103390256D01*
X120796063Y-103559774D01*
X120940226Y-103703937D01*
X121109744Y-103817205D01*
X121298102Y-103895226D01*
X121498061Y-103935000D01*
X121701939Y-103935000D01*
X121901898Y-103895226D01*
X122090256Y-103817205D01*
X122259774Y-103703937D01*
X122303711Y-103660000D01*
X125062678Y-103660000D01*
X125100000Y-103663676D01*
X125137322Y-103660000D01*
X125137333Y-103660000D01*
X125248986Y-103649003D01*
X125392247Y-103605546D01*
X125524276Y-103534974D01*
X125640001Y-103440001D01*
X125663803Y-103410998D01*
X126011003Y-103063799D01*
X126040001Y-103040001D01*
X126134974Y-102924276D01*
X126205546Y-102792247D01*
X126232356Y-102703866D01*
X126300725Y-102759975D01*
G37*
G04 #@! TD.AperFunction*
D16*
X126315000Y-93396289D02*
X126271063Y-93440226D01*
X126157795Y-93609744D01*
X126079774Y-93798102D01*
X126040000Y-93998061D01*
X126040000Y-94201939D01*
X126079774Y-94401898D01*
X126157795Y-94590256D01*
X126271063Y-94759774D01*
X126415226Y-94903937D01*
X126584744Y-95017205D01*
X126773102Y-95095226D01*
X126973061Y-95135000D01*
X127176939Y-95135000D01*
X127314992Y-95107540D01*
X127314992Y-96680621D01*
X127309744Y-96682795D01*
X127140226Y-96796063D01*
X127074375Y-96861914D01*
X126481797Y-96861914D01*
X126437860Y-96817977D01*
X126268342Y-96704709D01*
X126079984Y-96626688D01*
X125880025Y-96586914D01*
X125676147Y-96586914D01*
X125476188Y-96626688D01*
X125287830Y-96704709D01*
X125118312Y-96817977D01*
X124974149Y-96962140D01*
X124860881Y-97131658D01*
X124782860Y-97320016D01*
X124743086Y-97519975D01*
X124743086Y-97723853D01*
X124770851Y-97863438D01*
X124696063Y-97938226D01*
X124582795Y-98107744D01*
X124504774Y-98296102D01*
X124465000Y-98496061D01*
X124465000Y-98699939D01*
X124504774Y-98899898D01*
X124582795Y-99088256D01*
X124638647Y-99171845D01*
X124473102Y-99204774D01*
X124284744Y-99282795D01*
X124115226Y-99396063D01*
X124071289Y-99440000D01*
X122560000Y-99440000D01*
X122560000Y-95403711D01*
X122603937Y-95359774D01*
X122717205Y-95190256D01*
X122795226Y-95001898D01*
X122835000Y-94801939D01*
X122835000Y-94598061D01*
X122795226Y-94398102D01*
X122717205Y-94209744D01*
X122603937Y-94040226D01*
X122459774Y-93896063D01*
X122290256Y-93782795D01*
X122101898Y-93704774D01*
X121901939Y-93665000D01*
X121698061Y-93665000D01*
X121498102Y-93704774D01*
X121309744Y-93782795D01*
X121140226Y-93896063D01*
X120996063Y-94040226D01*
X120882795Y-94209744D01*
X120804774Y-94398102D01*
X120765000Y-94598061D01*
X120765000Y-94801939D01*
X120804774Y-95001898D01*
X120882795Y-95190256D01*
X120996063Y-95359774D01*
X121040000Y-95403711D01*
X121040001Y-96962658D01*
X121040000Y-96962668D01*
X121040001Y-99662658D01*
X121040000Y-99662668D01*
X121040000Y-99862678D01*
X121036324Y-99900000D01*
X121040000Y-99937322D01*
X121040000Y-99937333D01*
X121050997Y-100048986D01*
X121094454Y-100192247D01*
X121165026Y-100324276D01*
X121259999Y-100440001D01*
X121289002Y-100463803D01*
X121536196Y-100710997D01*
X121559999Y-100740001D01*
X121675724Y-100834974D01*
X121807753Y-100905546D01*
X121951014Y-100949003D01*
X122062667Y-100960000D01*
X122062676Y-100960000D01*
X122099999Y-100963676D01*
X122137322Y-100960000D01*
X124071289Y-100960000D01*
X124115226Y-101003937D01*
X124284744Y-101117205D01*
X124473102Y-101195226D01*
X124673061Y-101235000D01*
X124740000Y-101235000D01*
X124740000Y-102140000D01*
X122303711Y-102140000D01*
X122259774Y-102096063D01*
X122090256Y-101982795D01*
X121901898Y-101904774D01*
X121701939Y-101865000D01*
X121498061Y-101865000D01*
X121298102Y-101904774D01*
X121109744Y-101982795D01*
X120940226Y-102096063D01*
X120796063Y-102240226D01*
X120682795Y-102409744D01*
X120660000Y-102464776D01*
X120660000Y-92883967D01*
X120709744Y-92917205D01*
X120898102Y-92995226D01*
X121098061Y-93035000D01*
X121301939Y-93035000D01*
X121501898Y-92995226D01*
X121690256Y-92917205D01*
X121859774Y-92803937D01*
X121903711Y-92760000D01*
X126315001Y-92760000D01*
X126315000Y-93396289D01*
G04 #@! TA.AperFunction,Conductor*
D17*
G36*
X126315000Y-93396289D02*
G01*
X126271063Y-93440226D01*
X126157795Y-93609744D01*
X126079774Y-93798102D01*
X126040000Y-93998061D01*
X126040000Y-94201939D01*
X126079774Y-94401898D01*
X126157795Y-94590256D01*
X126271063Y-94759774D01*
X126415226Y-94903937D01*
X126584744Y-95017205D01*
X126773102Y-95095226D01*
X126973061Y-95135000D01*
X127176939Y-95135000D01*
X127314992Y-95107540D01*
X127314992Y-96680621D01*
X127309744Y-96682795D01*
X127140226Y-96796063D01*
X127074375Y-96861914D01*
X126481797Y-96861914D01*
X126437860Y-96817977D01*
X126268342Y-96704709D01*
X126079984Y-96626688D01*
X125880025Y-96586914D01*
X125676147Y-96586914D01*
X125476188Y-96626688D01*
X125287830Y-96704709D01*
X125118312Y-96817977D01*
X124974149Y-96962140D01*
X124860881Y-97131658D01*
X124782860Y-97320016D01*
X124743086Y-97519975D01*
X124743086Y-97723853D01*
X124770851Y-97863438D01*
X124696063Y-97938226D01*
X124582795Y-98107744D01*
X124504774Y-98296102D01*
X124465000Y-98496061D01*
X124465000Y-98699939D01*
X124504774Y-98899898D01*
X124582795Y-99088256D01*
X124638647Y-99171845D01*
X124473102Y-99204774D01*
X124284744Y-99282795D01*
X124115226Y-99396063D01*
X124071289Y-99440000D01*
X122560000Y-99440000D01*
X122560000Y-95403711D01*
X122603937Y-95359774D01*
X122717205Y-95190256D01*
X122795226Y-95001898D01*
X122835000Y-94801939D01*
X122835000Y-94598061D01*
X122795226Y-94398102D01*
X122717205Y-94209744D01*
X122603937Y-94040226D01*
X122459774Y-93896063D01*
X122290256Y-93782795D01*
X122101898Y-93704774D01*
X121901939Y-93665000D01*
X121698061Y-93665000D01*
X121498102Y-93704774D01*
X121309744Y-93782795D01*
X121140226Y-93896063D01*
X120996063Y-94040226D01*
X120882795Y-94209744D01*
X120804774Y-94398102D01*
X120765000Y-94598061D01*
X120765000Y-94801939D01*
X120804774Y-95001898D01*
X120882795Y-95190256D01*
X120996063Y-95359774D01*
X121040000Y-95403711D01*
X121040001Y-96962658D01*
X121040000Y-96962668D01*
X121040001Y-99662658D01*
X121040000Y-99662668D01*
X121040000Y-99862678D01*
X121036324Y-99900000D01*
X121040000Y-99937322D01*
X121040000Y-99937333D01*
X121050997Y-100048986D01*
X121094454Y-100192247D01*
X121165026Y-100324276D01*
X121259999Y-100440001D01*
X121289002Y-100463803D01*
X121536196Y-100710997D01*
X121559999Y-100740001D01*
X121675724Y-100834974D01*
X121807753Y-100905546D01*
X121951014Y-100949003D01*
X122062667Y-100960000D01*
X122062676Y-100960000D01*
X122099999Y-100963676D01*
X122137322Y-100960000D01*
X124071289Y-100960000D01*
X124115226Y-101003937D01*
X124284744Y-101117205D01*
X124473102Y-101195226D01*
X124673061Y-101235000D01*
X124740000Y-101235000D01*
X124740000Y-102140000D01*
X122303711Y-102140000D01*
X122259774Y-102096063D01*
X122090256Y-101982795D01*
X121901898Y-101904774D01*
X121701939Y-101865000D01*
X121498061Y-101865000D01*
X121298102Y-101904774D01*
X121109744Y-101982795D01*
X120940226Y-102096063D01*
X120796063Y-102240226D01*
X120682795Y-102409744D01*
X120660000Y-102464776D01*
X120660000Y-92883967D01*
X120709744Y-92917205D01*
X120898102Y-92995226D01*
X121098061Y-93035000D01*
X121301939Y-93035000D01*
X121501898Y-92995226D01*
X121690256Y-92917205D01*
X121859774Y-92803937D01*
X121903711Y-92760000D01*
X126315001Y-92760000D01*
X126315000Y-93396289D01*
G37*
G04 #@! TD.AperFunction*
D16*
X154865000Y-98801939D02*
X154904774Y-99001898D01*
X154982795Y-99190256D01*
X155096063Y-99359774D01*
X155140001Y-99403712D01*
X155140000Y-102440000D01*
X154638022Y-102440000D01*
X154695226Y-102301898D01*
X154735000Y-102101939D01*
X154735000Y-101898061D01*
X154695226Y-101698102D01*
X154617205Y-101509744D01*
X154503937Y-101340226D01*
X154420386Y-101256675D01*
X154405546Y-101207753D01*
X154334974Y-101075724D01*
X154292752Y-101024276D01*
X154263799Y-100988996D01*
X154263795Y-100988992D01*
X154240001Y-100959999D01*
X154211009Y-100936206D01*
X153034801Y-99760000D01*
X153389676Y-99760000D01*
X153426998Y-99763676D01*
X153464320Y-99760000D01*
X153464331Y-99760000D01*
X153575984Y-99749003D01*
X153719245Y-99705546D01*
X153851274Y-99634974D01*
X153966999Y-99540001D01*
X153990802Y-99510998D01*
X154766801Y-98734999D01*
X154865000Y-98734999D01*
X154865000Y-98801939D01*
G04 #@! TA.AperFunction,Conductor*
D17*
G36*
X154865000Y-98801939D02*
G01*
X154904774Y-99001898D01*
X154982795Y-99190256D01*
X155096063Y-99359774D01*
X155140001Y-99403712D01*
X155140000Y-102440000D01*
X154638022Y-102440000D01*
X154695226Y-102301898D01*
X154735000Y-102101939D01*
X154735000Y-101898061D01*
X154695226Y-101698102D01*
X154617205Y-101509744D01*
X154503937Y-101340226D01*
X154420386Y-101256675D01*
X154405546Y-101207753D01*
X154334974Y-101075724D01*
X154292752Y-101024276D01*
X154263799Y-100988996D01*
X154263795Y-100988992D01*
X154240001Y-100959999D01*
X154211009Y-100936206D01*
X153034801Y-99760000D01*
X153389676Y-99760000D01*
X153426998Y-99763676D01*
X153464320Y-99760000D01*
X153464331Y-99760000D01*
X153575984Y-99749003D01*
X153719245Y-99705546D01*
X153851274Y-99634974D01*
X153966999Y-99540001D01*
X153990802Y-99510998D01*
X154766801Y-98734999D01*
X154865000Y-98734999D01*
X154865000Y-98801939D01*
G37*
G04 #@! TD.AperFunction*
D16*
X129365000Y-98498064D02*
X129365000Y-98701942D01*
X129404774Y-98901901D01*
X129482795Y-99090259D01*
X129596063Y-99259777D01*
X129740226Y-99403940D01*
X129909744Y-99517208D01*
X130098102Y-99595229D01*
X130298061Y-99635003D01*
X130501939Y-99635003D01*
X130701898Y-99595229D01*
X130890256Y-99517208D01*
X131059774Y-99403940D01*
X131065000Y-99398714D01*
X131065000Y-99401939D01*
X131104774Y-99601898D01*
X131182795Y-99790256D01*
X131296063Y-99959774D01*
X131440226Y-100103937D01*
X131609744Y-100217205D01*
X131798102Y-100295226D01*
X131998061Y-100335000D01*
X132201939Y-100335000D01*
X132401898Y-100295226D01*
X132564261Y-100227972D01*
X132640226Y-100303937D01*
X132809744Y-100417205D01*
X132998102Y-100495226D01*
X133198061Y-100535000D01*
X133401939Y-100535000D01*
X133601898Y-100495226D01*
X133790256Y-100417205D01*
X133959774Y-100303937D01*
X134103937Y-100159774D01*
X134217205Y-99990256D01*
X134295226Y-99801898D01*
X134335000Y-99601939D01*
X134335000Y-99398061D01*
X134295226Y-99198102D01*
X134217205Y-99009744D01*
X134103937Y-98840226D01*
X134060000Y-98796289D01*
X134060000Y-98409990D01*
X135430466Y-98409990D01*
X135418413Y-98421609D01*
X135296191Y-98597455D01*
X135210624Y-98793767D01*
X135165000Y-99003000D01*
X135165000Y-99753000D01*
X136123000Y-99753000D01*
X136123000Y-99733000D01*
X136377000Y-99733000D01*
X136377000Y-99753000D01*
X136923392Y-99753000D01*
X136929480Y-99759088D01*
X136731233Y-99775784D01*
X136655411Y-99954384D01*
X136644464Y-100007000D01*
X136377000Y-100007000D01*
X136377000Y-100027000D01*
X136123000Y-100027000D01*
X136123000Y-100007000D01*
X135165000Y-100007000D01*
X135165000Y-100645010D01*
X128108721Y-100645010D01*
X128059774Y-100596063D01*
X127890256Y-100482795D01*
X127701898Y-100404774D01*
X127501939Y-100365000D01*
X127322456Y-100365000D01*
X127335000Y-100301939D01*
X127335000Y-100098061D01*
X127295226Y-99898102D01*
X127217205Y-99709744D01*
X127103937Y-99540226D01*
X126959774Y-99396063D01*
X126902809Y-99358000D01*
X128264678Y-99358000D01*
X128302000Y-99361676D01*
X128339322Y-99358000D01*
X128339333Y-99358000D01*
X128450986Y-99347003D01*
X128594247Y-99303546D01*
X128726276Y-99232974D01*
X128842001Y-99138001D01*
X128865804Y-99108997D01*
X129035999Y-98938802D01*
X129065002Y-98915000D01*
X129159975Y-98799275D01*
X129230547Y-98667246D01*
X129274004Y-98523985D01*
X129285001Y-98412332D01*
X129285001Y-98412323D01*
X129287692Y-98385001D01*
X129387489Y-98385001D01*
X129365000Y-98498064D01*
G04 #@! TA.AperFunction,Conductor*
D17*
G36*
X129365000Y-98498064D02*
G01*
X129365000Y-98701942D01*
X129404774Y-98901901D01*
X129482795Y-99090259D01*
X129596063Y-99259777D01*
X129740226Y-99403940D01*
X129909744Y-99517208D01*
X130098102Y-99595229D01*
X130298061Y-99635003D01*
X130501939Y-99635003D01*
X130701898Y-99595229D01*
X130890256Y-99517208D01*
X131059774Y-99403940D01*
X131065000Y-99398714D01*
X131065000Y-99401939D01*
X131104774Y-99601898D01*
X131182795Y-99790256D01*
X131296063Y-99959774D01*
X131440226Y-100103937D01*
X131609744Y-100217205D01*
X131798102Y-100295226D01*
X131998061Y-100335000D01*
X132201939Y-100335000D01*
X132401898Y-100295226D01*
X132564261Y-100227972D01*
X132640226Y-100303937D01*
X132809744Y-100417205D01*
X132998102Y-100495226D01*
X133198061Y-100535000D01*
X133401939Y-100535000D01*
X133601898Y-100495226D01*
X133790256Y-100417205D01*
X133959774Y-100303937D01*
X134103937Y-100159774D01*
X134217205Y-99990256D01*
X134295226Y-99801898D01*
X134335000Y-99601939D01*
X134335000Y-99398061D01*
X134295226Y-99198102D01*
X134217205Y-99009744D01*
X134103937Y-98840226D01*
X134060000Y-98796289D01*
X134060000Y-98409990D01*
X135430466Y-98409990D01*
X135418413Y-98421609D01*
X135296191Y-98597455D01*
X135210624Y-98793767D01*
X135165000Y-99003000D01*
X135165000Y-99753000D01*
X136123000Y-99753000D01*
X136123000Y-99733000D01*
X136377000Y-99733000D01*
X136377000Y-99753000D01*
X136923392Y-99753000D01*
X136929480Y-99759088D01*
X136731233Y-99775784D01*
X136655411Y-99954384D01*
X136644464Y-100007000D01*
X136377000Y-100007000D01*
X136377000Y-100027000D01*
X136123000Y-100027000D01*
X136123000Y-100007000D01*
X135165000Y-100007000D01*
X135165000Y-100645010D01*
X128108721Y-100645010D01*
X128059774Y-100596063D01*
X127890256Y-100482795D01*
X127701898Y-100404774D01*
X127501939Y-100365000D01*
X127322456Y-100365000D01*
X127335000Y-100301939D01*
X127335000Y-100098061D01*
X127295226Y-99898102D01*
X127217205Y-99709744D01*
X127103937Y-99540226D01*
X126959774Y-99396063D01*
X126902809Y-99358000D01*
X128264678Y-99358000D01*
X128302000Y-99361676D01*
X128339322Y-99358000D01*
X128339333Y-99358000D01*
X128450986Y-99347003D01*
X128594247Y-99303546D01*
X128726276Y-99232974D01*
X128842001Y-99138001D01*
X128865804Y-99108997D01*
X129035999Y-98938802D01*
X129065002Y-98915000D01*
X129159975Y-98799275D01*
X129230547Y-98667246D01*
X129274004Y-98523985D01*
X129285001Y-98412332D01*
X129285001Y-98412323D01*
X129287692Y-98385001D01*
X129387489Y-98385001D01*
X129365000Y-98498064D01*
G37*
G04 #@! TD.AperFunction*
D16*
X145027000Y-99753000D02*
X145047000Y-99753000D01*
X145047000Y-100007000D01*
X145027000Y-100007000D01*
X145027000Y-100027000D01*
X144773000Y-100027000D01*
X144773000Y-100007000D01*
X144506463Y-100007000D01*
X144499632Y-99971011D01*
X144426957Y-99791107D01*
X144418767Y-99775784D01*
X144220520Y-99759088D01*
X144226608Y-99753000D01*
X144773000Y-99753000D01*
X144773000Y-99733000D01*
X145027000Y-99733000D01*
X145027000Y-99753000D01*
G04 #@! TA.AperFunction,Conductor*
D17*
G36*
X145027000Y-99753000D02*
G01*
X145047000Y-99753000D01*
X145047000Y-100007000D01*
X145027000Y-100007000D01*
X145027000Y-100027000D01*
X144773000Y-100027000D01*
X144773000Y-100007000D01*
X144506463Y-100007000D01*
X144499632Y-99971011D01*
X144426957Y-99791107D01*
X144418767Y-99775784D01*
X144220520Y-99759088D01*
X144226608Y-99753000D01*
X144773000Y-99753000D01*
X144773000Y-99733000D01*
X145027000Y-99733000D01*
X145027000Y-99753000D01*
G37*
G04 #@! TD.AperFunction*
D16*
X151435115Y-99409917D02*
X150967405Y-99409917D01*
X150930082Y-99406241D01*
X150892759Y-99409917D01*
X150892750Y-99409917D01*
X150781097Y-99420914D01*
X150637836Y-99464371D01*
X150505807Y-99534943D01*
X150390082Y-99629916D01*
X150366279Y-99658920D01*
X150360198Y-99665001D01*
X147387027Y-99665001D01*
X147387027Y-99435208D01*
X147509744Y-99517205D01*
X147698102Y-99595226D01*
X147898061Y-99635000D01*
X148101939Y-99635000D01*
X148301898Y-99595226D01*
X148490256Y-99517205D01*
X148659774Y-99403937D01*
X148703711Y-99360000D01*
X151385198Y-99360000D01*
X151435115Y-99409917D01*
G04 #@! TA.AperFunction,Conductor*
D17*
G36*
X151435115Y-99409917D02*
G01*
X150967405Y-99409917D01*
X150930082Y-99406241D01*
X150892759Y-99409917D01*
X150892750Y-99409917D01*
X150781097Y-99420914D01*
X150637836Y-99464371D01*
X150505807Y-99534943D01*
X150390082Y-99629916D01*
X150366279Y-99658920D01*
X150360198Y-99665001D01*
X147387027Y-99665001D01*
X147387027Y-99435208D01*
X147509744Y-99517205D01*
X147698102Y-99595226D01*
X147898061Y-99635000D01*
X148101939Y-99635000D01*
X148301898Y-99595226D01*
X148490256Y-99517205D01*
X148659774Y-99403937D01*
X148703711Y-99360000D01*
X151385198Y-99360000D01*
X151435115Y-99409917D01*
G37*
G04 #@! TD.AperFunction*
D16*
X139439981Y-92975806D02*
X139413986Y-93001801D01*
X139384988Y-93025599D01*
X139361190Y-93054597D01*
X139290015Y-93141323D01*
X139231393Y-93250997D01*
X139219443Y-93273353D01*
X139175986Y-93416614D01*
X139164989Y-93528267D01*
X139164989Y-93528277D01*
X139161313Y-93565599D01*
X139164989Y-93602923D01*
X139164991Y-94597071D01*
X139161314Y-94634402D01*
X139164991Y-94671734D01*
X139164991Y-94671735D01*
X139175988Y-94783388D01*
X139188391Y-94824276D01*
X139219444Y-94926648D01*
X139290016Y-95058678D01*
X139338083Y-95117247D01*
X139384990Y-95174403D01*
X139413988Y-95198201D01*
X140001805Y-95786019D01*
X140025599Y-95815012D01*
X140054592Y-95838806D01*
X140054596Y-95838810D01*
X140141322Y-95909985D01*
X140273352Y-95980557D01*
X140311752Y-95992205D01*
X140416614Y-96024014D01*
X140528267Y-96035011D01*
X140528276Y-96035011D01*
X140565599Y-96038687D01*
X140602923Y-96035011D01*
X141597071Y-96035009D01*
X141634402Y-96038686D01*
X141672090Y-96034974D01*
X141783388Y-96024012D01*
X141829501Y-96010024D01*
X141926648Y-95980556D01*
X142058678Y-95909984D01*
X142145404Y-95838809D01*
X142145405Y-95838808D01*
X142174403Y-95815010D01*
X142198201Y-95786012D01*
X142811004Y-95173210D01*
X142840001Y-95149413D01*
X142934974Y-95033688D01*
X143005546Y-94901659D01*
X143049003Y-94758398D01*
X143060000Y-94646745D01*
X143060000Y-94646737D01*
X143063676Y-94609412D01*
X143060000Y-94572087D01*
X143060000Y-93723451D01*
X143201898Y-93695226D01*
X143390256Y-93617205D01*
X143559774Y-93503937D01*
X143703937Y-93359774D01*
X143817205Y-93190256D01*
X143895226Y-93001898D01*
X143913504Y-92910010D01*
X149840000Y-92910010D01*
X149840001Y-96394200D01*
X149803937Y-96340226D01*
X149659774Y-96196063D01*
X149490256Y-96082795D01*
X149301898Y-96004774D01*
X149101939Y-95965000D01*
X148898061Y-95965000D01*
X148698102Y-96004774D01*
X148509744Y-96082795D01*
X148340226Y-96196063D01*
X148296289Y-96240000D01*
X146660000Y-96240000D01*
X146660000Y-95778711D01*
X146703937Y-95734774D01*
X146817205Y-95565256D01*
X146895226Y-95376898D01*
X146935000Y-95176939D01*
X146935000Y-94973061D01*
X146895226Y-94773102D01*
X146817205Y-94584744D01*
X146703937Y-94415226D01*
X146559774Y-94271063D01*
X146390256Y-94157795D01*
X146201898Y-94079774D01*
X146001939Y-94040000D01*
X145798061Y-94040000D01*
X145598102Y-94079774D01*
X145409744Y-94157795D01*
X145240226Y-94271063D01*
X145096063Y-94415226D01*
X144982795Y-94584744D01*
X144904774Y-94773102D01*
X144865000Y-94973061D01*
X144865000Y-95176939D01*
X144904774Y-95376898D01*
X144982795Y-95565256D01*
X145096063Y-95734774D01*
X145140001Y-95778712D01*
X145140000Y-96662677D01*
X145136324Y-96700000D01*
X145140000Y-96737322D01*
X145140000Y-96737332D01*
X145150997Y-96848985D01*
X145163436Y-96889990D01*
X133587343Y-96889990D01*
X133550010Y-96886313D01*
X133512677Y-96889990D01*
X133401024Y-96900987D01*
X133257763Y-96944444D01*
X133125734Y-97015016D01*
X133010009Y-97109989D01*
X132986206Y-97138993D01*
X132860000Y-97265199D01*
X132860000Y-94817150D01*
X133009744Y-94917205D01*
X133198102Y-94995226D01*
X133398061Y-95035000D01*
X133601939Y-95035000D01*
X133801898Y-94995226D01*
X133990256Y-94917205D01*
X134159774Y-94803937D01*
X134303937Y-94659774D01*
X134417205Y-94490256D01*
X134495226Y-94301898D01*
X134535000Y-94101939D01*
X134535000Y-93898061D01*
X134495226Y-93698102D01*
X134417205Y-93509744D01*
X134303937Y-93340226D01*
X134256903Y-93293192D01*
X134272277Y-93284975D01*
X134388002Y-93190002D01*
X134411804Y-93160999D01*
X134712785Y-92860019D01*
X139439981Y-92860019D01*
X139439981Y-92975806D01*
G04 #@! TA.AperFunction,Conductor*
D17*
G36*
X139439981Y-92975806D02*
G01*
X139413986Y-93001801D01*
X139384988Y-93025599D01*
X139361190Y-93054597D01*
X139290015Y-93141323D01*
X139231393Y-93250997D01*
X139219443Y-93273353D01*
X139175986Y-93416614D01*
X139164989Y-93528267D01*
X139164989Y-93528277D01*
X139161313Y-93565599D01*
X139164989Y-93602923D01*
X139164991Y-94597071D01*
X139161314Y-94634402D01*
X139164991Y-94671734D01*
X139164991Y-94671735D01*
X139175988Y-94783388D01*
X139188391Y-94824276D01*
X139219444Y-94926648D01*
X139290016Y-95058678D01*
X139338083Y-95117247D01*
X139384990Y-95174403D01*
X139413988Y-95198201D01*
X140001805Y-95786019D01*
X140025599Y-95815012D01*
X140054592Y-95838806D01*
X140054596Y-95838810D01*
X140141322Y-95909985D01*
X140273352Y-95980557D01*
X140311752Y-95992205D01*
X140416614Y-96024014D01*
X140528267Y-96035011D01*
X140528276Y-96035011D01*
X140565599Y-96038687D01*
X140602923Y-96035011D01*
X141597071Y-96035009D01*
X141634402Y-96038686D01*
X141672090Y-96034974D01*
X141783388Y-96024012D01*
X141829501Y-96010024D01*
X141926648Y-95980556D01*
X142058678Y-95909984D01*
X142145404Y-95838809D01*
X142145405Y-95838808D01*
X142174403Y-95815010D01*
X142198201Y-95786012D01*
X142811004Y-95173210D01*
X142840001Y-95149413D01*
X142934974Y-95033688D01*
X143005546Y-94901659D01*
X143049003Y-94758398D01*
X143060000Y-94646745D01*
X143060000Y-94646737D01*
X143063676Y-94609412D01*
X143060000Y-94572087D01*
X143060000Y-93723451D01*
X143201898Y-93695226D01*
X143390256Y-93617205D01*
X143559774Y-93503937D01*
X143703937Y-93359774D01*
X143817205Y-93190256D01*
X143895226Y-93001898D01*
X143913504Y-92910010D01*
X149840000Y-92910010D01*
X149840001Y-96394200D01*
X149803937Y-96340226D01*
X149659774Y-96196063D01*
X149490256Y-96082795D01*
X149301898Y-96004774D01*
X149101939Y-95965000D01*
X148898061Y-95965000D01*
X148698102Y-96004774D01*
X148509744Y-96082795D01*
X148340226Y-96196063D01*
X148296289Y-96240000D01*
X146660000Y-96240000D01*
X146660000Y-95778711D01*
X146703937Y-95734774D01*
X146817205Y-95565256D01*
X146895226Y-95376898D01*
X146935000Y-95176939D01*
X146935000Y-94973061D01*
X146895226Y-94773102D01*
X146817205Y-94584744D01*
X146703937Y-94415226D01*
X146559774Y-94271063D01*
X146390256Y-94157795D01*
X146201898Y-94079774D01*
X146001939Y-94040000D01*
X145798061Y-94040000D01*
X145598102Y-94079774D01*
X145409744Y-94157795D01*
X145240226Y-94271063D01*
X145096063Y-94415226D01*
X144982795Y-94584744D01*
X144904774Y-94773102D01*
X144865000Y-94973061D01*
X144865000Y-95176939D01*
X144904774Y-95376898D01*
X144982795Y-95565256D01*
X145096063Y-95734774D01*
X145140001Y-95778712D01*
X145140000Y-96662677D01*
X145136324Y-96700000D01*
X145140000Y-96737322D01*
X145140000Y-96737332D01*
X145150997Y-96848985D01*
X145163436Y-96889990D01*
X133587343Y-96889990D01*
X133550010Y-96886313D01*
X133512677Y-96889990D01*
X133401024Y-96900987D01*
X133257763Y-96944444D01*
X133125734Y-97015016D01*
X133010009Y-97109989D01*
X132986206Y-97138993D01*
X132860000Y-97265199D01*
X132860000Y-94817150D01*
X133009744Y-94917205D01*
X133198102Y-94995226D01*
X133398061Y-95035000D01*
X133601939Y-95035000D01*
X133801898Y-94995226D01*
X133990256Y-94917205D01*
X134159774Y-94803937D01*
X134303937Y-94659774D01*
X134417205Y-94490256D01*
X134495226Y-94301898D01*
X134535000Y-94101939D01*
X134535000Y-93898061D01*
X134495226Y-93698102D01*
X134417205Y-93509744D01*
X134303937Y-93340226D01*
X134256903Y-93293192D01*
X134272277Y-93284975D01*
X134388002Y-93190002D01*
X134411804Y-93160999D01*
X134712785Y-92860019D01*
X139439981Y-92860019D01*
X139439981Y-92975806D01*
G37*
G04 #@! TD.AperFunction*
M02*
